<svg width="20" height="20" viewBox="0 0 20 20" fill="none" xmlns="http://www.w3.org/2000/svg">
<mask id="mask0_255_26" style="mask-type:luminance" maskUnits="userSpaceOnUse" x="6" y="0" width="14" height="20">
<path d="M16.3169 2.08731e-07C15.9205 -0.000148208 15.5282 0.078853 15.1627 0.23237C14.7973 0.385887 14.4662 0.610828 14.1889 0.894L7.2579 7.925C6.69318 8.50175 6.37692 9.27681 6.37692 10.084C6.37692 10.8912 6.69318 11.6662 7.2579 12.243L13.7149 18.795C13.9923 19.0779 14.3234 19.3026 14.6887 19.4559C15.054 19.6093 15.4462 19.6883 15.8424 19.6883C16.2386 19.6883 16.6308 19.6093 16.9961 19.4559C17.3614 19.3026 17.6925 19.0779 17.9699 18.795C18.5346 18.2182 18.8509 17.4432 18.8509 16.636C18.8509 15.8288 18.5346 15.0538 17.9699 14.477L13.6409 10.083L18.4409 5.213C19.0047 4.63558 19.3204 3.86054 19.3204 3.0535C19.3204 2.24646 19.0047 1.47142 18.4409 0.894C18.1636 0.611936 17.833 0.387685 17.4685 0.234229C17.1039 0.0807733 16.7125 0.00116062 16.3169 2.08731e-07Z" fill="white"/>
</mask>
<g mask="url(#mask0_255_26)">
<path d="M19.6169 0H6.08289V19.986H19.6169V0Z" fill="url(#paint0_linear_255_26)"/>
</g>
<mask id="mask1_255_26" style="mask-type:luminance" maskUnits="userSpaceOnUse" x="0" y="0" width="14" height="20">
<path d="M3.3379 2.09765e-06C2.9412 -0.000468888 2.54841 0.0783775 2.18262 0.231905C1.81683 0.385433 1.48543 0.610544 1.2079 0.894002C0.641933 1.4703 0.324829 2.24576 0.324829 3.0535C0.324829 3.86124 0.641933 4.6367 1.2079 5.213L6.0079 10.083L1.6859 14.477C1.12118 15.0538 0.804922 15.8288 0.804922 16.636C0.804922 17.4432 1.12118 18.2182 1.6859 18.795C1.96333 19.0779 2.29438 19.3026 2.65968 19.4559C3.02498 19.6093 3.4172 19.6883 3.8134 19.6883C4.2096 19.6883 4.60182 19.6093 4.96713 19.4559C5.33243 19.3026 5.66347 19.0779 5.9409 18.795L12.3949 12.243C12.9596 11.6662 13.2759 10.8912 13.2759 10.084C13.2759 9.27681 12.9596 8.50176 12.3949 7.925L5.4679 0.894002C5.18993 0.611131 4.85844 0.386405 4.49276 0.23292C4.12707 0.0794343 3.73449 0.000257339 3.3379 2.09765e-06Z" fill="white"/>
</mask>
<g mask="url(#mask1_255_26)">
<path d="M13.5689 0H0.0349121V19.986H13.5689V0Z" fill="url(#paint1_linear_255_26)"/>
</g>
<defs>
<linearGradient id="paint0_linear_255_26" x1="-5.44808" y1="419.086" x2="-3.75633" y2="419.086" gradientUnits="userSpaceOnUse">
<stop stop-color="#AD1F23"/>
<stop offset="0.393" stop-color="#CB1E24"/>
<stop offset="0.761" stop-color="#E11E24"/>
<stop offset="1" stop-color="#E91E25"/>
</linearGradient>
<linearGradient id="paint1_linear_255_26" x1="-5.44636" y1="419.086" x2="-3.76814" y2="419.086" gradientUnits="userSpaceOnUse">
<stop stop-color="#AD1F23"/>
<stop offset="0.393" stop-color="#CB1E24"/>
<stop offset="0.761" stop-color="#E11E24"/>
<stop offset="1" stop-color="#E91E25"/>
</linearGradient>
</defs>
</svg>
