<svg width="275" height="276" viewBox="0 0 275 276" fill="none" xmlns="http://www.w3.org/2000/svg">
<mask id="mask0_7_3672" style="mask-type:luminance" maskUnits="userSpaceOnUse" x="0" y="0" width="275" height="276">
<path d="M274.231 0.5H0.46698V275.73H274.231V0.5Z" fill="white"/>
</mask>
<g mask="url(#mask0_7_3672)">
<mask id="mask1_7_3672" style="mask-type:luminance" maskUnits="userSpaceOnUse" x="0" y="0" width="275" height="219">
<path d="M274.231 0.5H0.46698V218.275H274.231V0.5Z" fill="white"/>
</mask>
<g mask="url(#mask1_7_3672)">
<path d="M0.46698 50.948C0.46698 34.648 21.467 20.156 54.03 10.933C77.113 4.394 105.988 0.5 137.35 0.5C168.712 0.5 197.586 4.394 220.67 10.933C253.225 20.156 274.232 34.646 274.232 50.948V218.275C274.232 190.413 212.948 167.827 137.35 167.827C61.752 167.827 0.46698 190.413 0.46698 218.275V50.948Z" fill="#87C9AF"/>
</g>
<mask id="mask2_7_3672" style="mask-type:luminance" maskUnits="userSpaceOnUse" x="0" y="0" width="275" height="202">
<path d="M274.231 0.5H0.46698V201.964H274.231V0.5Z" fill="white"/>
</mask>
<g mask="url(#mask2_7_3672)">
<path d="M274.182 52.739C273.141 35.971 252.393 21.118 220.67 11.577C197.587 4.635 168.712 0.5 137.35 0.5C105.988 0.5 77.113 4.635 54.03 11.577C21.467 21.369 0.46698 36.754 0.46698 54.062V201.962C14.539 187.176 29.05 171.274 44.702 156.324C100.922 117.812 190.533 102.09 274.232 148.811V54.062C274.232 53.618 274.213 53.177 274.182 52.739Z" fill="#B7E2F9"/>
</g>
<path d="M243.741 189.065C236.292 185.536 228.58 182.593 220.673 180.265C204.472 175.545 187.858 172.382 171.057 170.818C160.267 169.748 148.986 169.182 137.348 169.182C134.223 169.182 131.11 169.219 128.035 169.318L149.967 148.958L180.539 120.576L184.956 116.467L188.883 121.318L243.741 189.065Z" fill="#687EBD"/>
<mask id="mask3_7_3672" style="mask-type:luminance" maskUnits="userSpaceOnUse" x="0" y="92" width="172" height="97">
<path d="M171.056 92.661H0.46698V188.966H171.056V92.661Z" fill="white"/>
</mask>
<g mask="url(#mask3_7_3672)">
<path d="M171.056 170.824C160.266 169.754 148.985 169.188 137.347 169.188C134.222 169.188 131.109 169.225 128.034 169.324C100.279 170.037 74.813 174.011 54.034 180.273C46.2042 182.575 38.5658 185.484 31.188 188.973L13.337 188.345L0.46698 187.883L95.69 92.661L125.549 123.624L149.969 148.955L171.056 170.824Z" fill="#BDA6D0"/>
</g>
<mask id="mask4_7_3672" style="mask-type:luminance" maskUnits="userSpaceOnUse" x="116" y="47" width="43" height="43">
<path d="M158.178 47.967H116.521V89.603H158.178V47.967Z" fill="white"/>
</mask>
<g mask="url(#mask4_7_3672)">
<path d="M137.349 47.967C141.466 47.9688 145.49 49.1913 148.913 51.48C152.335 53.7687 155.002 57.0208 156.577 60.8251C158.151 64.6295 158.562 68.8152 157.758 72.8531C156.954 76.891 154.97 80.5997 152.058 83.5104C149.146 86.4211 145.437 88.403 141.398 89.2056C137.36 90.0082 133.174 89.5954 129.371 88.0194C125.567 86.4434 122.316 83.775 120.029 80.3515C117.742 76.928 116.521 72.9032 116.521 68.786C116.524 63.2637 118.719 57.9685 122.625 54.0645C126.531 50.1605 131.827 47.9673 137.349 47.967Z" fill="#ED988A"/>
</g>
<path d="M86.763 61.418H68.909C67.7253 61.418 66.5901 60.9478 65.7532 60.1108C64.9162 59.2738 64.446 58.1387 64.446 56.955C64.446 55.7713 64.9162 54.6362 65.7532 53.7992C66.5901 52.9622 67.7253 52.492 68.909 52.492H86.763C87.9466 52.492 89.0818 52.9622 89.9188 53.7992C90.7558 54.6362 91.226 55.7713 91.226 56.955C91.226 58.1387 90.7558 59.2738 89.9188 60.1108C89.0818 60.9478 87.9466 61.418 86.763 61.418Z" fill="white"/>
<path d="M98.666 43.563H80.812C79.6283 43.563 78.4932 43.0928 77.6562 42.2558C76.8192 41.4188 76.349 40.2837 76.349 39.1C76.349 37.9163 76.8192 36.7812 77.6562 35.9442C78.4932 35.1072 79.6283 34.637 80.812 34.637H98.666C99.8497 34.637 100.985 35.1072 101.822 35.9442C102.659 36.7812 103.129 37.9163 103.129 39.1C103.129 40.2837 102.659 41.4188 101.822 42.2558C100.985 43.0928 99.8497 43.563 98.666 43.563Z" fill="white"/>
<path d="M193.888 97.125H176.034C174.85 97.125 173.715 96.6548 172.878 95.8178C172.041 94.9808 171.571 93.8457 171.571 92.662C171.571 91.4783 172.041 90.3432 172.878 89.5062C173.715 88.6692 174.85 88.199 176.034 88.199H193.888C195.072 88.199 196.207 88.6692 197.044 89.5062C197.881 90.3432 198.351 91.4783 198.351 92.662C198.351 93.8457 197.881 94.9808 197.044 95.8178C196.207 96.6548 195.072 97.125 193.888 97.125Z" fill="white"/>
<path d="M205.791 79.274H187.937C186.765 79.2564 185.646 78.7784 184.823 77.943C184 77.1077 183.539 75.9821 183.539 74.8095C183.539 73.6369 184 72.5113 184.823 71.676C185.646 70.8406 186.765 70.3625 187.937 70.345H205.791C206.963 70.3625 208.082 70.8406 208.905 71.676C209.728 72.5113 210.189 73.6369 210.189 74.8095C210.189 75.9821 209.728 77.1077 208.905 77.943C208.082 78.7784 206.963 79.2564 205.791 79.274Z" fill="white"/>
<mask id="mask5_7_3672" style="mask-type:luminance" maskUnits="userSpaceOnUse" x="220" y="54" width="55" height="221">
<path d="M274.232 54.063H220.67V274.265H274.232V54.063Z" fill="white"/>
</mask>
<g mask="url(#mask5_7_3672)">
<path d="M220.67 96.548V274.265C252.023 264.836 272.751 248.248 274.233 231.719V54.062C274.233 71.374 253.226 86.756 220.67 96.548Z" fill="#87C9AF"/>
</g>
<mask id="mask6_7_3672" style="mask-type:luminance" maskUnits="userSpaceOnUse" x="0" y="54" width="55" height="216">
<path d="M54.029 54.063H0.46698V269.92H54.029V54.063Z" fill="white"/>
</mask>
<g mask="url(#mask6_7_3672)">
<path d="M0.46698 54.063V231.72C1.94898 248.249 22.676 260.491 54.03 269.92V96.549C21.467 86.757 0.46698 71.375 0.46698 54.063Z" fill="#87C9AF"/>
</g>
<path d="M176.23 191.486C177.685 191.486 179.107 191.055 180.317 190.246C181.526 189.438 182.469 188.289 183.026 186.945C183.583 185.601 183.728 184.122 183.445 182.695C183.161 181.268 182.46 179.957 181.431 178.929C180.403 177.9 179.092 177.199 177.665 176.915C176.238 176.632 174.759 176.777 173.415 177.334C172.071 177.891 170.922 178.834 170.114 180.043C169.305 181.253 168.874 182.675 168.874 184.13C168.876 186.08 169.652 187.95 171.031 189.329C172.41 190.708 174.28 191.484 176.23 191.486ZM176.23 181.678C176.715 181.678 177.189 181.822 177.592 182.091C177.995 182.361 178.31 182.744 178.495 183.192C178.681 183.64 178.729 184.133 178.635 184.608C178.54 185.084 178.307 185.521 177.964 185.864C177.621 186.207 177.184 186.44 176.708 186.535C176.233 186.629 175.74 186.581 175.292 186.395C174.844 186.21 174.461 185.895 174.191 185.492C173.922 185.089 173.778 184.615 173.778 184.13C173.778 183.48 174.037 182.856 174.497 182.397C174.956 181.937 175.58 181.679 176.23 181.678Z" fill="#B7E2F9"/>
<path d="M117.384 216.003H112.484C112.154 215.99 111.825 216.043 111.516 216.16C111.207 216.277 110.925 216.456 110.687 216.685C110.448 216.913 110.259 217.188 110.129 217.492C110 217.796 109.933 218.123 109.933 218.453C109.933 218.783 110 219.11 110.129 219.414C110.259 219.718 110.448 219.993 110.687 220.221C110.925 220.45 111.207 220.629 111.516 220.746C111.825 220.863 112.154 220.916 112.484 220.903H117.384C119.334 220.901 121.204 220.125 122.583 218.746C123.962 217.367 124.738 215.497 124.74 213.547V193.936C124.738 191.986 123.962 190.116 122.583 188.737C121.204 187.358 119.334 186.582 117.384 186.58H112.484C111.851 186.606 111.253 186.875 110.814 187.332C110.376 187.788 110.131 188.397 110.131 189.03C110.131 189.663 110.376 190.272 110.814 190.728C111.253 191.185 111.851 191.454 112.484 191.48H117.384C118.034 191.481 118.657 191.739 119.117 192.198C119.577 192.658 119.835 193.281 119.836 193.931V201.287H112.48C112.15 201.274 111.821 201.327 111.512 201.444C111.203 201.561 110.921 201.74 110.682 201.969C110.444 202.197 110.255 202.472 110.125 202.776C109.996 203.08 109.929 203.407 109.929 203.737C109.929 204.067 109.996 204.394 110.125 204.698C110.255 205.002 110.444 205.277 110.682 205.505C110.921 205.734 111.203 205.913 111.512 206.03C111.821 206.147 112.15 206.2 112.48 206.187H119.836V213.548C119.835 214.198 119.577 214.822 119.117 215.281C118.657 215.741 118.034 215.999 117.384 216" fill="#B7E2F9"/>
<path d="M137 191.485H141.9C142.23 191.498 142.559 191.445 142.868 191.328C143.177 191.211 143.459 191.032 143.697 190.803C143.936 190.575 144.125 190.3 144.255 189.996C144.384 189.692 144.451 189.365 144.451 189.035C144.451 188.705 144.384 188.378 144.255 188.074C144.125 187.77 143.936 187.495 143.697 187.267C143.459 187.038 143.177 186.859 142.868 186.742C142.559 186.625 142.23 186.572 141.9 186.585H137C135.05 186.587 133.18 187.363 131.801 188.742C130.422 190.121 129.646 191.991 129.644 193.941V213.548C129.644 215.499 130.419 217.37 131.799 218.749C133.178 220.129 135.049 220.904 137 220.904C138.951 220.904 140.822 220.129 142.201 218.749C143.581 217.37 144.356 215.499 144.356 213.548V203.748C144.354 201.798 143.578 199.928 142.199 198.549C140.82 197.17 138.95 196.394 137 196.392C136.163 196.4 135.333 196.553 134.548 196.844V193.944C134.549 193.294 134.807 192.67 135.267 192.211C135.726 191.751 136.35 191.493 137 191.492M137 201.3C137.65 201.301 138.273 201.559 138.733 202.019C139.193 202.478 139.451 203.102 139.452 203.752V213.548C139.465 213.878 139.412 214.207 139.295 214.516C139.178 214.825 138.999 215.107 138.77 215.345C138.542 215.584 138.267 215.773 137.963 215.903C137.659 216.032 137.332 216.099 137.002 216.099C136.672 216.099 136.345 216.032 136.041 215.903C135.737 215.773 135.462 215.584 135.233 215.345C135.005 215.107 134.826 214.825 134.709 214.516C134.592 214.207 134.539 213.878 134.552 213.548V203.748C134.553 203.098 134.811 202.474 135.271 202.015C135.73 201.555 136.354 201.297 137.004 201.296" fill="#B7E2F9"/>
<path d="M156.615 220.908C158.565 220.906 160.435 220.13 161.814 218.751C163.193 217.372 163.969 215.502 163.971 213.552V193.937C163.971 191.986 163.196 190.115 161.816 188.736C160.437 187.356 158.566 186.581 156.615 186.581C154.664 186.581 152.793 187.356 151.413 188.736C150.034 190.115 149.259 191.986 149.259 193.937V213.548C149.261 215.498 150.037 217.368 151.416 218.747C152.795 220.126 154.665 220.902 156.615 220.904M154.163 193.933C154.15 193.603 154.203 193.274 154.32 192.965C154.437 192.656 154.616 192.374 154.844 192.136C155.073 191.897 155.348 191.708 155.652 191.578C155.956 191.449 156.283 191.382 156.613 191.382C156.943 191.382 157.27 191.449 157.574 191.578C157.878 191.708 158.153 191.897 158.381 192.136C158.61 192.374 158.789 192.656 158.906 192.965C159.023 193.274 159.076 193.603 159.063 193.933V213.548C159.076 213.878 159.023 214.207 158.906 214.516C158.789 214.825 158.61 215.107 158.381 215.345C158.153 215.584 157.878 215.773 157.574 215.903C157.27 216.032 156.943 216.099 156.613 216.099C156.283 216.099 155.956 216.032 155.652 215.903C155.348 215.773 155.073 215.584 154.844 215.345C154.616 215.107 154.437 214.825 154.32 214.516C154.203 214.207 154.15 213.878 154.163 213.548V193.933Z" fill="#B7E2F9"/>
<path d="M194.074 216.254C193.658 216.047 193.204 215.926 192.74 215.898C192.277 215.87 191.812 215.935 191.374 216.089C190.935 216.244 190.533 216.485 190.189 216.798C189.846 217.112 189.569 217.491 189.375 217.913C189.181 218.335 189.073 218.792 189.059 219.256C189.045 219.721 189.124 220.184 189.291 220.617C189.459 221.05 189.712 221.446 190.036 221.779C190.359 222.113 190.746 222.379 191.174 222.56C198.89 226.116 203.314 230.314 203.314 234.07C203.314 241.47 186.638 250.97 155.735 253.998C154.849 254.086 154.03 254.511 153.449 255.185C152.867 255.86 152.567 256.732 152.61 257.621C152.653 258.511 153.037 259.35 153.681 259.964C154.325 260.579 155.181 260.923 156.071 260.925C156.182 260.925 156.298 260.918 156.413 260.908C189.122 257.708 210.258 247.171 210.258 234.071C210.258 229.345 207.45 222.419 194.083 216.255" fill="#B7E2F9"/>
<path d="M125.917 242.03C125.595 241.708 125.212 241.452 124.791 241.278C124.37 241.103 123.918 241.013 123.462 241.013C123.007 241.013 122.555 241.103 122.134 241.278C121.713 241.452 121.33 241.708 121.008 242.03C120.686 242.352 120.43 242.735 120.256 243.156C120.081 243.577 119.991 244.029 119.991 244.484C119.991 244.94 120.081 245.392 120.256 245.813C120.43 246.234 120.686 246.617 121.008 246.939L128.724 254.655C94.247 253.155 71.388 243.084 71.388 234.07C71.388 230.361 75.721 226.208 83.274 222.679C84.1085 222.289 84.7538 221.583 85.0679 220.717C85.382 219.851 85.3392 218.895 84.949 218.061C84.5587 217.226 83.8529 216.581 82.9869 216.267C82.1208 215.953 81.1655 215.996 80.331 216.386C67.201 222.526 64.444 229.386 64.444 234.07C64.444 250.658 96.378 260.27 129.188 261.623L121.008 269.803C120.686 270.125 120.43 270.508 120.256 270.929C120.081 271.35 119.991 271.802 119.991 272.257C119.991 272.713 120.081 273.165 120.256 273.586C120.43 274.007 120.686 274.39 121.008 274.712C121.33 275.034 121.713 275.29 122.134 275.464C122.555 275.639 123.007 275.729 123.462 275.729C123.918 275.729 124.37 275.639 124.791 275.464C125.212 275.29 125.595 275.034 125.917 274.712L139.804 260.825C140.126 260.503 140.382 260.12 140.556 259.699C140.731 259.278 140.821 258.826 140.821 258.37C140.821 257.915 140.731 257.463 140.556 257.042C140.382 256.621 140.126 256.238 139.804 255.916L125.917 242.03Z" fill="#B7E2F9"/>
</g>
</svg>
