<svg width="303" height="243" viewBox="0 0 303 243" fill="none" xmlns="http://www.w3.org/2000/svg">
<mask id="mask0_7_4112" style="mask-type:luminance" maskUnits="userSpaceOnUse" x="0" y="0" width="303" height="243">
<path d="M302.56 0H0.138V242.857H302.56V0Z" fill="white"/>
</mask>
<g mask="url(#mask0_7_4112)">
<path d="M297.22 66.208H168.91V237.516C168.911 238.933 169.475 240.291 170.477 241.293C171.479 242.295 172.838 242.857 174.255 242.858H283.139L302.561 222.335V71.551C302.561 70.1343 301.998 68.7756 300.997 67.7736C299.995 66.7717 298.637 66.2085 297.22 66.208Z" fill="#BAB9B9"/>
<mask id="mask1_7_4112" style="mask-type:luminance" maskUnits="userSpaceOnUse" x="168" y="66" width="130" height="175">
<path d="M297.152 66.1H168.91V240.077H297.152V66.1Z" fill="white"/>
</mask>
<g mask="url(#mask1_7_4112)">
<path d="M297.155 71.44V219.554H277.731V240.075H174.255C172.838 240.075 171.479 239.513 170.477 238.511C169.474 237.51 168.911 236.152 168.909 234.735V66.099H291.809C293.225 66.0993 294.584 66.6621 295.585 67.6636C296.587 68.6652 297.15 70.0236 297.15 71.44" fill="#B7E2F9"/>
</g>
<path d="M297.152 219.556L277.731 240.077V219.556H297.152Z" fill="white"/>
<path d="M280.482 135.346C280.482 144.73 277.699 153.904 272.485 161.706C267.271 169.509 259.861 175.59 251.191 179.181C242.521 182.773 232.981 183.712 223.777 181.881C214.573 180.05 206.119 175.531 199.483 168.896C192.848 162.26 188.329 153.806 186.498 144.602C184.667 135.398 185.606 125.858 189.198 117.188C192.789 108.518 198.87 101.108 206.673 95.8938C214.475 90.6801 223.649 87.8972 233.033 87.897C239.269 87.881 245.446 89.0974 251.21 91.4763C256.974 93.8552 262.211 97.3497 266.62 101.759C271.029 106.168 274.524 111.405 276.903 117.169C279.282 122.933 280.498 129.11 280.482 135.346Z" fill="#ED988A"/>
<mask id="mask2_7_4112" style="mask-type:luminance" maskUnits="userSpaceOnUse" x="202" y="152" width="62" height="31">
<path d="M263.717 152.396H202.35V182.795H263.717V152.396Z" fill="white"/>
</mask>
<g mask="url(#mask2_7_4112)">
<path d="M263.713 168.764V171.538C255.141 178.805 244.268 182.794 233.029 182.794C221.791 182.794 210.918 178.805 202.346 171.538V168.764C202.346 166.614 202.769 164.486 203.591 162.5C204.413 160.514 205.619 158.709 207.139 157.189C208.659 155.669 210.463 154.463 212.449 153.641C214.435 152.818 216.563 152.395 218.713 152.395H247.348C251.689 152.396 255.851 154.121 258.92 157.191C261.989 160.26 263.713 164.423 263.713 168.764Z" fill="#87C9AF"/>
</g>
<path d="M250.703 116.299V128.08C250.703 130.4 250.246 132.698 249.358 134.842C248.47 136.985 247.169 138.933 245.528 140.574C243.887 142.215 241.939 143.516 239.796 144.404C237.652 145.292 235.354 145.749 233.034 145.749C230.714 145.749 228.416 145.292 226.272 144.404C224.129 143.516 222.181 142.215 220.54 140.574C218.899 138.933 217.598 136.985 216.71 134.842C215.822 132.698 215.365 130.4 215.365 128.08V116.617C221.197 118.106 227.287 118.285 233.197 117.139C239.106 115.994 244.688 113.553 249.542 109.993C250.31 112.007 250.705 114.144 250.703 116.299Z" fill="white"/>
<path d="M240.59 144.053V152.112C240.59 154.117 239.794 156.04 238.376 157.457C236.958 158.875 235.035 159.671 233.031 159.671C231.026 159.671 229.103 158.875 227.685 157.457C226.267 156.04 225.471 154.117 225.471 152.112V144.053C227.834 145.171 230.416 145.75 233.031 145.75C235.645 145.75 238.227 145.171 240.59 144.053Z" fill="white"/>
<mask id="mask3_7_4112" style="mask-type:luminance" maskUnits="userSpaceOnUse" x="215" y="98" width="35" height="20">
<path d="M249.541 98.63H215.365V117.883H249.541V98.63Z" fill="white"/>
</mask>
<g mask="url(#mask3_7_4112)">
<path d="M249.541 109.992C244.687 113.552 239.105 115.993 233.196 117.138C227.286 118.284 221.196 118.105 215.364 116.616V116.298C215.367 112.17 216.816 108.173 219.459 105.001C222.101 101.829 225.77 99.6822 229.83 98.9332C233.89 98.1841 238.084 98.8799 241.684 100.9C245.285 102.92 248.064 106.137 249.541 109.992Z" fill="#87C9AF"/>
</g>
<path d="M226.007 202.887H179.556C178.611 202.887 177.705 202.512 177.037 201.844C176.369 201.176 175.994 200.27 175.994 199.325C175.994 198.38 176.369 197.474 177.037 196.806C177.705 196.138 178.611 195.763 179.556 195.763H226.007C226.952 195.763 227.858 196.138 228.526 196.806C229.194 197.474 229.569 198.38 229.569 199.325C229.569 200.27 229.194 201.176 228.526 201.844C227.858 202.512 226.952 202.887 226.007 202.887Z" fill="white"/>
<path d="M206.486 213.146H179.555C178.61 213.146 177.704 212.771 177.036 212.103C176.368 211.435 175.993 210.529 175.993 209.584C175.993 208.639 176.368 207.733 177.036 207.065C177.704 206.397 178.61 206.022 179.555 206.022H206.486C207.431 206.022 208.337 206.397 209.005 207.065C209.673 207.733 210.048 208.639 210.048 209.584C210.048 210.529 209.673 211.435 209.005 212.103C208.337 212.771 207.431 213.146 206.486 213.146Z" fill="white"/>
<path d="M219.453 213.146H216.104C215.159 213.146 214.253 212.771 213.585 212.103C212.917 211.435 212.542 210.529 212.542 209.584C212.542 208.639 212.917 207.733 213.585 207.065C214.253 206.397 215.159 206.022 216.104 206.022H219.453C220.398 206.022 221.304 206.397 221.972 207.065C222.64 207.733 223.015 208.639 223.015 209.584C223.015 210.529 222.64 211.435 221.972 212.103C221.304 212.771 220.398 213.146 219.453 213.146Z" fill="white"/>
<path d="M266.991 213.146H240.06C239.115 213.146 238.209 212.771 237.541 212.103C236.873 211.435 236.498 210.529 236.498 209.584C236.498 208.639 236.873 207.733 237.541 207.065C238.209 206.397 239.115 206.022 240.06 206.022H266.991C267.936 206.022 268.842 206.397 269.51 207.065C270.178 207.733 270.553 208.639 270.553 209.584C270.553 210.529 270.178 211.435 269.51 212.103C268.842 212.771 267.936 213.146 266.991 213.146Z" fill="white"/>
<path d="M279.957 213.146H276.608C275.663 213.146 274.757 212.771 274.089 212.103C273.421 211.435 273.046 210.529 273.046 209.584C273.046 208.639 273.421 207.733 274.089 207.065C274.757 206.397 275.663 206.022 276.608 206.022H279.957C280.902 206.022 281.808 206.397 282.476 207.065C283.144 207.733 283.519 208.639 283.519 209.584C283.519 210.529 283.144 211.435 282.476 212.103C281.808 212.771 280.902 213.146 279.957 213.146Z" fill="white"/>
<path d="M286.511 202.887H240.06C239.115 202.887 238.209 202.512 237.541 201.844C236.873 201.176 236.498 200.27 236.498 199.325C236.498 198.38 236.873 197.474 237.541 196.806C238.209 196.138 239.115 195.763 240.06 195.763H286.511C287.456 195.763 288.362 196.138 289.03 196.806C289.698 197.474 290.073 198.38 290.073 199.325C290.073 200.27 289.698 201.176 289.03 201.844C288.362 202.512 287.456 202.887 286.511 202.887Z" fill="white"/>
<path d="M228.719 45.733H100.409V217.041C100.41 218.458 100.974 219.816 101.977 220.818C102.979 221.819 104.338 222.382 105.755 222.382H214.638L234.06 201.86V51.074C234.06 49.6575 233.497 48.2992 232.495 47.2976C231.494 46.296 230.135 45.7332 228.719 45.733Z" fill="#BAB9B9"/>
<mask id="mask4_7_4112" style="mask-type:luminance" maskUnits="userSpaceOnUse" x="100" y="45" width="129" height="175">
<path d="M228.652 45.623H100.409V219.601H228.652V45.623Z" fill="white"/>
</mask>
<g mask="url(#mask4_7_4112)">
<path d="M228.652 50.964V199.08H209.231V219.601H105.755C104.338 219.601 102.979 219.039 101.977 218.037C100.975 217.036 100.411 215.678 100.409 214.261V45.623H223.309C224.725 45.6233 226.084 46.186 227.085 47.1876C228.087 48.1892 228.65 49.5475 228.65 50.964" fill="#B7E2F9"/>
</g>
<path d="M228.652 199.08L209.231 219.601V199.08H228.652Z" fill="white"/>
<path d="M211.981 114.871C211.981 124.255 209.198 133.429 203.984 141.231C198.77 149.034 191.36 155.115 182.69 158.706C174.02 162.298 164.48 163.237 155.276 161.406C146.072 159.575 137.618 155.056 130.982 148.421C124.347 141.785 119.828 133.331 117.997 124.127C116.166 114.923 117.105 105.383 120.697 96.7129C124.288 88.043 130.369 80.6326 138.172 75.4189C145.974 70.2051 155.148 67.4222 164.532 67.422C170.768 67.4061 176.945 68.6225 182.709 71.0014C188.473 73.3802 193.71 76.8747 198.119 81.2839C202.528 85.6932 206.023 90.9302 208.402 96.6942C210.781 102.458 211.997 108.635 211.981 114.871Z" fill="#ED988A"/>
<mask id="mask5_7_4112" style="mask-type:luminance" maskUnits="userSpaceOnUse" x="133" y="131" width="63" height="32">
<path d="M195.217 131.92H133.849V162.319H195.217V131.92Z" fill="white"/>
</mask>
<g mask="url(#mask5_7_4112)">
<path d="M195.217 148.289V151.063C186.645 158.33 175.772 162.319 164.534 162.319C153.295 162.319 142.422 158.33 133.85 151.063V148.289C133.85 146.14 134.273 144.012 135.095 142.026C135.917 140.04 137.122 138.236 138.641 136.716C140.161 135.196 141.965 133.99 143.95 133.167C145.936 132.344 148.064 131.92 150.213 131.92H178.848C180.998 131.92 183.126 132.343 185.112 133.166C187.098 133.988 188.903 135.194 190.423 136.714C191.943 138.234 193.149 140.039 193.971 142.025C194.794 144.011 195.217 146.139 195.217 148.289Z" fill="#87C9AF"/>
</g>
<path d="M182.202 95.826V107.605C182.202 112.291 180.34 116.785 177.027 120.099C173.713 123.412 169.219 125.274 164.533 125.274C159.847 125.274 155.353 123.412 152.039 120.099C148.726 116.785 146.864 112.291 146.864 107.605V96.141C152.696 97.6302 158.786 97.8085 164.696 96.6632C170.605 95.5178 176.187 93.0773 181.041 89.517C181.809 91.5305 182.203 93.6678 182.201 95.823" fill="white"/>
<path d="M172.09 123.577V131.636C172.09 133.641 171.294 135.564 169.876 136.981C168.458 138.399 166.535 139.196 164.53 139.196C162.526 139.196 160.603 138.399 159.185 136.981C157.767 135.564 156.971 133.641 156.971 131.636V123.577C159.334 124.695 161.916 125.274 164.53 125.274C167.145 125.274 169.727 124.695 172.09 123.577Z" fill="white"/>
<mask id="mask6_7_4112" style="mask-type:luminance" maskUnits="userSpaceOnUse" x="146" y="78" width="36" height="20">
<path d="M181.041 78.154H146.864V97.408H181.041V78.154Z" fill="white"/>
</mask>
<g mask="url(#mask6_7_4112)">
<path d="M181.041 89.517C176.188 93.0769 170.606 95.5173 164.698 96.6628C158.789 97.8083 152.7 97.6304 146.868 96.142V95.824C146.871 91.6956 148.32 87.6987 150.963 84.5269C153.605 81.355 157.274 79.2082 161.334 78.4592C165.394 77.7101 169.588 78.4059 173.188 80.426C176.789 82.446 179.568 85.6627 181.045 89.518" fill="#87C9AF"/>
</g>
<path d="M157.507 182.411H111.055C110.11 182.411 109.204 182.036 108.536 181.368C107.868 180.7 107.493 179.794 107.493 178.849C107.493 177.904 107.868 176.998 108.536 176.33C109.204 175.662 110.11 175.287 111.055 175.287H157.506C158.451 175.287 159.357 175.662 160.025 176.33C160.693 176.998 161.068 177.904 161.068 178.849C161.068 179.794 160.693 180.7 160.025 181.368C159.357 182.036 158.451 182.411 157.506 182.411" fill="white"/>
<path d="M137.986 192.67H111.055C110.11 192.67 109.204 192.295 108.536 191.627C107.868 190.959 107.493 190.053 107.493 189.108C107.493 188.163 107.868 187.257 108.536 186.589C109.204 185.921 110.11 185.546 111.055 185.546H137.986C138.931 185.546 139.837 185.921 140.505 186.589C141.173 187.257 141.548 188.163 141.548 189.108C141.548 190.053 141.173 190.959 140.505 191.627C139.837 192.295 138.931 192.67 137.986 192.67Z" fill="white"/>
<path d="M150.951 192.67H147.602C146.657 192.67 145.751 192.295 145.083 191.627C144.415 190.959 144.04 190.053 144.04 189.108C144.04 188.163 144.415 187.257 145.083 186.589C145.751 185.921 146.657 185.546 147.602 185.546H150.951C151.896 185.546 152.802 185.921 153.47 186.589C154.138 187.257 154.513 188.163 154.513 189.108C154.513 190.053 154.138 190.959 153.47 191.627C152.802 192.295 151.896 192.67 150.951 192.67Z" fill="white"/>
<path d="M198.49 192.67H171.559C170.614 192.67 169.708 192.295 169.04 191.627C168.372 190.959 167.997 190.053 167.997 189.108C167.997 188.163 168.372 187.257 169.04 186.589C169.708 185.921 170.614 185.546 171.559 185.546H198.49C199.435 185.546 200.341 185.921 201.009 186.589C201.677 187.257 202.052 188.163 202.052 189.108C202.052 190.053 201.677 190.959 201.009 191.627C200.341 192.295 199.435 192.67 198.49 192.67Z" fill="white"/>
<path d="M211.457 192.67H208.108C207.163 192.67 206.257 192.295 205.589 191.627C204.921 190.959 204.546 190.053 204.546 189.108C204.546 188.163 204.921 187.257 205.589 186.589C206.257 185.921 207.163 185.546 208.108 185.546H211.457C212.402 185.546 213.308 185.921 213.976 186.589C214.644 187.257 215.019 188.163 215.019 189.108C215.019 190.053 214.644 190.959 213.976 191.627C213.308 192.295 212.402 192.67 211.457 192.67Z" fill="white"/>
<path d="M218.012 182.411H171.559C170.614 182.411 169.708 182.036 169.04 181.368C168.372 180.7 167.997 179.794 167.997 178.849C167.997 177.904 168.372 176.998 169.04 176.33C169.708 175.662 170.614 175.287 171.559 175.287H218.012C218.957 175.287 219.863 175.662 220.531 176.33C221.199 176.998 221.574 177.904 221.574 178.849C221.574 179.794 221.199 180.7 220.531 181.368C219.863 182.036 218.957 182.411 218.012 182.411Z" fill="white"/>
<path d="M157.662 27.982H29.352V199.29C29.3536 200.707 29.9175 202.065 30.9199 203.067C31.9222 204.068 33.2811 204.631 34.698 204.631H143.581L163.003 184.109V33.322C163.003 31.9055 162.44 30.5472 161.438 29.5456C160.437 28.544 159.078 27.9823 157.662 27.982Z" fill="#BAB9B9"/>
<mask id="mask7_7_4112" style="mask-type:luminance" maskUnits="userSpaceOnUse" x="29" y="27" width="129" height="175">
<path d="M157.594 27.873H29.351V201.851H157.594V27.873Z" fill="white"/>
</mask>
<g mask="url(#mask7_7_4112)">
<path d="M157.593 33.214V181.33H138.172V201.851H34.696C33.2792 201.851 31.9203 201.289 30.9179 200.287C29.9155 199.286 29.3516 197.928 29.35 196.511V27.873H152.25C153.666 27.8733 155.025 28.436 156.026 29.4376C157.028 30.4392 157.591 31.7975 157.591 33.214" fill="#B7E2F9"/>
</g>
<path d="M157.594 181.33L138.173 201.851V181.33H157.594Z" fill="white"/>
<path d="M140.923 97.12C140.923 106.504 138.14 115.678 132.926 123.48C127.712 131.283 120.302 137.364 111.632 140.956C102.962 144.547 93.4217 145.486 84.2177 143.655C75.0138 141.824 66.5595 137.305 59.9238 130.669C53.2882 124.034 48.7693 115.579 46.9386 106.375C45.1079 97.1713 46.0476 87.6311 49.6389 78.9612C53.2301 70.2913 59.3116 62.881 67.1144 57.6674C74.9172 52.4537 84.0907 49.671 93.475 49.671C99.7106 49.655 105.888 50.8714 111.652 53.2503C117.416 55.6292 122.653 59.1237 127.062 63.5329C131.471 67.9421 134.966 73.1792 137.345 78.9432C139.724 84.7072 140.94 90.8844 140.924 97.12" fill="#ED988A"/>
<mask id="mask8_7_4112" style="mask-type:luminance" maskUnits="userSpaceOnUse" x="62" y="114" width="63" height="31">
<path d="M124.159 114.17H62.792V144.569H124.159V114.17Z" fill="white"/>
</mask>
<g mask="url(#mask8_7_4112)">
<path d="M124.159 130.539V133.313C115.587 140.58 104.714 144.569 93.476 144.569C82.238 144.569 71.3649 140.58 62.793 133.313V130.539C62.7926 128.39 63.2155 126.262 64.0376 124.276C64.8597 122.29 66.0649 120.486 67.5844 118.966C69.1038 117.446 70.9078 116.24 72.8932 115.417C74.8787 114.594 77.0068 114.17 79.156 114.17H107.79C109.94 114.17 112.068 114.593 114.054 115.416C116.04 116.238 117.845 117.444 119.365 118.964C120.885 120.484 122.091 122.289 122.913 124.275C123.736 126.261 124.159 128.389 124.159 130.539Z" fill="#87C9AF"/>
</g>
<path d="M111.145 78.073V89.855C111.145 94.5411 109.283 99.0353 105.97 102.349C102.656 105.662 98.1621 107.524 93.476 107.524C88.7899 107.524 84.2957 105.662 80.9821 102.349C77.6686 99.0353 75.807 94.5411 75.807 89.855V78.391C79.1098 79.234 82.5053 79.6597 85.914 79.658C94.5749 79.6719 103.012 76.906 109.983 71.767C110.751 73.7805 111.145 75.9178 111.143 78.073" fill="white"/>
<path d="M101.031 105.827V113.886C101.031 115.891 100.235 117.814 98.8169 119.231C97.3992 120.649 95.4764 121.446 93.4715 121.446C91.4666 121.446 89.5438 120.649 88.1261 119.231C86.7084 117.814 85.912 115.891 85.912 113.886V105.827C88.2754 106.945 90.8572 107.524 93.4715 107.524C96.0858 107.524 98.6676 106.945 101.031 105.827Z" fill="white"/>
<mask id="mask9_7_4112" style="mask-type:luminance" maskUnits="userSpaceOnUse" x="75" y="60" width="35" height="20">
<path d="M109.983 60.403H75.806V79.657H109.983V60.403Z" fill="white"/>
</mask>
<g mask="url(#mask9_7_4112)">
<path d="M109.982 71.768C103.01 76.9072 94.5732 79.6732 85.912 79.659C82.5033 79.6607 79.1078 79.2351 75.805 78.392V78.068C75.8099 73.9402 77.2595 69.9442 79.9024 66.7734C82.5453 63.6026 86.2148 61.4569 90.2742 60.7086C94.3337 59.9603 98.527 60.6566 102.127 62.6767C105.727 64.6968 108.506 67.9132 109.982 71.768Z" fill="#87C9AF"/>
</g>
<path d="M86.449 164.66H39.998C39.0533 164.66 38.1473 164.285 37.4793 163.617C36.8113 162.949 36.436 162.043 36.436 161.098C36.436 160.153 36.8113 159.247 37.4793 158.579C38.1473 157.911 39.0533 157.536 39.998 157.536H86.449C87.3937 157.536 88.2997 157.911 88.9677 158.579C89.6357 159.247 90.011 160.153 90.011 161.098C90.011 162.043 89.6357 162.949 88.9677 163.617C88.2997 164.285 87.3937 164.66 86.449 164.66Z" fill="white"/>
<path d="M66.929 174.92H39.998C39.0533 174.92 38.1473 174.545 37.4793 173.877C36.8113 173.209 36.436 172.303 36.436 171.358C36.436 170.413 36.8113 169.507 37.4793 168.839C38.1473 168.171 39.0533 167.796 39.998 167.796H66.929C67.8737 167.796 68.7797 168.171 69.4477 168.839C70.1157 169.507 70.491 170.413 70.491 171.358C70.491 172.303 70.1157 173.209 69.4477 173.877C68.7797 174.545 67.8737 174.92 66.929 174.92Z" fill="white"/>
<path d="M79.895 174.92H76.545C75.6003 174.92 74.6943 174.545 74.0263 173.877C73.3583 173.209 72.983 172.303 72.983 171.358C72.983 170.413 73.3583 169.507 74.0263 168.839C74.6943 168.171 75.6003 167.796 76.545 167.796H79.895C80.8397 167.796 81.7457 168.171 82.4137 168.839C83.0817 169.507 83.457 170.413 83.457 171.358C83.457 172.303 83.0817 173.209 82.4137 173.877C81.7457 174.545 80.8397 174.92 79.895 174.92Z" fill="white"/>
<path d="M127.433 174.92H100.502C99.5573 174.92 98.6513 174.545 97.9833 173.877C97.3153 173.209 96.94 172.303 96.94 171.358C96.94 170.413 97.3153 169.507 97.9833 168.839C98.6513 168.171 99.5573 167.796 100.502 167.796H127.433C128.378 167.796 129.284 168.171 129.952 168.839C130.62 169.507 130.995 170.413 130.995 171.358C130.995 172.303 130.62 173.209 129.952 173.877C129.284 174.545 128.378 174.92 127.433 174.92Z" fill="white"/>
<path d="M140.399 174.92H137.05C136.105 174.92 135.199 174.545 134.531 173.877C133.863 173.209 133.488 172.303 133.488 171.358C133.488 170.413 133.863 169.507 134.531 168.839C135.199 168.171 136.105 167.796 137.05 167.796H140.399C141.344 167.796 142.25 168.171 142.918 168.839C143.586 169.507 143.961 170.413 143.961 171.358C143.961 172.303 143.586 173.209 142.918 173.877C142.25 174.545 141.344 174.92 140.399 174.92Z" fill="white"/>
<path d="M146.953 164.66H100.502C99.5573 164.66 98.6513 164.285 97.9833 163.617C97.3153 162.949 96.94 162.043 96.94 161.098C96.94 160.153 97.3153 159.247 97.9833 158.579C98.6513 157.911 99.5573 157.536 100.502 157.536H146.953C147.898 157.536 148.804 157.911 149.472 158.579C150.14 159.247 150.515 160.153 150.515 161.098C150.515 162.043 150.14 162.949 149.472 163.617C148.804 164.285 147.898 164.66 146.953 164.66Z" fill="white"/>
<path d="M60.995 30.428C60.995 36.446 59.2104 42.3289 55.867 47.3328C52.5236 52.3366 47.7714 56.2367 42.2115 58.5397C36.6516 60.8428 30.5336 61.4454 24.6312 60.2714C18.7287 59.0974 13.307 56.1995 9.0515 51.9442C4.79603 47.6889 1.89796 42.2672 0.723778 36.3648C-0.450406 30.4624 0.152027 24.3444 2.4549 18.7844C4.75777 13.2244 8.65764 8.47212 13.6614 5.12853C18.6651 1.78494 24.5479 0.00019778 30.566 0C38.6361 -4.35786e-09 46.3757 3.20577 52.0822 8.91209C57.7887 14.6184 60.9947 22.3579 60.995 30.428Z" fill="white"/>
<path d="M28.133 46.566C27.7297 46.566 27.3304 46.4865 26.9579 46.332C26.5854 46.1776 26.247 45.9513 25.962 45.666L15.702 35.406C15.417 35.121 15.191 34.7826 15.0368 34.4102C14.8826 34.0378 14.8032 33.6387 14.8033 33.2357C14.8034 32.4216 15.1268 31.641 15.7025 31.0655C16.2781 30.49 17.0588 30.1667 17.8728 30.1668C18.2759 30.1669 18.675 30.2463 19.0473 30.4006C19.4197 30.5549 19.758 30.781 20.043 31.066L28.132 39.154L45.828 21.461C46.4055 20.8951 47.183 20.5799 47.9916 20.584C48.8001 20.588 49.5744 20.9111 50.1462 21.4828C50.7179 22.0546 51.0409 22.8289 51.045 23.6374C51.0491 24.446 50.7339 25.2235 50.168 25.801L30.304 45.667C30.019 45.9523 29.6806 46.1786 29.308 46.333C28.9355 46.4875 28.5362 46.567 28.133 46.567" fill="#87C9AF"/>
</g>
</svg>
