<svg width="375" height="227" viewBox="0 0 375 227" fill="none" xmlns="http://www.w3.org/2000/svg">
<mask id="mask0_7_4058" style="mask-type:luminance" maskUnits="userSpaceOnUse" x="0" y="0" width="375" height="227">
<path d="M374.439 0H0.849976V226.777H374.439V0Z" fill="white"/>
</mask>
<g mask="url(#mask0_7_4058)">
<mask id="mask1_7_4058" style="mask-type:luminance" maskUnits="userSpaceOnUse" x="30" y="0" width="313" height="200">
<path d="M342.578 0H30.837V199.913H342.578V0Z" fill="white"/>
</mask>
<g mask="url(#mask1_7_4058)">
<path d="M342.578 199.914H30.837V10.007C30.837 7.35298 31.8913 4.80766 33.768 2.93098C35.6446 1.05431 38.19 4.99796e-08 40.844 4.99796e-08H332.571C333.885 -0.000131295 335.186 0.258618 336.401 0.76147C337.615 1.26432 338.718 2.00143 339.647 2.93069C340.577 3.85995 341.314 4.96317 341.816 6.17733C342.319 7.3915 342.578 8.69283 342.578 10.007V199.914Z" fill="#B7E2F9"/>
</g>
<path d="M342.578 36.859H30.837V10.007C30.837 7.35298 31.8913 4.80766 33.768 2.93098C35.6446 1.05431 38.19 4.99796e-08 40.844 4.99796e-08H332.571C333.885 -0.000131295 335.186 0.258618 336.401 0.76147C337.615 1.26432 338.718 2.00143 339.647 2.93069C340.577 3.85995 341.314 4.96317 341.816 6.17733C342.319 7.3915 342.578 8.69283 342.578 10.007V36.859Z" fill="#ED988A"/>
<path d="M360.092 226.777H15.197C11.392 226.777 7.74293 225.265 5.05241 222.575C2.36188 219.884 0.850241 216.235 0.849976 212.43V199.914H374.439V212.43C374.439 216.235 372.927 219.884 370.237 222.575C367.546 225.265 363.897 226.777 360.092 226.777Z" fill="#ED988A"/>
<path d="M207.83 210.23H167.459C166.104 210.23 164.763 209.963 163.511 209.445C162.259 208.926 161.122 208.166 160.164 207.208C159.206 206.25 158.446 205.113 157.927 203.861C157.409 202.609 157.142 201.268 157.142 199.913H218.142C218.142 202.648 217.056 205.272 215.122 207.206C213.188 209.141 210.565 210.229 207.83 210.23Z" fill="white"/>
<path d="M68.868 22.178C68.868 23.3595 68.5176 24.5146 67.8612 25.497C67.2047 26.4794 66.2717 27.2451 65.1801 27.6973C64.0885 28.1494 62.8873 28.2677 61.7285 28.0372C60.5697 27.8067 59.5052 27.2377 58.6697 26.4023C57.8342 25.5668 57.2653 24.5023 57.0348 23.3435C56.8043 22.1846 56.9226 20.9834 57.3747 19.8918C57.8269 18.8002 58.5926 17.8672 59.575 17.2108C60.5574 16.5544 61.7124 16.204 62.894 16.204C64.4784 16.204 65.9979 16.8334 67.1182 17.9537C68.2386 19.0741 68.868 20.5936 68.868 22.178Z" fill="white"/>
<path d="M92.313 22.178C92.313 23.3595 91.9626 24.5146 91.3062 25.497C90.6497 26.4794 89.7167 27.2451 88.6251 27.6973C87.5335 28.1494 86.3324 28.2677 85.1735 28.0372C84.0147 27.8067 82.9502 27.2377 82.1147 26.4023C81.2792 25.5668 80.7103 24.5023 80.4798 23.3435C80.2493 22.1846 80.3676 20.9834 80.8197 19.8918C81.2719 18.8002 82.0376 17.8672 83.02 17.2108C84.0024 16.5544 85.1574 16.204 86.339 16.204C87.9234 16.204 89.4429 16.8334 90.5632 17.9537C91.6836 19.0741 92.313 20.5936 92.313 22.178Z" fill="white"/>
<path d="M115.763 22.178C115.763 23.3595 115.413 24.5146 114.756 25.497C114.1 26.4794 113.167 27.2451 112.075 27.6973C110.984 28.1494 109.782 28.2677 108.624 28.0372C107.465 27.8067 106.4 27.2377 105.565 26.4023C104.729 25.5668 104.16 24.5023 103.93 23.3435C103.699 22.1846 103.818 20.9834 104.27 19.8918C104.722 18.8002 105.488 17.8672 106.47 17.2108C107.452 16.5544 108.607 16.204 109.789 16.204C111.373 16.204 112.893 16.8334 114.013 17.9537C115.134 19.0741 115.763 20.5936 115.763 22.178Z" fill="white"/>
<path d="M275.953 63.878H237.323C236.854 63.878 236.404 63.6917 236.072 63.3599C235.74 63.0282 235.553 62.5783 235.553 62.109V59.869C235.553 59.3996 235.739 58.9494 236.071 58.6174C236.403 58.2855 236.854 58.099 237.323 58.099H275.953C276.185 58.099 276.415 58.1448 276.63 58.2338C276.845 58.3227 277.04 58.4531 277.204 58.6175C277.368 58.7819 277.499 58.977 277.588 59.1917C277.676 59.4065 277.722 59.6366 277.722 59.869V62.109C277.722 62.5782 277.536 63.0281 277.204 63.3599C276.872 63.6916 276.422 63.878 275.953 63.878Z" fill="white"/>
<path d="M311.601 85.933H237.322C236.853 85.933 236.403 85.7466 236.071 85.4149C235.739 85.0831 235.553 84.6332 235.553 84.164V81.933C235.553 81.4637 235.739 81.0137 236.071 80.6818C236.403 80.3499 236.853 80.1633 237.322 80.163H311.601C311.833 80.163 312.063 80.2088 312.278 80.2977C312.493 80.3867 312.688 80.5171 312.852 80.6815C313.016 80.8458 313.147 81.041 313.236 81.2557C313.324 81.4705 313.37 81.7006 313.37 81.933V84.173C313.37 84.4053 313.324 84.6353 313.235 84.85C313.146 85.0646 313.016 85.2596 312.852 85.4239C312.688 85.5881 312.493 85.7184 312.278 85.8073C312.063 85.8962 311.833 85.942 311.601 85.942" fill="white"/>
<path d="M280.288 155.479H237.322C236.853 155.479 236.403 155.293 236.071 154.961C235.739 154.629 235.553 154.179 235.553 153.71V151.47C235.553 151.238 235.599 151.007 235.687 150.793C235.776 150.578 235.906 150.383 236.071 150.219C236.235 150.054 236.43 149.924 236.645 149.835C236.859 149.746 237.09 149.7 237.322 149.7H280.288C280.52 149.7 280.75 149.746 280.965 149.835C281.179 149.924 281.374 150.054 281.539 150.219C281.703 150.383 281.833 150.578 281.922 150.793C282.01 151.008 282.056 151.238 282.056 151.47V153.71C282.056 153.942 282.01 154.172 281.922 154.387C281.833 154.602 281.703 154.797 281.538 154.961C281.374 155.125 281.179 155.255 280.965 155.344C280.75 155.433 280.52 155.479 280.288 155.479Z" fill="white"/>
<path d="M311.601 178.201H237.322C236.853 178.201 236.403 178.015 236.071 177.683C235.739 177.351 235.553 176.901 235.553 176.432V174.201C235.553 173.732 235.739 173.282 236.071 172.95C236.403 172.618 236.853 172.431 237.322 172.431H311.601C311.833 172.431 312.063 172.477 312.278 172.566C312.493 172.655 312.688 172.785 312.852 172.949C313.016 173.114 313.147 173.309 313.236 173.524C313.324 173.738 313.37 173.969 313.37 174.201V176.441C313.37 176.91 313.184 177.36 312.852 177.692C312.52 178.024 312.07 178.21 311.601 178.21" fill="white"/>
<path d="M311.601 110.695H237.322C236.853 110.695 236.403 110.509 236.071 110.177C235.739 109.845 235.553 109.395 235.553 108.926V106.686C235.553 106.217 235.739 105.767 236.071 105.435C236.403 105.103 236.853 104.916 237.322 104.916H311.601C311.833 104.916 312.063 104.962 312.278 105.051C312.493 105.14 312.688 105.27 312.852 105.434C313.016 105.599 313.147 105.794 313.236 106.009C313.324 106.223 313.37 106.454 313.37 106.686V108.926C313.37 109.395 313.184 109.845 312.852 110.177C312.52 110.509 312.07 110.695 311.601 110.695Z" fill="white"/>
<path d="M64.99 63.878H52.13C51.6607 63.878 51.2107 63.6917 50.8788 63.3599C50.5468 63.0282 50.3603 62.5783 50.36 62.109V59.869C50.36 59.3996 50.5465 58.9494 50.8784 58.6174C51.2103 58.2855 51.6606 58.099 52.13 58.099H64.99C65.2224 58.099 65.4525 58.1448 65.6672 58.2338C65.8819 58.3227 66.0769 58.4531 66.2412 58.6175C66.4055 58.7819 66.5358 58.977 66.6246 59.1917C66.7135 59.4065 66.7591 59.6366 66.759 59.869V62.109C66.759 62.5782 66.5726 63.0281 66.2409 63.3599C65.9091 63.6916 65.4592 63.878 64.99 63.878Z" fill="white"/>
<path d="M64.99 82.777H52.13C51.6607 82.777 51.2107 82.5906 50.8788 82.2589C50.5468 81.9272 50.3603 81.4772 50.36 81.008V78.767C50.3603 78.2977 50.5468 77.8478 50.8788 77.5161C51.2107 77.1843 51.6607 76.998 52.13 76.998H64.99C65.4592 76.998 65.9091 77.1844 66.2409 77.5161C66.5726 77.8479 66.759 78.2978 66.759 78.767V81.008C66.759 81.2403 66.7132 81.4703 66.6243 81.685C66.5354 81.8996 66.4051 82.0946 66.2409 82.2589C66.0766 82.4231 65.8816 82.5534 65.667 82.6423C65.4523 82.7312 65.2223 82.777 64.99 82.777Z" fill="white"/>
<path d="M64.99 101.675H52.13C51.6607 101.675 51.2107 101.489 50.8788 101.157C50.5468 100.825 50.3603 100.375 50.36 99.906V97.667C50.36 97.1976 50.5465 96.7474 50.8784 96.4154C51.2103 96.0835 51.6606 95.897 52.13 95.897H64.99C65.2224 95.897 65.4525 95.9428 65.6672 96.0318C65.8819 96.1207 66.0769 96.2511 66.2412 96.4155C66.4055 96.5799 66.5358 96.775 66.6246 96.9897C66.7135 97.2045 66.7591 97.4346 66.759 97.667V99.907C66.759 100.376 66.5726 100.826 66.2409 101.158C65.9091 101.49 65.4592 101.675 64.99 101.675Z" fill="white"/>
<path d="M64.99 120.573H52.13C51.6607 120.573 51.2107 120.387 50.8788 120.055C50.5468 119.723 50.3603 119.273 50.36 118.804V116.564C50.36 116.095 50.5465 115.644 50.8784 115.312C51.2103 114.98 51.6606 114.794 52.13 114.794H64.99C65.2224 114.794 65.4525 114.84 65.6672 114.929C65.8819 115.018 66.0769 115.148 66.2412 115.312C66.4055 115.477 66.5358 115.672 66.6246 115.887C66.7135 116.101 66.7591 116.332 66.759 116.564V118.804C66.759 119.273 66.5726 119.723 66.2409 120.055C65.9091 120.387 65.4592 120.573 64.99 120.573Z" fill="white"/>
<path d="M64.99 139.471H52.13C51.6607 139.471 51.2107 139.285 50.8788 138.953C50.5468 138.621 50.3603 138.171 50.36 137.702V135.461C50.3603 134.992 50.5468 134.542 50.8788 134.21C51.2107 133.878 51.6607 133.692 52.13 133.692H64.99C65.4592 133.692 65.9091 133.878 66.2409 134.21C66.5726 134.542 66.759 134.992 66.759 135.461V137.702C66.759 138.171 66.5726 138.621 66.2409 138.953C65.9091 139.285 65.4592 139.471 64.99 139.471Z" fill="white"/>
<path d="M64.99 158.369H52.13C51.6607 158.369 51.2107 158.183 50.8788 157.851C50.5468 157.519 50.3603 157.069 50.36 156.6V154.36C50.36 153.891 50.5465 153.44 50.8784 153.108C51.2103 152.776 51.6606 152.59 52.13 152.59H64.99C65.2224 152.59 65.4525 152.636 65.6672 152.725C65.8819 152.814 66.0769 152.944 66.2412 153.108C66.4055 153.273 66.5358 153.468 66.6246 153.683C66.7135 153.897 66.7591 154.128 66.759 154.36V156.6C66.759 157.069 66.5726 157.519 66.2409 157.851C65.9091 158.183 65.4592 158.369 64.99 158.369Z" fill="white"/>
<path d="M64.99 177.267H52.13C51.6607 177.267 51.2107 177.081 50.8788 176.749C50.5468 176.417 50.3603 175.967 50.36 175.498V173.258C50.36 172.789 50.5465 172.338 50.8784 172.006C51.2103 171.674 51.6606 171.488 52.13 171.488H64.99C65.2224 171.488 65.4525 171.534 65.6672 171.623C65.8819 171.712 66.0769 171.842 66.2412 172.006C66.4055 172.171 66.5358 172.366 66.6246 172.581C66.7135 172.795 66.7591 173.026 66.759 173.258V175.498C66.759 175.967 66.5726 176.417 66.2409 176.749C65.9091 177.081 65.4592 177.267 64.99 177.267Z" fill="white"/>
<path d="M115.763 104.642C115.763 104.642 127.046 80.01 146.1 79.887C158.243 79.808 155.472 89.961 171.715 89.961C187.958 89.961 216.071 60.988 216.071 60.988" stroke="white" stroke-width="4" stroke-linecap="round" stroke-linejoin="round"/>
<mask id="mask2_7_4058" style="mask-type:luminance" maskUnits="userSpaceOnUse" x="115" y="123" width="14" height="53">
<path d="M128.451 123.853H115.763V175.315H128.451V123.853Z" fill="white"/>
</mask>
<g mask="url(#mask2_7_4058)">
<path d="M126.873 175.316H117.341C116.922 175.316 116.521 175.15 116.225 174.854C115.929 174.558 115.763 174.157 115.763 173.738V125.432C115.763 125.013 115.929 124.612 116.225 124.316C116.521 124.02 116.922 123.854 117.341 123.854H126.873C127.08 123.854 127.285 123.895 127.477 123.974C127.669 124.053 127.843 124.169 127.989 124.316C128.136 124.462 128.252 124.636 128.331 124.828C128.41 125.019 128.451 125.225 128.451 125.432V173.738C128.451 174.157 128.285 174.558 127.989 174.854C127.693 175.15 127.291 175.316 126.873 175.316Z" fill="#87C9AF"/>
</g>
<mask id="mask3_7_4058" style="mask-type:luminance" maskUnits="userSpaceOnUse" x="143" y="137" width="13" height="39">
<path d="M155.783 137.753H143.095V175.315H155.783V137.753Z" fill="white"/>
</mask>
<g mask="url(#mask3_7_4058)">
<path d="M154.205 175.315H144.673C144.254 175.315 143.853 175.149 143.557 174.853C143.261 174.557 143.095 174.156 143.095 173.737V139.332C143.095 138.913 143.261 138.512 143.557 138.216C143.853 137.92 144.254 137.753 144.673 137.753H154.205C154.412 137.753 154.618 137.794 154.809 137.873C155.001 137.953 155.175 138.069 155.321 138.216C155.468 138.362 155.584 138.536 155.663 138.728C155.742 138.919 155.783 139.125 155.783 139.332V173.737C155.783 174.156 155.617 174.557 155.321 174.853C155.025 175.149 154.623 175.315 154.205 175.315Z" fill="#BDA6D0"/>
</g>
<mask id="mask4_7_4058" style="mask-type:luminance" maskUnits="userSpaceOnUse" x="196" y="137" width="14" height="39">
<path d="M209.042 137.753H196.353V175.315H209.042V137.753Z" fill="white"/>
</mask>
<g mask="url(#mask4_7_4058)">
<path d="M207.463 175.315H197.931C197.724 175.315 197.519 175.274 197.327 175.195C197.136 175.116 196.962 174.999 196.815 174.853C196.669 174.706 196.552 174.532 196.473 174.341C196.394 174.149 196.353 173.944 196.353 173.737V139.332C196.353 138.913 196.519 138.512 196.815 138.216C197.111 137.92 197.512 137.753 197.931 137.753H207.463C207.67 137.753 207.876 137.794 208.067 137.873C208.259 137.953 208.433 138.069 208.579 138.216C208.726 138.362 208.842 138.536 208.921 138.728C209 138.919 209.041 139.125 209.041 139.332V173.737C209.041 174.156 208.875 174.557 208.579 174.853C208.283 175.149 207.881 175.315 207.463 175.315Z" fill="#87C9AF"/>
</g>
<path d="M180.834 175.319H171.302C170.883 175.319 170.482 175.153 170.186 174.857C169.89 174.561 169.724 174.16 169.724 173.741V150.576C169.724 150.157 169.89 149.756 170.186 149.46C170.482 149.164 170.883 148.998 171.302 148.998H180.834C181.252 148.998 181.654 149.164 181.95 149.46C182.246 149.756 182.412 150.157 182.412 150.576V173.737C182.412 174.155 182.246 174.557 181.95 174.853C181.654 175.149 181.252 175.315 180.834 175.315" fill="#687EBD"/>
<path d="M86.341 179.89C85.8938 179.89 85.465 179.712 85.1488 179.396C84.8326 179.08 84.655 178.651 84.655 178.204V57.772C84.655 57.3248 84.8326 56.896 85.1488 56.5798C85.465 56.2636 85.8938 56.086 86.341 56.086C86.7881 56.086 87.217 56.2636 87.5331 56.5798C87.8493 56.896 88.027 57.3248 88.027 57.772V178.204C88.027 178.651 87.8493 179.08 87.5331 179.396C87.217 179.712 86.7881 179.89 86.341 179.89Z" fill="#ED988A"/>
</g>
</svg>
