<svg width="434" height="233" viewBox="0 0 434 233" fill="none" xmlns="http://www.w3.org/2000/svg">
<mask id="mask0_7_3944" style="mask-type:luminance" maskUnits="userSpaceOnUse" x="0" y="0" width="434" height="233">
<path d="M433.892 0H0V232.076H433.892V0Z" fill="white"/>
</mask>
<g mask="url(#mask0_7_3944)">
<mask id="mask1_7_3944" style="mask-type:luminance" maskUnits="userSpaceOnUse" x="0" y="0" width="130" height="130">
<path d="M129.037 0H0V129.037H129.037V0Z" fill="white"/>
</mask>
<g mask="url(#mask1_7_3944)">
<path d="M112.524 129.038H16.514C14.3454 129.038 12.1979 128.611 10.1944 127.781C8.19079 126.951 6.37031 125.735 4.83684 124.201C3.30337 122.668 2.08696 120.847 1.25705 118.844C0.427147 116.84 0 114.693 0 112.524L0 16.514C0 12.1342 1.73986 7.93381 4.83684 4.83684C7.93381 1.73986 12.1342 0 16.514 0L112.524 0C116.904 -8.02974e-09 121.104 1.73973 124.201 4.83648C127.298 7.93324 129.038 12.1334 129.038 16.513V112.523C129.038 116.903 127.298 121.103 124.201 124.2C121.104 127.297 116.904 129.038 112.524 129.038Z" fill="#B7E2F9"/>
</g>
<mask id="mask2_7_3944" style="mask-type:luminance" maskUnits="userSpaceOnUse" x="7" y="69" width="115" height="61">
<path d="M121.351 69.189H7.69104V129.041H121.351V69.189Z" fill="white"/>
</mask>
<g mask="url(#mask2_7_3944)">
<path d="M121.351 126.015C121.351 126.779 121.337 127.535 121.301 128.291C119.971 128.787 118.563 129.041 117.144 129.04H11.9001C10.4808 129.041 9.07282 128.787 7.74305 128.291C7.70705 127.535 7.69305 126.779 7.69305 126.015C7.69305 110.943 13.6805 96.4878 24.3382 85.8301C34.9959 75.1724 49.4508 69.185 64.5231 69.185C79.5953 69.185 94.0502 75.1724 104.708 85.8301C115.366 96.4878 121.353 110.943 121.353 126.015" fill="#B7E2F9"/>
</g>
<mask id="mask3_7_3944" style="mask-type:luminance" maskUnits="userSpaceOnUse" x="152" y="0" width="130" height="130">
<path d="M281.465 0H152.427V129.037H281.465V0Z" fill="white"/>
</mask>
<g mask="url(#mask3_7_3944)">
<path d="M264.951 129.038H168.941C166.772 129.038 164.625 128.611 162.621 127.781C160.618 126.951 158.797 125.735 157.264 124.201C155.73 122.668 154.514 120.847 153.684 118.844C152.854 116.84 152.427 114.693 152.427 112.524V16.514C152.427 12.1342 154.167 7.93381 157.264 4.83684C160.361 1.73986 164.561 0 168.941 0L264.951 0C269.331 -8.02973e-09 273.531 1.73973 276.628 4.83648C279.725 7.93324 281.465 12.1334 281.465 16.513V112.523C281.465 116.903 279.725 121.103 276.628 124.2C273.531 127.297 269.331 129.038 264.951 129.038Z" fill="#B7E2F9"/>
</g>
<mask id="mask4_7_3944" style="mask-type:luminance" maskUnits="userSpaceOnUse" x="304" y="0" width="130" height="130">
<path d="M433.892 0H304.855V129.037H433.892V0Z" fill="white"/>
</mask>
<g mask="url(#mask4_7_3944)">
<path d="M417.378 129.038H321.368C316.988 129.038 312.788 127.298 309.691 124.201C306.594 121.104 304.854 116.904 304.854 112.524V16.514C304.854 12.1342 306.594 7.93381 309.691 4.83684C312.788 1.73986 316.988 0 321.368 0L417.378 0C421.758 -8.02973e-09 425.958 1.73973 429.055 4.83648C432.152 7.93324 433.892 12.1334 433.892 16.513V112.523C433.892 116.903 432.152 121.103 429.055 124.2C425.958 127.297 421.758 129.038 417.378 129.038Z" fill="#B7E2F9"/>
</g>
<path d="M121.57 161.146H7.46701C5.48651 161.146 3.58712 160.359 2.18669 158.959C0.786264 157.558 -0.000488281 155.659 -0.000488281 153.678C-0.000488281 151.698 0.786264 149.799 2.18669 148.398C3.58712 146.998 5.48651 146.211 7.46701 146.211H121.567C123.548 146.211 125.447 146.998 126.847 148.398C128.248 149.799 129.035 151.698 129.035 153.678C129.035 155.659 128.248 157.558 126.847 158.959C125.447 160.359 123.548 161.146 121.567 161.146" fill="#ED988A"/>
<path d="M274 161.146H159.9C157.919 161.146 156.02 160.359 154.62 158.959C153.219 157.558 152.432 155.659 152.432 153.678C152.432 151.698 153.219 149.799 154.62 148.398C156.02 146.998 157.919 146.211 159.9 146.211H274C275.981 146.211 277.88 146.998 279.28 148.398C280.681 149.799 281.467 151.698 281.467 153.678C281.467 155.659 280.681 157.558 279.28 158.959C277.88 160.359 275.981 161.146 274 161.146Z" fill="#ED988A"/>
<path d="M426.424 161.146H312.324C310.344 161.146 308.444 160.359 307.044 158.959C305.643 157.558 304.857 155.659 304.857 153.678C304.857 151.698 305.643 149.799 307.044 148.398C308.444 146.998 310.344 146.211 312.324 146.211H426.424C428.405 146.211 430.304 146.998 431.704 148.398C433.105 149.799 433.892 151.698 433.892 153.678C433.892 155.659 433.105 157.558 431.704 158.959C430.304 160.359 428.405 161.146 426.424 161.146Z" fill="#ED988A"/>
<mask id="mask5_7_3944" style="mask-type:luminance" maskUnits="userSpaceOnUse" x="0" y="169" width="130" height="16">
<path d="M129.037 169.854H0V184.789H129.037V169.854Z" fill="white"/>
</mask>
<g mask="url(#mask5_7_3944)">
<path d="M121.57 184.789H7.46701C5.48651 184.789 3.58712 184.002 2.18669 182.602C0.786264 181.201 -0.000488281 179.302 -0.000488281 177.322C-0.000488281 175.341 0.786264 173.442 2.18669 172.041C3.58712 170.641 5.48651 169.854 7.46701 169.854H121.567C123.548 169.854 125.447 170.641 126.847 172.041C128.248 173.442 129.035 175.341 129.035 177.322C129.035 179.302 128.248 181.201 126.847 182.602C125.447 184.002 123.548 184.789 121.567 184.789" fill="#87C9AF"/>
</g>
<mask id="mask6_7_3944" style="mask-type:luminance" maskUnits="userSpaceOnUse" x="152" y="169" width="130" height="16">
<path d="M281.465 169.854H152.427V184.789H281.465V169.854Z" fill="white"/>
</mask>
<g mask="url(#mask6_7_3944)">
<path d="M274 184.789H159.9C157.919 184.789 156.02 184.002 154.62 182.602C153.219 181.201 152.432 179.302 152.432 177.322C152.432 175.341 153.219 173.442 154.62 172.041C156.02 170.641 157.919 169.854 159.9 169.854H274C275.981 169.854 277.88 170.641 279.28 172.041C280.681 173.442 281.467 175.341 281.467 177.322C281.467 179.302 280.681 181.201 279.28 182.602C277.88 184.002 275.981 184.789 274 184.789Z" fill="#87C9AF"/>
</g>
<mask id="mask7_7_3944" style="mask-type:luminance" maskUnits="userSpaceOnUse" x="304" y="169" width="130" height="16">
<path d="M433.892 169.854H304.855V184.789H433.892V169.854Z" fill="white"/>
</mask>
<g mask="url(#mask7_7_3944)">
<path d="M426.424 184.789H312.324C310.344 184.789 308.444 184.002 307.044 182.602C305.643 181.201 304.857 179.302 304.857 177.322C304.857 175.341 305.643 173.442 307.044 172.041C308.444 170.641 310.344 169.854 312.324 169.854H426.424C428.405 169.854 430.304 170.641 431.704 172.041C433.105 173.442 433.892 175.341 433.892 177.322C433.892 179.302 433.105 181.201 431.704 182.602C430.304 184.002 428.405 184.789 426.424 184.789Z" fill="#87C9AF"/>
</g>
<mask id="mask8_7_3944" style="mask-type:luminance" maskUnits="userSpaceOnUse" x="0" y="193" width="130" height="16">
<path d="M129.037 193.498H0V208.433H129.037V193.498Z" fill="white"/>
</mask>
<g mask="url(#mask8_7_3944)">
<path d="M121.57 208.433H7.46701C5.48651 208.433 3.58712 207.646 2.18669 206.246C0.786264 204.845 -0.000488281 202.946 -0.000488281 200.965C-0.000488281 198.985 0.786264 197.086 2.18669 195.685C3.58712 194.285 5.48651 193.498 7.46701 193.498H121.567C123.548 193.498 125.447 194.285 126.847 195.685C128.248 197.086 129.035 198.985 129.035 200.965C129.035 202.946 128.248 204.845 126.847 206.246C125.447 207.646 123.548 208.433 121.567 208.433" fill="#BDA6D0"/>
</g>
<mask id="mask9_7_3944" style="mask-type:luminance" maskUnits="userSpaceOnUse" x="152" y="193" width="130" height="16">
<path d="M281.465 193.498H152.427V208.433H281.465V193.498Z" fill="white"/>
</mask>
<g mask="url(#mask9_7_3944)">
<path d="M274 208.433H159.9C157.919 208.433 156.02 207.646 154.62 206.246C153.219 204.845 152.432 202.946 152.432 200.965C152.432 198.985 153.219 197.086 154.62 195.685C156.02 194.285 157.919 193.498 159.9 193.498H274C275.981 193.498 277.88 194.285 279.28 195.685C280.681 197.086 281.467 198.985 281.467 200.965C281.467 202.946 280.681 204.845 279.28 206.246C277.88 207.646 275.981 208.433 274 208.433Z" fill="#BDA6D0"/>
</g>
<mask id="mask10_7_3944" style="mask-type:luminance" maskUnits="userSpaceOnUse" x="304" y="193" width="130" height="16">
<path d="M433.892 193.498H304.855V208.433H433.892V193.498Z" fill="white"/>
</mask>
<g mask="url(#mask10_7_3944)">
<path d="M426.424 208.433H312.324C310.344 208.433 308.444 207.646 307.044 206.246C305.643 204.845 304.857 202.946 304.857 200.965C304.857 198.985 305.643 197.086 307.044 195.685C308.444 194.285 310.344 193.498 312.324 193.498H426.424C428.405 193.498 430.304 194.285 431.704 195.685C433.105 197.086 433.892 198.985 433.892 200.965C433.892 202.946 433.105 204.845 431.704 206.246C430.304 207.646 428.405 208.433 426.424 208.433Z" fill="#BDA6D0"/>
</g>
<mask id="mask11_7_3944" style="mask-type:luminance" maskUnits="userSpaceOnUse" x="0" y="217" width="130" height="16">
<path d="M129.037 217.141H0V232.076H129.037V217.141Z" fill="white"/>
</mask>
<g mask="url(#mask11_7_3944)">
<path d="M121.57 232.076H7.46701C5.48651 232.076 3.58712 231.289 2.18669 229.889C0.786264 228.488 -0.000488281 226.589 -0.000488281 224.608C-0.000488281 222.628 0.786264 220.729 2.18669 219.328C3.58712 217.928 5.48651 217.141 7.46701 217.141H121.567C123.548 217.141 125.447 217.928 126.847 219.328C128.248 220.729 129.035 222.628 129.035 224.608C129.035 226.589 128.248 228.488 126.847 229.889C125.447 231.289 123.548 232.076 121.567 232.076" fill="#B7E2F9"/>
</g>
<mask id="mask12_7_3944" style="mask-type:luminance" maskUnits="userSpaceOnUse" x="152" y="217" width="130" height="16">
<path d="M281.465 217.141H152.427V232.076H281.465V217.141Z" fill="white"/>
</mask>
<g mask="url(#mask12_7_3944)">
<path d="M274 232.076H159.9C157.919 232.076 156.02 231.289 154.62 229.889C153.219 228.488 152.432 226.589 152.432 224.608C152.432 222.628 153.219 220.729 154.62 219.328C156.02 217.928 157.919 217.141 159.9 217.141H274C275.981 217.141 277.88 217.928 279.28 219.328C280.681 220.729 281.467 222.628 281.467 224.608C281.467 226.589 280.681 228.488 279.28 229.889C277.88 231.289 275.981 232.076 274 232.076Z" fill="#B7E2F9"/>
</g>
<mask id="mask13_7_3944" style="mask-type:luminance" maskUnits="userSpaceOnUse" x="304" y="217" width="130" height="16">
<path d="M433.892 217.141H304.855V232.076H433.892V217.141Z" fill="white"/>
</mask>
<g mask="url(#mask13_7_3944)">
<path d="M426.424 232.076H312.324C310.344 232.076 308.444 231.289 307.044 229.889C305.643 228.488 304.857 226.589 304.857 224.608C304.857 222.628 305.643 220.729 307.044 219.328C308.444 217.928 310.344 217.141 312.324 217.141H426.424C428.405 217.141 430.304 217.928 431.704 219.328C433.105 220.729 433.892 222.628 433.892 224.608C433.892 226.589 433.105 228.488 431.704 229.889C430.304 231.289 428.405 232.076 426.424 232.076Z" fill="#B7E2F9"/>
</g>
<path d="M90.267 43.441C90.267 48.5335 88.7569 53.5116 85.9277 57.7458C83.0985 61.9801 79.0772 65.2802 74.3723 67.229C69.6675 69.1778 64.4904 69.6877 59.4958 68.6943C54.5012 67.7008 49.9133 65.2485 46.3124 61.6476C42.7115 58.0467 40.2592 53.4588 39.2657 48.4642C38.2723 43.4696 38.7822 38.2925 40.731 33.5877C42.6798 28.8828 45.9799 24.8615 50.2142 22.0323C54.4484 19.2031 59.4265 17.693 64.519 17.693C71.3478 17.693 77.8969 20.4057 82.7256 25.2344C87.5543 30.0631 90.267 36.6122 90.267 43.441Z" fill="white"/>
<path d="M121.351 126.015C121.351 126.779 121.337 127.535 121.301 128.291C119.971 128.787 118.563 129.041 117.144 129.04H11.9C10.4807 129.041 9.07276 128.787 7.74299 128.291C7.70699 127.535 7.69299 126.779 7.69299 126.015C7.69299 110.943 13.6804 96.4878 24.3381 85.8301C34.9958 75.1724 49.4507 69.185 64.523 69.185C79.5952 69.185 94.0502 75.1724 104.708 85.8301C115.366 96.4878 121.353 110.943 121.353 126.015" fill="white"/>
<path d="M243.07 43.441C243.07 48.5335 241.56 53.5116 238.731 57.7458C235.901 61.9801 231.88 65.2802 227.175 67.229C222.471 69.1778 217.293 69.6877 212.299 68.6943C207.304 67.7008 202.716 65.2485 199.115 61.6476C195.515 58.0467 193.062 53.4588 192.069 48.4642C191.075 43.4696 191.585 38.2925 193.534 33.5877C195.483 28.8828 198.783 24.8615 203.017 22.0323C207.251 19.2031 212.23 17.693 217.322 17.693C224.151 17.693 230.7 20.4057 235.529 25.2344C240.357 30.0631 243.07 36.6122 243.07 43.441Z" fill="white"/>
<path d="M274.155 126.015C274.155 126.779 274.141 127.535 274.105 128.291C272.775 128.787 271.367 129.041 269.948 129.04H164.7C163.281 129.041 161.873 128.787 160.543 128.291C160.507 127.535 160.493 126.779 160.493 126.015C160.493 110.943 166.48 96.4878 177.138 85.8301C187.796 75.1724 202.251 69.185 217.323 69.185C232.395 69.185 246.85 75.1724 257.508 85.8301C268.166 96.4878 274.153 110.943 274.153 126.015" fill="white"/>
<path d="M395.119 43.441C395.119 48.5335 393.609 53.5116 390.78 57.7458C387.95 61.9801 383.929 65.2802 379.224 67.229C374.52 69.1778 369.342 69.6877 364.348 68.6943C359.353 67.7008 354.765 65.2485 351.164 61.6476C347.564 58.0467 345.111 53.4588 344.118 48.4642C343.124 43.4696 343.634 38.2925 345.583 33.5877C347.532 28.8828 350.832 24.8615 355.066 22.0323C359.3 19.2031 364.279 17.693 369.371 17.693C376.2 17.693 382.749 20.4057 387.578 25.2344C392.406 30.0631 395.119 36.6122 395.119 43.441Z" fill="white"/>
<path d="M426.2 126.015C426.2 126.779 426.186 127.535 426.15 128.291C424.82 128.787 423.412 129.041 421.993 129.04H316.75C315.331 129.041 313.923 128.787 312.593 128.291C312.557 127.535 312.543 126.779 312.543 126.015C312.543 110.943 318.53 96.4878 329.188 85.8301C339.846 75.1724 354.301 69.185 369.373 69.185C384.445 69.185 398.9 75.1724 409.558 85.8301C420.216 96.4878 426.203 110.943 426.203 126.015" fill="white"/>
<path d="M71.22 112.045C71.3389 111.937 71.4253 111.799 71.4696 111.645C71.5138 111.491 71.514 111.327 71.4702 111.173C71.4264 111.019 71.3403 110.88 71.2217 110.772C71.1031 110.664 70.9567 110.592 70.799 110.563L67.48 109.952C67.343 109.927 67.2142 109.869 67.1046 109.783C66.995 109.697 66.908 109.585 66.851 109.458L65.473 106.378C65.4076 106.232 65.3025 106.106 65.1696 106.017C65.0367 105.927 64.8813 105.876 64.7211 105.87C64.5608 105.864 64.402 105.903 64.2628 105.982C64.1235 106.062 64.0093 106.179 63.933 106.32L62.327 109.288C62.2606 109.411 62.1654 109.515 62.0495 109.593C61.9336 109.67 61.8007 109.718 61.662 109.733L58.307 110.093C58.1477 110.11 57.9963 110.171 57.87 110.27C57.7437 110.369 57.6474 110.501 57.5922 110.651C57.537 110.801 57.5249 110.964 57.5574 111.121C57.5899 111.278 57.6656 111.423 57.776 111.539L60.102 113.984C60.1981 114.085 60.2683 114.207 60.3064 114.341C60.3446 114.475 60.3496 114.617 60.321 114.753L59.621 118.053C59.5883 118.21 59.6 118.373 59.6549 118.523C59.7098 118.674 59.8056 118.806 59.9316 118.905C60.0577 119.004 60.2088 119.066 60.3681 119.083C60.5273 119.101 60.6884 119.074 60.833 119.005L63.877 117.548C64.0027 117.487 64.1413 117.458 64.2807 117.464C64.4202 117.469 64.5562 117.508 64.677 117.578L67.603 119.259C67.742 119.339 67.9006 119.378 68.0608 119.373C68.2211 119.368 68.3766 119.317 68.5098 119.228C68.643 119.139 68.7486 119.014 68.8145 118.868C68.8805 118.722 68.9042 118.56 68.883 118.401L68.438 115.056C68.4199 114.918 68.4354 114.777 68.4833 114.647C68.5312 114.516 68.61 114.399 68.713 114.305L71.22 112.045Z" fill="#FFA100"/>
<path d="M89.983 112.045C90.1019 111.937 90.1883 111.799 90.2326 111.645C90.2768 111.491 90.277 111.327 90.2332 111.173C90.1894 111.019 90.1033 110.88 89.9847 110.772C89.8661 110.664 89.7197 110.592 89.562 110.563L86.243 109.952C86.106 109.927 85.9772 109.869 85.8676 109.783C85.758 109.697 85.671 109.585 85.614 109.458L84.236 106.378C84.1706 106.232 84.0655 106.106 83.9326 106.017C83.7997 105.927 83.6443 105.876 83.4841 105.87C83.3238 105.864 83.165 105.903 83.0258 105.982C82.8865 106.062 82.7723 106.179 82.696 106.32L81.09 109.288C81.0236 109.411 80.9284 109.515 80.8125 109.593C80.6966 109.67 80.5637 109.718 80.425 109.733L77.07 110.093C76.9107 110.11 76.7593 110.171 76.633 110.27C76.5067 110.369 76.4104 110.501 76.3552 110.651C76.3 110.801 76.2879 110.964 76.3204 111.121C76.3529 111.278 76.4286 111.423 76.539 111.539L78.865 113.984C78.9611 114.085 79.0313 114.207 79.0694 114.341C79.1076 114.475 79.1126 114.617 79.084 114.753L78.384 118.053C78.3513 118.21 78.363 118.373 78.4179 118.523C78.4728 118.674 78.5686 118.806 78.6946 118.905C78.8207 119.004 78.9718 119.066 79.1311 119.083C79.2903 119.101 79.4514 119.074 79.596 119.005L82.64 117.548C82.7657 117.487 82.9043 117.458 83.0437 117.464C83.1832 117.469 83.3192 117.508 83.44 117.578L86.366 119.259C86.505 119.339 86.6636 119.378 86.8238 119.373C86.9841 119.368 87.1396 119.317 87.2728 119.228C87.406 119.139 87.5116 119.014 87.5775 118.868C87.6435 118.722 87.6672 118.56 87.646 118.401L87.201 115.056C87.1829 114.918 87.1984 114.777 87.2463 114.647C87.2942 114.516 87.373 114.399 87.476 114.305L89.983 112.045Z" fill="#FFA100"/>
<path d="M52.453 112.045C52.5719 111.937 52.6583 111.799 52.7026 111.645C52.7468 111.491 52.747 111.327 52.7032 111.173C52.6594 111.019 52.5733 110.88 52.4547 110.772C52.3361 110.664 52.1897 110.592 52.032 110.563L48.713 109.952C48.576 109.927 48.4472 109.869 48.3376 109.783C48.228 109.697 48.141 109.585 48.084 109.458L46.706 106.378C46.6406 106.232 46.5355 106.106 46.4026 106.017C46.2697 105.927 46.1143 105.876 45.9541 105.87C45.7938 105.864 45.635 105.903 45.4958 105.982C45.3565 106.062 45.2423 106.179 45.166 106.32L43.56 109.288C43.4936 109.411 43.3984 109.515 43.2825 109.593C43.1666 109.67 43.0337 109.718 42.895 109.733L39.54 110.093C39.3807 110.11 39.2293 110.171 39.103 110.27C38.9767 110.369 38.8804 110.501 38.8252 110.651C38.77 110.801 38.7579 110.964 38.7904 111.121C38.8229 111.278 38.8986 111.423 39.009 111.539L41.335 113.984C41.4311 114.085 41.5013 114.207 41.5394 114.341C41.5776 114.475 41.5826 114.617 41.554 114.753L40.854 118.053C40.8213 118.21 40.833 118.373 40.8879 118.523C40.9428 118.674 41.0386 118.806 41.1646 118.905C41.2907 119.004 41.4418 119.066 41.6011 119.083C41.7604 119.101 41.9214 119.074 42.066 119.005L45.11 117.548C45.2357 117.487 45.3743 117.458 45.5137 117.464C45.6532 117.469 45.7892 117.508 45.91 117.578L48.836 119.259C48.975 119.339 49.1336 119.378 49.2939 119.373C49.4541 119.368 49.6096 119.317 49.7428 119.228C49.876 119.139 49.9816 119.014 50.0475 118.868C50.1135 118.722 50.1372 118.56 50.116 118.401L49.671 115.056C49.6529 114.918 49.6684 114.777 49.7163 114.647C49.7642 114.516 49.843 114.399 49.946 114.305L52.453 112.045Z" fill="#FFA100"/>
<path d="M224.027 112.045C224.146 111.937 224.232 111.799 224.277 111.645C224.321 111.491 224.321 111.327 224.277 111.173C224.233 111.019 224.147 110.88 224.029 110.772C223.91 110.664 223.764 110.592 223.606 110.563L220.287 109.952C220.15 109.927 220.021 109.869 219.912 109.783C219.802 109.697 219.715 109.585 219.658 109.458L218.28 106.378C218.215 106.232 218.109 106.106 217.977 106.017C217.844 105.927 217.688 105.876 217.528 105.87C217.368 105.864 217.209 105.903 217.07 105.982C216.931 106.062 216.816 106.179 216.74 106.32L215.134 109.288C215.068 109.411 214.972 109.515 214.857 109.593C214.741 109.67 214.608 109.718 214.469 109.733L211.114 110.093C210.955 110.11 210.803 110.171 210.677 110.27C210.551 110.369 210.454 110.501 210.399 110.651C210.344 110.801 210.332 110.964 210.364 111.121C210.397 111.278 210.473 111.423 210.583 111.539L212.909 113.984C213.005 114.085 213.075 114.207 213.113 114.341C213.152 114.475 213.157 114.617 213.128 114.753L212.428 118.053C212.395 118.21 212.407 118.373 212.462 118.523C212.517 118.674 212.613 118.806 212.739 118.905C212.865 119.004 213.016 119.066 213.175 119.083C213.334 119.101 213.495 119.074 213.64 119.005L216.684 117.548C216.81 117.487 216.948 117.458 217.088 117.464C217.227 117.469 217.363 117.508 217.484 117.578L220.41 119.259C220.549 119.339 220.708 119.378 220.868 119.373C221.028 119.368 221.184 119.317 221.317 119.228C221.45 119.139 221.556 119.014 221.622 118.868C221.687 118.722 221.711 118.56 221.69 118.401L221.245 115.056C221.227 114.918 221.242 114.777 221.29 114.647C221.338 114.516 221.417 114.399 221.52 114.305L224.027 112.045Z" fill="#FFA100"/>
<path d="M242.789 112.045C242.908 111.937 242.994 111.799 243.039 111.645C243.083 111.491 243.083 111.327 243.039 111.173C242.995 111.019 242.909 110.88 242.791 110.772C242.672 110.664 242.526 110.592 242.368 110.563L239.049 109.952C238.912 109.927 238.783 109.869 238.674 109.783C238.564 109.697 238.477 109.585 238.42 109.458L237.042 106.378C236.977 106.232 236.871 106.106 236.739 106.017C236.606 105.927 236.45 105.876 236.29 105.87C236.13 105.864 235.971 105.903 235.832 105.982C235.692 106.062 235.578 106.179 235.502 106.32L233.896 109.288C233.83 109.411 233.734 109.515 233.618 109.593C233.503 109.67 233.37 109.718 233.231 109.733L229.876 110.093C229.717 110.11 229.565 110.171 229.439 110.27C229.313 110.369 229.216 110.501 229.161 110.651C229.106 110.801 229.094 110.964 229.126 111.121C229.159 111.278 229.235 111.423 229.345 111.539L231.671 113.984C231.767 114.085 231.837 114.207 231.875 114.341C231.914 114.475 231.919 114.617 231.89 114.753L231.19 118.053C231.157 118.21 231.169 118.373 231.224 118.523C231.279 118.674 231.375 118.806 231.501 118.905C231.627 119.004 231.778 119.066 231.937 119.083C232.096 119.101 232.257 119.074 232.402 119.005L235.446 117.548C235.572 117.487 235.71 117.458 235.85 117.464C235.989 117.469 236.125 117.508 236.246 117.578L239.172 119.259C239.311 119.339 239.47 119.378 239.63 119.373C239.79 119.368 239.946 119.317 240.079 119.228C240.212 119.139 240.318 119.014 240.384 118.868C240.449 118.722 240.473 118.56 240.452 118.401L240.007 115.056C239.989 114.918 240.004 114.777 240.052 114.647C240.1 114.516 240.179 114.399 240.282 114.305L242.789 112.045Z" fill="#FFA100"/>
<path d="M205.259 112.045C205.378 111.937 205.464 111.799 205.509 111.645C205.553 111.491 205.553 111.327 205.509 111.173C205.465 111.019 205.379 110.88 205.261 110.772C205.142 110.664 204.996 110.592 204.838 110.563L201.519 109.952C201.382 109.927 201.253 109.869 201.144 109.783C201.034 109.697 200.947 109.585 200.89 109.458L199.512 106.378C199.447 106.232 199.341 106.106 199.209 106.017C199.076 105.927 198.92 105.876 198.76 105.87C198.6 105.864 198.441 105.903 198.302 105.982C198.162 106.062 198.048 106.179 197.972 106.32L196.366 109.288C196.3 109.411 196.204 109.515 196.088 109.593C195.973 109.67 195.84 109.718 195.701 109.733L192.346 110.093C192.187 110.11 192.035 110.171 191.909 110.27C191.783 110.369 191.686 110.501 191.631 110.651C191.576 110.801 191.564 110.964 191.596 111.121C191.629 111.278 191.705 111.423 191.815 111.539L194.141 113.984C194.237 114.085 194.307 114.207 194.345 114.341C194.384 114.475 194.389 114.617 194.36 114.753L193.66 118.053C193.627 118.21 193.639 118.373 193.694 118.523C193.749 118.674 193.845 118.806 193.971 118.905C194.097 119.004 194.248 119.066 194.407 119.083C194.566 119.101 194.727 119.074 194.872 119.005L197.916 117.548C198.042 117.487 198.18 117.458 198.32 117.464C198.459 117.469 198.595 117.508 198.716 117.578L201.642 119.259C201.781 119.339 201.94 119.378 202.1 119.373C202.26 119.368 202.416 119.317 202.549 119.228C202.682 119.139 202.788 119.014 202.854 118.868C202.919 118.722 202.943 118.56 202.922 118.401L202.477 115.056C202.459 114.918 202.474 114.777 202.522 114.647C202.57 114.516 202.649 114.399 202.752 114.305L205.259 112.045Z" fill="#FFA100"/>
<path d="M376.072 112.045C376.191 111.937 376.277 111.799 376.322 111.645C376.366 111.491 376.366 111.327 376.322 111.173C376.278 111.019 376.192 110.88 376.074 110.772C375.955 110.664 375.809 110.592 375.651 110.563L372.332 109.952C372.195 109.927 372.066 109.869 371.957 109.783C371.847 109.697 371.76 109.585 371.703 109.458L370.325 106.378C370.26 106.232 370.154 106.106 370.022 106.017C369.889 105.927 369.733 105.876 369.573 105.87C369.413 105.864 369.254 105.903 369.115 105.982C368.975 106.062 368.861 106.179 368.785 106.32L367.179 109.288C367.113 109.411 367.017 109.515 366.901 109.593C366.786 109.67 366.653 109.718 366.514 109.733L363.159 110.093C363 110.11 362.848 110.171 362.722 110.27C362.596 110.369 362.499 110.501 362.444 110.651C362.389 110.801 362.377 110.964 362.409 111.121C362.442 111.278 362.518 111.423 362.628 111.539L364.954 113.984C365.05 114.085 365.12 114.208 365.158 114.341C365.196 114.475 365.202 114.617 365.173 114.753L364.473 118.053C364.44 118.21 364.452 118.373 364.507 118.523C364.562 118.674 364.658 118.806 364.784 118.905C364.91 119.004 365.061 119.066 365.22 119.083C365.379 119.101 365.54 119.074 365.685 119.005L368.729 117.548C368.855 117.487 368.993 117.458 369.133 117.464C369.272 117.469 369.408 117.508 369.529 117.578L372.455 119.259C372.594 119.339 372.753 119.378 372.913 119.373C373.073 119.368 373.229 119.317 373.362 119.228C373.495 119.139 373.601 119.014 373.667 118.868C373.732 118.722 373.756 118.56 373.735 118.401L373.29 115.056C373.272 114.918 373.287 114.777 373.335 114.647C373.383 114.516 373.462 114.399 373.565 114.305L376.072 112.045Z" fill="#FFA100"/>
<path d="M394.835 112.045C394.954 111.937 395.04 111.799 395.085 111.645C395.129 111.491 395.129 111.327 395.085 111.173C395.041 111.019 394.955 110.88 394.837 110.772C394.718 110.664 394.572 110.592 394.414 110.563L391.095 109.952C390.958 109.927 390.829 109.869 390.72 109.783C390.61 109.697 390.523 109.585 390.466 109.458L389.088 106.378C389.023 106.232 388.917 106.106 388.785 106.017C388.652 105.927 388.496 105.876 388.336 105.87C388.176 105.864 388.017 105.903 387.878 105.982C387.738 106.062 387.624 106.179 387.548 106.32L385.942 109.288C385.876 109.411 385.78 109.515 385.664 109.593C385.549 109.67 385.416 109.718 385.277 109.733L381.922 110.093C381.763 110.11 381.611 110.171 381.485 110.27C381.359 110.369 381.262 110.501 381.207 110.651C381.152 110.801 381.14 110.964 381.172 111.121C381.205 111.278 381.281 111.423 381.391 111.539L383.717 113.984C383.813 114.085 383.883 114.208 383.921 114.341C383.959 114.475 383.965 114.617 383.936 114.753L383.236 118.053C383.203 118.21 383.215 118.373 383.27 118.523C383.325 118.674 383.421 118.806 383.547 118.905C383.673 119.004 383.824 119.066 383.983 119.083C384.142 119.101 384.303 119.074 384.448 119.005L387.492 117.548C387.618 117.487 387.756 117.458 387.896 117.464C388.035 117.469 388.171 117.508 388.292 117.578L391.218 119.259C391.357 119.339 391.516 119.378 391.676 119.373C391.836 119.368 391.992 119.317 392.125 119.228C392.258 119.139 392.364 119.014 392.43 118.868C392.495 118.722 392.519 118.56 392.498 118.401L392.053 115.056C392.035 114.918 392.05 114.777 392.098 114.647C392.146 114.516 392.225 114.399 392.328 114.305L394.835 112.045Z" fill="#FFA100"/>
<path d="M357.3 112.045C357.419 111.937 357.505 111.799 357.55 111.645C357.594 111.491 357.594 111.327 357.55 111.173C357.506 111.019 357.42 110.88 357.302 110.772C357.183 110.664 357.037 110.592 356.879 110.563L353.56 109.952C353.423 109.927 353.294 109.869 353.185 109.783C353.075 109.697 352.988 109.585 352.931 109.458L351.553 106.378C351.488 106.232 351.382 106.106 351.25 106.017C351.117 105.927 350.961 105.876 350.801 105.87C350.641 105.864 350.482 105.903 350.343 105.982C350.203 106.062 350.089 106.179 350.013 106.32L348.407 109.288C348.341 109.411 348.245 109.515 348.129 109.593C348.014 109.67 347.881 109.718 347.742 109.733L344.387 110.093C344.228 110.11 344.076 110.171 343.95 110.27C343.824 110.369 343.727 110.501 343.672 110.651C343.617 110.801 343.605 110.964 343.637 111.121C343.67 111.278 343.746 111.423 343.856 111.539L346.182 113.984C346.278 114.085 346.348 114.208 346.386 114.341C346.424 114.475 346.43 114.617 346.401 114.753L345.701 118.053C345.668 118.21 345.68 118.373 345.735 118.523C345.79 118.674 345.886 118.806 346.012 118.905C346.138 119.004 346.289 119.066 346.448 119.083C346.607 119.101 346.768 119.074 346.913 119.005L349.957 117.548C350.083 117.487 350.221 117.458 350.361 117.464C350.5 117.469 350.636 117.508 350.757 117.578L353.683 119.259C353.822 119.339 353.981 119.378 354.141 119.373C354.301 119.368 354.457 119.317 354.59 119.228C354.723 119.139 354.829 119.014 354.895 118.868C354.96 118.722 354.984 118.56 354.963 118.401L354.518 115.056C354.5 114.918 354.515 114.777 354.563 114.647C354.611 114.516 354.69 114.399 354.793 114.305L357.3 112.045Z" fill="#FFA100"/>
</g>
</svg>
