<svg width="384" height="244" viewBox="0 0 384 244" fill="none" xmlns="http://www.w3.org/2000/svg">
<mask id="mask0_7_3730" style="mask-type:luminance" maskUnits="userSpaceOnUse" x="0" y="0" width="384" height="244">
<path d="M383.352 0.0969238H0.698975V243.246H383.352V0.0969238Z" fill="white"/>
</mask>
<g mask="url(#mask0_7_3730)">
<mask id="mask1_7_3730" style="mask-type:luminance" maskUnits="userSpaceOnUse" x="0" y="0" width="384" height="244">
<path d="M383.352 0.0969238H0.698975V243.246H383.352V0.0969238Z" fill="white"/>
</mask>
<g mask="url(#mask1_7_3730)">
<path d="M354.642 243.246H29.41C25.6396 243.246 21.9061 242.503 18.4228 241.06C14.9394 239.618 11.7743 237.503 9.10823 234.837C6.44217 232.171 4.32733 229.006 2.88447 225.522C1.44161 222.039 0.698975 218.305 0.698975 214.535L0.698975 28.8069C0.69924 21.1925 3.72426 13.89 9.10859 8.50583C14.4929 3.12169 21.7955 0.0969238 29.41 0.0969238L354.642 0.0969238C362.256 0.0969238 369.559 3.12169 374.943 8.50583C380.328 13.89 383.353 21.1925 383.353 28.8069V214.535C383.353 218.305 382.61 222.039 381.167 225.522C379.725 229.006 377.61 232.171 374.944 234.837C372.278 237.503 369.113 239.618 365.629 241.06C362.146 242.503 358.412 243.246 354.642 243.246Z" fill="#B7E2F9"/>
</g>
<mask id="mask2_7_3730" style="mask-type:luminance" maskUnits="userSpaceOnUse" x="55" y="46" width="274" height="151">
<path d="M328.347 46.5409H55.705V196.801H328.347V46.5409Z" fill="white"/>
</mask>
<g mask="url(#mask2_7_3730)">
<path d="M328.347 46.5419H55.705V196.801H328.347V46.5419Z" fill="#87C9AF"/>
</g>
<path d="M123.847 74.5839H75.247C75.1674 74.5839 75.0911 74.6155 75.0348 74.6718C74.9786 74.7281 74.947 74.8044 74.947 74.8839V75.2029C74.947 75.2825 74.9786 75.3588 75.0348 75.4151C75.0911 75.4713 75.1674 75.5029 75.247 75.5029H123.847C123.927 75.5029 124.003 75.4713 124.059 75.4151C124.115 75.3588 124.147 75.2825 124.147 75.2029V74.8839C124.147 74.8044 124.115 74.7281 124.059 74.6718C124.003 74.6155 123.927 74.5839 123.847 74.5839Z" fill="white"/>
<path d="M85.766 76.1579H75.243C75.1634 76.1579 75.0871 76.1895 75.0308 76.2458C74.9746 76.3021 74.943 76.3784 74.943 76.4579V76.7769C74.943 76.8565 74.9746 76.9328 75.0308 76.9891C75.0871 77.0453 75.1634 77.0769 75.243 77.0769H85.766C85.8455 77.0769 85.9218 77.0453 85.9781 76.9891C86.0344 76.9328 86.066 76.8565 86.066 76.7769V76.4579C86.066 76.3784 86.0344 76.3021 85.9781 76.2458C85.9218 76.1895 85.8455 76.1579 85.766 76.1579Z" fill="white"/>
<path d="M134.686 76.1579H126.781C126.742 76.1579 126.703 76.1657 126.666 76.1808C126.63 76.1958 126.597 76.2179 126.569 76.2458C126.541 76.2737 126.519 76.3067 126.504 76.3431C126.489 76.3795 126.481 76.4185 126.481 76.4579V76.7769C126.481 76.8163 126.489 76.8553 126.504 76.8917C126.519 76.9281 126.541 76.9612 126.569 76.9891C126.597 77.0169 126.63 77.039 126.666 77.0541C126.703 77.0692 126.742 77.0769 126.781 77.0769H134.686C134.766 77.0769 134.842 77.0453 134.898 76.9891C134.954 76.9328 134.986 76.8565 134.986 76.7769V76.4579C134.986 76.3784 134.954 76.3021 134.898 76.2458C134.842 76.1895 134.766 76.1579 134.686 76.1579Z" fill="white"/>
<path d="M125.009 76.1579H117.104C117.024 76.1579 116.948 76.1895 116.892 76.2458C116.836 76.3021 116.804 76.3784 116.804 76.4579V76.7769C116.804 76.8565 116.836 76.9328 116.892 76.9891C116.948 77.0453 117.024 77.0769 117.104 77.0769H125.009C125.089 77.0769 125.165 77.0453 125.221 76.9891C125.277 76.9328 125.309 76.8565 125.309 76.7769V76.4579C125.309 76.3784 125.277 76.3021 125.221 76.2458C125.165 76.1895 125.089 76.1579 125.009 76.1579Z" fill="white"/>
<path d="M109.461 76.1579H105.261C105.181 76.1579 105.105 76.1895 105.049 76.2458C104.993 76.3021 104.961 76.3784 104.961 76.4579V76.7769C104.961 76.8565 104.993 76.9328 105.049 76.9891C105.105 77.0453 105.181 77.0769 105.261 77.0769H109.461C109.541 77.0769 109.617 77.0453 109.673 76.9891C109.729 76.9328 109.761 76.8565 109.761 76.7769V76.4579C109.761 76.3784 109.729 76.3021 109.673 76.2458C109.617 76.1895 109.541 76.1579 109.461 76.1579Z" fill="white"/>
<path d="M114.936 76.1579H110.736C110.656 76.1579 110.58 76.1895 110.524 76.2458C110.468 76.3021 110.436 76.3784 110.436 76.4579V76.7769C110.436 76.8565 110.468 76.9328 110.524 76.9891C110.58 77.0453 110.656 77.0769 110.736 77.0769H114.936C114.975 77.0769 115.014 77.0692 115.051 77.0541C115.087 77.039 115.12 77.0169 115.148 76.9891C115.176 76.9612 115.198 76.9281 115.213 76.8917C115.228 76.8553 115.236 76.8163 115.236 76.7769V76.4579C115.236 76.4185 115.228 76.3795 115.213 76.3431C115.198 76.3067 115.176 76.2737 115.148 76.2458C115.12 76.2179 115.087 76.1958 115.051 76.1808C115.014 76.1657 114.975 76.1579 114.936 76.1579Z" fill="white"/>
<path d="M86.297 86.9869H134.472C134.608 86.9869 134.739 87.041 134.835 87.1371C134.931 87.2333 134.986 87.3638 134.986 87.4999V87.6999C134.986 87.8361 134.931 87.9666 134.835 88.0627C134.739 88.1589 134.608 88.2129 134.472 88.2129H86.297C86.1609 88.2129 86.0304 88.1589 85.9342 88.0627C85.838 87.9665 85.784 87.836 85.784 87.6999V87.4999C85.784 87.3639 85.838 87.2334 85.9342 87.1372C86.0304 87.041 86.1609 86.9869 86.297 86.9869Z" fill="white"/>
<path d="M124.378 89.0839H134.472C134.608 89.0839 134.739 89.1381 134.835 89.2345C134.932 89.3309 134.986 89.4616 134.986 89.5979V89.7979C134.986 89.9341 134.931 90.0646 134.835 90.1607C134.739 90.2569 134.608 90.3109 134.472 90.3109H124.378C124.242 90.3109 124.111 90.2569 124.015 90.1607C123.918 90.0646 123.864 89.9341 123.864 89.7979V89.5979C123.864 89.5304 123.877 89.4636 123.903 89.4012C123.929 89.3389 123.967 89.2822 124.014 89.2345C124.062 89.1867 124.119 89.1489 124.181 89.123C124.244 89.0972 124.31 89.0839 124.378 89.0839Z" fill="white"/>
<path d="M75.457 89.0839H82.937C83.0733 89.0839 83.204 89.1381 83.3004 89.2345C83.3968 89.3309 83.451 89.4616 83.451 89.5979V89.7979C83.4507 89.9341 83.3964 90.0646 83.3001 90.1607C83.2037 90.2569 83.0731 90.3109 82.937 90.3109H75.457C75.3208 90.3109 75.1902 90.2569 75.0939 90.1607C74.9975 90.0646 74.9432 89.9341 74.943 89.7979V89.5979C74.943 89.4616 74.9971 89.3309 75.0935 89.2345C75.1899 89.1381 75.3207 89.0839 75.457 89.0839Z" fill="white"/>
<path d="M85.135 89.0839H92.612C92.7483 89.0839 92.879 89.1381 92.9754 89.2345C93.0718 89.3309 93.126 89.4616 93.126 89.5979V89.7979C93.1257 89.9341 93.0714 90.0646 92.9751 90.1607C92.8787 90.2569 92.7481 90.3109 92.612 90.3109H85.135C84.9989 90.3109 84.8684 90.2569 84.7722 90.1607C84.676 90.0645 84.622 89.934 84.622 89.7979V89.5979C84.622 89.4618 84.676 89.3312 84.7722 89.2348C84.8684 89.1385 84.9988 89.0842 85.135 89.0839Z" fill="white"/>
<path d="M100.684 89.0839H104.448C104.584 89.0842 104.715 89.1385 104.811 89.2348C104.907 89.3312 104.961 89.4618 104.961 89.5979V89.7979C104.961 89.934 104.907 90.0645 104.811 90.1607C104.715 90.2569 104.584 90.3109 104.448 90.3109H100.68C100.544 90.3109 100.413 90.2569 100.317 90.1607C100.221 90.0646 100.166 89.9341 100.166 89.7979V89.5979C100.166 89.4616 100.22 89.3309 100.317 89.2345C100.413 89.1381 100.544 89.0839 100.68 89.0839" fill="white"/>
<path d="M95.208 89.0839H98.976C99.1121 89.0842 99.2426 89.1385 99.3388 89.2348C99.435 89.3312 99.489 89.4618 99.489 89.5979V89.7979C99.489 89.8653 99.4757 89.932 99.4499 89.9942C99.4241 90.0565 99.3864 90.113 99.3387 90.1607C99.2911 90.2083 99.2345 90.2461 99.1723 90.2719C99.11 90.2977 99.0433 90.3109 98.976 90.3109H95.208C95.1406 90.3109 95.0739 90.2977 95.0117 90.2719C94.9494 90.2461 94.8929 90.2083 94.8452 90.1607C94.7976 90.113 94.7598 90.0565 94.734 89.9942C94.7082 89.932 94.695 89.8653 94.695 89.7979V89.5979C94.695 89.4618 94.749 89.3312 94.8452 89.2348C94.9413 89.1385 95.0718 89.0842 95.208 89.0839Z" fill="white"/>
<path d="M87.869 120.866H136.469C136.549 120.866 136.625 120.834 136.681 120.778C136.737 120.722 136.769 120.645 136.769 120.566V120.247C136.769 120.167 136.737 120.091 136.681 120.035C136.625 119.979 136.549 119.947 136.469 119.947H87.869C87.7894 119.947 87.7131 119.979 87.6568 120.035C87.6006 120.091 87.569 120.167 87.569 120.247V120.566C87.569 120.645 87.6006 120.722 87.6568 120.778C87.7131 120.834 87.7894 120.866 87.869 120.866Z" fill="white"/>
<path d="M125.95 119.29H136.473C136.512 119.29 136.551 119.282 136.588 119.267C136.624 119.252 136.657 119.23 136.685 119.202C136.713 119.174 136.735 119.141 136.75 119.105C136.765 119.068 136.773 119.029 136.773 118.99V118.671C136.773 118.632 136.765 118.593 136.75 118.556C136.735 118.52 136.713 118.487 136.685 118.459C136.657 118.431 136.624 118.409 136.588 118.394C136.551 118.379 136.512 118.371 136.473 118.371H125.95C125.911 118.371 125.872 118.379 125.835 118.394C125.799 118.409 125.766 118.431 125.738 118.459C125.71 118.487 125.688 118.52 125.673 118.556C125.658 118.593 125.65 118.632 125.65 118.671V118.99C125.65 119.029 125.658 119.068 125.673 119.105C125.688 119.141 125.71 119.174 125.738 119.202C125.766 119.23 125.799 119.252 125.835 119.267C125.872 119.282 125.911 119.29 125.95 119.29Z" fill="white"/>
<path d="M77.03 119.29H84.935C84.9744 119.29 85.0134 119.282 85.0498 119.267C85.0862 119.252 85.1193 119.23 85.1471 119.202C85.175 119.174 85.1971 119.141 85.2121 119.105C85.2272 119.068 85.235 119.029 85.235 118.99V118.671C85.235 118.632 85.2272 118.593 85.2121 118.556C85.1971 118.52 85.175 118.487 85.1471 118.459C85.1193 118.431 85.0862 118.409 85.0498 118.394C85.0134 118.379 84.9744 118.371 84.935 118.371H77.03C76.9504 118.371 76.8741 118.403 76.8178 118.459C76.7616 118.515 76.73 118.591 76.73 118.671V118.99C76.73 119.069 76.7616 119.146 76.8178 119.202C76.8741 119.258 76.9504 119.29 77.03 119.29Z" fill="white"/>
<path d="M86.707 119.29H94.612C94.6514 119.29 94.6904 119.282 94.7268 119.267C94.7632 119.252 94.7963 119.23 94.8241 119.202C94.852 119.174 94.8741 119.141 94.8892 119.105C94.9042 119.068 94.912 119.029 94.912 118.99V118.671C94.912 118.632 94.9042 118.593 94.8892 118.556C94.8741 118.52 94.852 118.487 94.8241 118.459C94.7963 118.431 94.7632 118.409 94.7268 118.394C94.6904 118.379 94.6514 118.371 94.612 118.371H86.707C86.6676 118.371 86.6286 118.379 86.5922 118.394C86.5558 118.409 86.5227 118.431 86.4949 118.459C86.467 118.487 86.4449 118.52 86.4298 118.556C86.4147 118.593 86.407 118.632 86.407 118.671V118.99C86.407 119.029 86.4147 119.068 86.4298 119.105C86.4449 119.141 86.467 119.174 86.4949 119.202C86.5227 119.23 86.5558 119.252 86.5922 119.267C86.6286 119.282 86.6676 119.29 86.707 119.29Z" fill="white"/>
<path d="M102.255 119.29H106.455C106.494 119.29 106.533 119.282 106.57 119.267C106.606 119.252 106.639 119.23 106.667 119.202C106.695 119.174 106.717 119.141 106.732 119.105C106.747 119.068 106.755 119.029 106.755 118.99V118.671C106.755 118.632 106.747 118.593 106.732 118.556C106.717 118.52 106.695 118.487 106.667 118.459C106.639 118.431 106.606 118.409 106.57 118.394C106.533 118.379 106.494 118.371 106.455 118.371H102.255C102.216 118.371 102.177 118.379 102.14 118.394C102.104 118.409 102.071 118.431 102.043 118.459C102.015 118.487 101.993 118.52 101.978 118.556C101.963 118.593 101.955 118.632 101.955 118.671V118.99C101.955 119.029 101.963 119.068 101.978 119.105C101.993 119.141 102.015 119.174 102.043 119.202C102.071 119.23 102.104 119.252 102.14 119.267C102.177 119.282 102.216 119.29 102.255 119.29Z" fill="white"/>
<path d="M96.78 119.29H100.98C101.019 119.29 101.058 119.282 101.095 119.267C101.131 119.252 101.164 119.23 101.192 119.202C101.22 119.174 101.242 119.141 101.257 119.105C101.272 119.068 101.28 119.029 101.28 118.99V118.671C101.28 118.632 101.272 118.593 101.257 118.556C101.242 118.52 101.22 118.487 101.192 118.459C101.164 118.431 101.131 118.409 101.095 118.394C101.058 118.379 101.019 118.371 100.98 118.371H96.78C96.7406 118.371 96.7016 118.379 96.6652 118.394C96.6288 118.409 96.5957 118.431 96.5678 118.459C96.54 118.487 96.5179 118.52 96.5028 118.556C96.4877 118.593 96.48 118.632 96.48 118.671V118.99C96.48 119.029 96.4877 119.068 96.5028 119.105C96.5179 119.141 96.54 119.174 96.5678 119.202C96.5957 119.23 96.6288 119.252 96.6652 119.267C96.7016 119.282 96.7406 119.29 96.78 119.29Z" fill="white"/>
<path d="M125.419 108.46H77.244C77.1078 108.46 76.9772 108.406 76.8809 108.31C76.7845 108.214 76.7302 108.083 76.73 107.947V107.747C76.7302 107.611 76.7845 107.48 76.8809 107.384C76.9772 107.288 77.1078 107.234 77.244 107.234H125.419C125.555 107.234 125.686 107.288 125.782 107.384C125.878 107.48 125.932 107.611 125.932 107.747V107.947C125.932 108.083 125.878 108.213 125.782 108.31C125.686 108.406 125.555 108.46 125.419 108.46Z" fill="white"/>
<path d="M87.338 106.357H77.243C77.1067 106.357 76.9759 106.303 76.8795 106.206C76.7831 106.11 76.729 105.979 76.729 105.843V105.643C76.7292 105.507 76.7835 105.376 76.8799 105.28C76.9762 105.184 77.1068 105.13 77.243 105.13H87.337C87.473 105.13 87.6035 105.184 87.6997 105.28C87.7959 105.376 87.85 105.507 87.85 105.643V105.843C87.85 105.979 87.796 106.11 87.6998 106.206C87.6036 106.302 87.4731 106.357 87.337 106.357" fill="white"/>
<path d="M136.258 106.357H128.781C128.645 106.357 128.514 106.303 128.418 106.206C128.321 106.11 128.267 105.979 128.267 105.843V105.643C128.267 105.507 128.321 105.376 128.418 105.28C128.514 105.184 128.645 105.13 128.781 105.13H136.258C136.394 105.13 136.525 105.184 136.621 105.28C136.717 105.376 136.772 105.507 136.772 105.643V105.843C136.772 105.91 136.759 105.977 136.733 106.04C136.707 106.102 136.669 106.159 136.621 106.206C136.574 106.254 136.517 106.292 136.455 106.318C136.392 106.344 136.325 106.357 136.258 106.357Z" fill="white"/>
<path d="M126.58 106.357H119.103C118.967 106.357 118.836 106.303 118.74 106.206C118.643 106.11 118.589 105.979 118.589 105.843V105.643C118.589 105.507 118.644 105.376 118.74 105.28C118.836 105.184 118.967 105.13 119.103 105.13H126.58C126.716 105.13 126.847 105.184 126.943 105.28C127.039 105.376 127.094 105.507 127.094 105.643V105.843C127.094 105.979 127.04 106.11 126.943 106.206C126.847 106.303 126.716 106.357 126.58 106.357Z" fill="white"/>
<path d="M111.032 106.357H107.264C107.128 106.357 106.997 106.302 106.901 106.206C106.805 106.11 106.751 105.979 106.751 105.843V105.643C106.751 105.507 106.805 105.376 106.901 105.28C106.997 105.184 107.128 105.13 107.264 105.13H111.032C111.168 105.13 111.299 105.184 111.395 105.28C111.491 105.376 111.546 105.507 111.546 105.643V105.843C111.546 105.979 111.492 106.11 111.395 106.206C111.299 106.303 111.168 106.357 111.032 106.357Z" fill="white"/>
<path d="M116.507 106.357H112.739C112.603 106.357 112.472 106.302 112.376 106.206C112.28 106.11 112.226 105.979 112.226 105.843V105.643C112.226 105.507 112.28 105.376 112.376 105.28C112.472 105.184 112.603 105.13 112.739 105.13H116.507C116.643 105.13 116.774 105.184 116.87 105.28C116.966 105.376 117.021 105.507 117.021 105.643V105.843C117.021 105.979 116.967 106.11 116.87 106.206C116.774 106.303 116.643 106.357 116.507 106.357Z" fill="white"/>
<path d="M189.651 198.594C182.637 201.951 170.973 199.537 175.751 188.183C180.892 175.965 188.995 164.042 197.898 153.513C208.632 140.818 223.949 123.821 234.755 116.076C255.736 101.035 254.388 125.529 251.249 135.709C246.703 150.449 230.898 163.555 219.137 175.154C209.886 184.277 197.302 194.933 189.651 198.594Z" fill="#ED988A"/>
<path d="M246.609 111.367C246.67 115.426 246.24 119.478 245.329 123.435C241.429 139.548 226.109 154.998 214.796 168.458C205.896 179.044 193.713 191.58 186.177 196.205C183.493 197.845 180.347 198.566 177.216 198.259C180.359 200.541 185.73 200.471 189.65 198.594C197.3 194.933 209.885 184.277 219.136 175.154C230.896 163.554 246.702 150.454 251.248 135.709C253.604 128.069 254.948 112.371 246.609 111.367Z" fill="#ED988A"/>
<path d="M179.584 199.435C172.974 197.513 146.925 176.956 137.294 170.464C135.555 169.292 128.403 163.899 124.604 162.979C119.078 161.641 112.541 162.179 109.782 160.563C106.722 158.77 98.326 149.263 98.895 147.844C99.45 146.462 105.395 151.926 108.767 154.208C110.193 155.062 111.866 155.408 113.514 155.189C115.569 155.122 117.76 154.952 119.26 154.827C120.347 154.736 121.082 154.484 121.001 154.057C120.868 153.357 120.858 153.027 119.611 152.441C118.139 151.75 114.327 151.062 113.305 150.259C112.205 149.39 112.405 149.059 113.588 149.206C116.742 149.479 119.866 150.022 122.927 150.831C124.464 151.385 125.889 152.208 127.137 153.262C130.306 155.684 130.951 157.973 134.668 159.925C150.046 168.002 171.657 175.311 181.568 179.925C186.497 182.225 192.188 187.868 191.296 194.739C190.918 197.646 186.164 201.339 179.587 199.431" fill="#ED988A"/>
<path d="M320.709 243.25H225.133C225.133 243.25 226.384 216.68 225.133 193.988C223.85 170.718 221.286 150.204 226.389 131.898C228.084 125.817 231.228 116.912 241.738 111.93C249.222 108.383 264.479 103.63 277.347 103.765C287.051 103.961 296.622 106.052 305.523 109.922C320.605 116.482 320.337 123.13 321.329 131.742C323.658 151.967 319.445 180.879 319.445 206.495C319.445 227.453 320.711 243.249 320.711 243.249" fill="#ED988A"/>
<path d="M321.328 131.743C321.157 130.276 321.028 128.852 320.846 127.491C318.867 126.111 316.819 124.831 314.71 123.658C303.21 117.2 294.149 121.826 297.49 136.466C298.411 140.503 301.538 145.59 302.426 149.659C304.343 158.547 302.426 166.011 299.226 172.716C295.896 179.677 295.307 186.787 296.345 194.958C297.363 202.978 301.625 211.032 300.961 219.128C299.561 236.028 279.307 239.807 264.85 243.245H320.708C320.708 243.245 319.445 227.445 319.445 206.491C319.445 180.876 323.653 151.961 321.329 131.743" fill="#ED988A"/>
<path d="M355.545 200.214C356.263 213.851 340.807 210.891 333.539 199.914C327.561 190.891 325.339 182.784 318.839 167.806C312.239 152.606 306.03 148.037 301.448 134.891C297.335 123.091 293.265 103.754 314.232 115.129C338.257 128.163 354.198 174.556 355.548 200.211" fill="#ED988A"/>
<path d="M347.745 209.241C341.38 209.241 311.49 195.267 299.162 190.474C297.053 189.655 289.662 186.404 285.462 186.36C279.346 186.296 271.762 187.722 268.468 186.73C264.13 185.43 254.86 178.819 254.524 176.996C253.87 173.433 275.636 174.044 275.636 174.044C275.636 174.044 268.646 168.368 272.48 168.977C276.387 169.597 279.945 170.098 282.68 172.009C285.556 174.015 290.599 178.667 294.951 179.892C312.651 184.872 332.268 185.451 341.128 187.876C346.487 189.343 352.194 193.638 353.946 198.151C354.995 200.851 358.146 209.242 347.746 209.242" fill="#ED988A"/>
<path d="M291.864 105.485L289.915 105.077C288.672 104.839 287.544 104.194 286.709 103.242C285.875 102.291 285.381 101.088 285.308 99.8249C284.628 88.0929 283.7 70.4589 283.7 70.4589H264.091V101.313C264.088 102.352 263.731 103.359 263.077 104.167C262.424 104.975 261.514 105.536 260.498 105.756C259.661 105.941 258.833 106.135 258.014 106.34C257.889 106.768 257.828 107.211 257.832 107.657C257.832 112.68 265.178 116.749 274.238 116.749C283.298 116.749 293.438 112.482 291.869 105.485" fill="#ED988A"/>
<path d="M284.69 88.9269C282.506 95.1269 275.983 101.457 268.658 101.093C267.064 101.021 265.507 100.597 264.097 99.8499V70.4499H283.705C283.705 70.4499 284.187 79.4889 284.691 88.9229" fill="#ED988A"/>
<path d="M284.454 68.6389C281.423 83.2389 274.969 87.3499 268.584 87.3499C261.903 87.3499 257.856 84.4339 255.836 70.4599C253.662 55.4199 254.826 49.7719 263.494 46.5419C267.171 45.1729 276.556 45.0419 280.873 49.3549C284.673 53.1549 285.6 63.1189 284.454 68.6389Z" fill="#ED988A"/>
<path d="M289.937 48.7449C289.219 43.1449 285.644 38.8389 280.962 40.3549C278.373 36.4129 273.03 34.4549 270.035 33.4909C266.106 32.2259 258.952 30.9999 254.77 31.9409C250.314 32.9409 249.232 35.9409 254.257 37.3929C251.8 38.4654 249.613 40.0732 247.857 42.0989C246.548 43.6659 244.448 48.9169 249.248 48.7799C247.272 54.2209 252.635 58.3999 255.048 59.6609C254.536 54.3929 256.794 50.7289 259.224 49.9489C262.838 48.7889 271.504 49.2399 275.336 51.9489C280.501 55.5989 280.607 65.2129 280.187 68.3489C280.044 69.4089 276.543 74.1699 271.849 74.1699C269.702 74.1699 267.533 72.5199 264.718 72.5199C262.127 72.5199 261.218 73.8279 259.211 73.8279C256.204 73.8279 256.204 68.8379 255.581 68.6349C253.632 67.9969 251.198 74.5169 251.198 83.6089C251.198 91.3379 255.968 98.5769 262.883 98.5769C270.89 98.5769 275.876 95.4769 279.527 90.8629C283.934 85.2919 283.793 77.5329 282.96 70.4629C284.747 69.0088 286.188 67.1756 287.179 65.0959C289.147 60.0309 290.612 54.0479 289.933 48.7489" fill="#ED988A"/>
<path d="M270.184 78.0409C270.184 78.4409 268.25 79.4659 265.866 79.4659C263.482 79.4659 261.548 78.3099 261.548 77.7459C261.548 77.3729 263.481 77.6409 265.866 77.6409C268.251 77.6409 270.184 77.5659 270.184 78.0409Z" fill="#ED988A"/>
<path d="M288.601 66.4719C288.171 69.4979 285.647 72.4719 284.101 72.0069C282.849 71.6289 282.789 69.5289 282.86 66.4719C282.928 63.5889 283.327 60.9369 285.202 60.9369C287.077 60.9369 289.116 62.8299 288.602 66.4719" fill="#ED988A"/>
<path d="M353.537 204.498C342.872 207.175 328.169 201.09 313.106 193.426C303.294 188.434 298.687 187.105 292.006 185.467C287.365 184.329 279.606 184.753 278.24 186.449C277.662 187.171 283.94 186.192 286.607 186.61C290.516 187.222 295.923 189.363 299.561 190.855C307.895 194.272 316.123 198.026 324.34 201.712C330.348 204.412 336.409 207.593 342.853 209.112C345.553 209.751 348.804 210.303 351.832 208.895C354.721 207.551 356.719 203.695 353.539 204.495" fill="#ED988A"/>
<path d="M267.14 159.901L248.783 161.975L257.283 176.118L275.64 174.045L267.14 159.901Z" fill="#ED988A"/>
<path d="M356.657 191.799C354.991 181.259 348.422 179.999 339.057 179.281C332.408 178.77 315.923 183.298 326.852 185.731C331.562 186.78 337.078 187.169 341.021 188.676C345.241 190.289 349.769 192.123 352.667 197.109C355.565 202.095 354.208 207.644 355.572 206.909C357.579 205.824 357.051 194.269 356.661 191.801" fill="#ED988A"/>
<path d="M198.021 194.644C198.891 192.321 198.208 186.12 197.161 182.875C196.001 179.28 192.431 172.434 187.612 169.736C183.84 167.625 182.135 171.608 180.663 174.464C179.643 176.441 178.934 179.175 181.098 181.157C184.534 184.303 188.342 190.313 187.322 194.677C186.486 198.258 181.599 199.318 182.035 200.5C182.972 203.044 196.179 199.563 198.021 194.644Z" fill="#ED988A"/>
<path d="M258.502 65.9389C258.502 65.9043 258.494 65.8701 258.479 65.8389C258.47 65.8068 258.455 65.7769 258.434 65.7509C258.427 65.7429 258.434 65.7299 258.42 65.7229C258.159 65.5051 257.981 65.2038 257.917 64.8701C257.852 64.5363 257.904 64.1905 258.065 63.8909C258.065 63.8839 258.065 63.8739 258.072 63.8659C258.087 63.8369 258.096 63.8048 258.098 63.7719C258.109 63.7398 258.112 63.7056 258.108 63.6719C258.108 63.6629 258.114 63.6559 258.108 63.6459C258.1 63.6199 258.073 63.6079 258.059 63.5869C258.045 63.5659 258.043 63.5329 258.019 63.5139C258.012 63.5079 258.002 63.5139 257.993 63.5069C257.965 63.4927 257.934 63.4839 257.902 63.4809C257.87 63.4706 257.836 63.4672 257.802 63.4709C257.793 63.4709 257.786 63.4649 257.776 63.4709C257.494 63.5678 257.253 63.7575 257.093 64.0091C256.932 64.2608 256.862 64.5593 256.894 64.8559C256.918 65.1977 257.063 65.5197 257.303 65.7643C257.543 66.0089 257.862 66.1602 258.203 66.1909C258.217 66.1917 258.231 66.1917 258.245 66.1909C258.28 66.1901 258.314 66.1821 258.346 66.1674C258.378 66.1528 258.407 66.1319 258.43 66.1059C258.43 66.1059 258.443 66.1059 258.447 66.0989C258.451 66.0919 258.456 66.0609 258.466 66.0429C258.476 66.0249 258.505 65.9969 258.51 65.9649C258.51 65.9539 258.502 65.9449 258.503 65.9349" fill="#ED988A"/>
<path d="M272.304 66.1079C272.304 66.0732 272.296 66.0389 272.28 66.0079C272.272 65.9758 272.257 65.9458 272.236 65.9199C272.229 65.9119 272.236 65.8989 272.222 65.8919C271.961 65.6741 271.783 65.3729 271.718 65.0392C271.653 64.7055 271.706 64.3596 271.866 64.0599C271.872 64.0529 271.866 64.0429 271.873 64.0349C271.888 64.0057 271.897 63.9737 271.899 63.9409C271.91 63.9088 271.913 63.8746 271.909 63.8409C271.909 63.8319 271.909 63.8249 271.909 63.8149C271.901 63.7889 271.874 63.7769 271.86 63.7559C271.846 63.7349 271.844 63.7019 271.82 63.6829C271.813 63.6769 271.803 63.6829 271.794 63.6759C271.765 63.662 271.735 63.6532 271.703 63.6499C271.671 63.6393 271.637 63.6359 271.603 63.6399C271.594 63.6399 271.587 63.6399 271.577 63.6399C271.295 63.7368 271.054 63.9265 270.894 64.1781C270.733 64.4297 270.663 64.7283 270.695 65.0249C270.719 65.3665 270.864 65.6884 271.103 65.933C271.343 66.1776 271.662 66.3289 272.003 66.3599C272.017 66.3607 272.031 66.3607 272.045 66.3599C272.08 66.359 272.114 66.351 272.146 66.3364C272.178 66.3218 272.207 66.3009 272.23 66.2749C272.23 66.2749 272.243 66.2749 272.247 66.2679C272.251 66.2609 272.256 66.2299 272.266 66.2119C272.276 66.1939 272.305 66.1659 272.31 66.1339C272.31 66.1229 272.302 66.1139 272.303 66.1039" fill="#ED988A"/>
<path d="M261.481 121.688L269.087 115.131C267.333 114.458 265.66 113.593 264.096 112.553C262.156 110.947 260.612 109.436 261.236 105.681C261.486 104.181 264.445 102.804 261.902 102.805C260.991 102.821 260.099 103.071 259.311 103.529C258.523 103.988 257.866 104.641 257.402 105.425C256.486 107.423 256.136 109.635 256.391 111.819C256.791 115.519 258.975 118.945 261.485 121.689" fill="#ED988A"/>
<path d="M292.515 105.101C291.649 102.755 290.28 104.527 290.167 104.958C289.267 108.431 287.65 110.545 283.813 112.598C280.418 114.382 276.647 115.33 272.813 115.365C272.38 115.343 271.946 115.347 271.513 115.377L277.778 123.313C284.913 120.652 294.609 112.901 292.512 105.102" fill="#ED988A"/>
<path d="M278.235 61.9909C274.635 59.7839 270.093 59.6399 266.941 61.6369C266.811 61.8847 266.782 62.1729 266.858 62.4419C266.882 62.4801 266.915 62.5114 266.955 62.5331C266.994 62.5548 267.039 62.5661 267.084 62.5659C267.135 62.5661 267.184 62.5515 267.227 62.5239C268.838 61.5329 270.689 61.002 272.58 60.9888C274.471 60.9755 276.33 61.4805 277.954 62.4489C277.996 62.4751 278.044 62.4889 278.094 62.4889C278.108 62.4861 278.122 62.4825 278.136 62.4779C278.149 62.4755 278.162 62.4722 278.174 62.4679C278.235 62.4514 278.288 62.4134 278.323 62.3609C278.359 62.3003 278.371 62.2278 278.354 62.1589C278.338 62.0901 278.295 62.0305 278.235 61.9929" fill="#ED988A"/>
<path d="M264.549 72.5329C263.541 72.5178 262.559 72.2111 261.722 71.6499C261.694 71.6189 261.673 71.5819 261.661 71.5417C261.65 71.5015 261.647 71.4592 261.654 71.4179C261.778 70.6569 261.928 69.9029 262.086 69.1079C262.362 67.7199 262.674 66.1459 262.913 64.2019C263.051 63.668 262.986 63.1021 262.731 62.6132C262.476 62.1242 262.049 61.7469 261.533 61.5539C261.555 61.4109 261.588 61.2369 261.446 61.2099C257.755 60.5239 255.663 61.3549 254.663 62.1419C254.646 62.1549 254.646 62.1779 254.633 62.1959C254.61 62.2201 254.593 62.2494 254.584 62.2814C254.574 62.3134 254.573 62.3472 254.579 62.3799C254.579 62.4019 254.568 62.4219 254.579 62.4429C254.59 62.4639 254.602 62.4629 254.61 62.4769C254.618 62.4909 254.61 62.5059 254.621 62.5179C254.632 62.5299 254.653 62.5289 254.668 62.5399C254.701 62.5704 254.743 62.5905 254.787 62.5979C254.804 62.5979 254.814 62.6199 254.832 62.6199C254.85 62.6199 254.865 62.6059 254.882 62.6029C254.899 62.5999 254.909 62.6099 254.923 62.6029C256.946 61.896 259.111 61.6945 261.229 62.0159C262.514 62.2389 262.439 63.6949 262.386 64.1359C262.15 66.0589 261.839 67.6219 261.565 69.0019C261.407 69.8019 261.256 70.5619 261.129 71.3289C261.111 71.4426 261.118 71.5588 261.148 71.6699C261.178 71.781 261.231 71.8845 261.303 71.9739C261.903 72.7579 263.903 73.0069 264.503 73.0649C264.512 73.0657 264.52 73.0657 264.529 73.0649C264.598 73.0657 264.665 73.0396 264.716 72.992C264.766 72.9445 264.796 72.8792 264.8 72.8099C264.803 72.7407 264.779 72.6728 264.734 72.6206C264.688 72.5684 264.624 72.5359 264.555 72.5299" fill="#ED988A"/>
<path d="M194.247 94.5219C188.686 94.0676 183.12 95.3308 178.299 98.1409C173.479 100.951 169.637 105.173 167.293 110.236C164.948 115.299 164.214 120.959 165.189 126.453C166.164 131.947 168.802 137.009 172.745 140.956C176.689 144.903 181.749 147.544 187.242 148.524C192.734 149.504 198.396 148.774 203.461 146.434C208.526 144.094 212.75 140.255 215.565 135.438C218.379 130.62 219.647 125.054 219.197 119.493C218.674 113.048 215.878 106.999 211.308 102.425C206.738 97.8515 200.691 95.0504 194.247 94.5219ZM182.037 131.706V111.67C182.037 111.137 182.177 110.614 182.443 110.152C182.71 109.691 183.093 109.308 183.554 109.041C184.015 108.775 184.539 108.635 185.072 108.635C185.604 108.635 186.128 108.775 186.589 109.042L203.933 119.057C204.394 119.323 204.777 119.706 205.043 120.167C205.309 120.628 205.449 121.152 205.449 121.684C205.449 122.216 205.309 122.739 205.043 123.2C204.777 123.662 204.394 124.045 203.933 124.311L186.589 134.332C186.128 134.598 185.605 134.739 185.072 134.739C184.539 134.739 184.016 134.599 183.554 134.333C183.093 134.067 182.71 133.683 182.444 133.222C182.177 132.761 182.037 132.238 182.037 131.705" fill="white"/>
<path d="M194.734 88.5969C187.961 88.044 181.181 89.5829 175.311 93.0058C169.44 96.4286 164.761 101.571 161.906 107.737C159.05 113.904 158.156 120.798 159.344 127.489C160.532 134.18 163.744 140.346 168.547 145.153C173.351 149.96 179.513 153.178 186.203 154.371C192.893 155.564 199.789 154.676 205.958 151.826C212.127 148.975 217.272 144.301 220.7 138.433C224.128 132.565 225.672 125.786 225.125 119.013C224.487 111.163 221.082 103.795 215.515 98.2241C209.948 92.6529 202.583 89.2409 194.734 88.5969Z" stroke="white" stroke-width="2" stroke-miterlimit="10"/>
</g>
</svg>
