<svg width="200" height="56" viewBox="0 0 200 56" fill="none" xmlns="http://www.w3.org/2000/svg">
<path d="M34.283 31.774C33.1691 31.774 32.1008 32.2165 31.3132 33.0042C30.5255 33.7918 30.083 34.8601 30.083 35.974V36.7811C30.0556 39.6323 28.9037 42.3574 26.8778 44.3639C24.852 46.3704 22.1159 47.496 19.2645 47.496C16.4132 47.496 13.6771 46.3704 11.6512 44.3639C9.62531 42.3574 8.47343 39.6323 8.44601 36.7811V22.302C8.44601 21.1881 8.00352 20.1199 7.21587 19.3322C6.42821 18.5445 5.35993 18.1021 4.24602 18.1021C3.13211 18.1021 2.06382 18.5445 1.27617 19.3322C0.488516 20.1199 0.0460205 21.1881 0.0460205 22.302V36.7811C0.0460205 41.8785 2.07097 46.7672 5.67542 50.3716C9.27987 53.9761 14.1686 56.0011 19.266 56.0011C24.3635 56.0011 29.2522 53.9761 32.8566 50.3716C36.4611 46.7672 38.486 41.8785 38.486 36.7811V35.974C38.486 34.8601 38.0435 33.7918 37.2559 33.0042C36.4682 32.2165 35.3999 31.774 34.286 31.774H34.283Z" fill="#60269E"/>
<path d="M34.284 1.74487H20.6C19.4861 1.74487 18.4178 2.18737 17.6302 2.97503C16.8425 3.76268 16.4 4.83096 16.4 5.94487C16.4 7.05878 16.8425 8.12707 17.6302 8.91472C18.4178 9.70238 19.4861 10.1449 20.6 10.1449H30.083V19.6279C30.083 20.7418 30.5255 21.8101 31.3132 22.5977C32.1008 23.3854 33.1691 23.8279 34.283 23.8279C35.3969 23.8279 36.4652 23.3854 37.2529 22.5977C38.0405 21.8101 38.483 20.7418 38.483 19.6279V5.94487C38.483 4.83096 38.0405 3.76268 37.2529 2.97503C36.4652 2.18737 35.3969 1.74487 34.283 1.74487H34.284Z" fill="#60269E"/>
<path d="M4.24503 10.144C6.56297 10.144 8.44203 8.26494 8.44203 5.947C8.44203 3.62906 6.56297 1.75 4.24503 1.75C1.9271 1.75 0.0480347 3.62906 0.0480347 5.947C0.0480347 8.26494 1.9271 10.144 4.24503 10.144Z" fill="#FFD600"/>
<path d="M65.337 24.085C65.3341 25.0773 65.1476 26.0605 64.787 26.985C64.4126 27.9522 63.8267 28.8235 63.072 29.535C62.1989 30.3373 61.1727 30.955 60.055 31.351C58.6152 31.8516 57.097 32.0887 55.573 32.051C54.246 32.0596 52.9204 31.965 51.608 31.768C50.5255 31.6065 49.456 31.3669 48.408 31.051C48.232 31.0081 48.067 30.9284 47.924 30.817C47.8554 30.7679 47.7998 30.7028 47.762 30.6273C47.7242 30.5519 47.7054 30.4684 47.707 30.384V25.42C47.7066 25.2423 47.7584 25.0685 47.856 24.92C47.9195 24.8392 48.0064 24.7798 48.1048 24.7501C48.2032 24.7204 48.3084 24.7218 48.406 24.754C48.7607 24.7987 49.2274 24.8484 49.806 24.903C50.3847 24.9577 51.0124 25.019 51.689 25.087C52.367 25.153 53.043 25.21 53.722 25.253C54.401 25.296 55.016 25.319 55.571 25.319C55.7457 25.3409 55.9229 25.3271 56.092 25.2785C56.2612 25.2298 56.4187 25.1473 56.555 25.036C56.7284 24.8261 56.8172 24.559 56.804 24.287C56.8036 24.1087 56.7382 23.9366 56.62 23.803C56.399 23.5836 56.1466 23.3983 55.871 23.253L50.871 20.353C50.1495 19.9463 49.4879 19.4415 48.905 18.853C48.419 18.355 48.0092 17.7879 47.689 17.17C47.3924 16.592 47.1793 15.9749 47.056 15.337C46.9325 14.6947 46.8709 14.0421 46.872 13.388C46.867 12.5044 47.0076 11.626 47.288 10.788C47.5698 9.95881 48.0638 9.21788 48.721 8.63902C49.5227 7.96043 50.4599 7.46064 51.47 7.17302C52.8781 6.77255 54.3386 6.58713 55.802 6.62302C56.5127 6.62302 57.2684 6.65102 58.069 6.70702C58.8697 6.76302 59.642 6.83535 60.386 6.92402C61.13 7.01335 61.8077 7.11335 62.419 7.22402C62.9186 7.30993 63.4136 7.42108 63.902 7.55702C64.0734 7.5985 64.2332 7.67853 64.369 7.79102C64.4336 7.84301 64.4853 7.90925 64.52 7.98455C64.5547 8.05984 64.5715 8.14215 64.569 8.22502V13.19C64.5736 13.3693 64.5337 13.5469 64.453 13.707C64.375 13.851 64.191 13.907 63.903 13.856C63.458 13.811 62.903 13.762 62.237 13.707C61.571 13.652 60.865 13.596 60.121 13.54C59.377 13.484 58.628 13.44 57.872 13.407C57.116 13.374 56.427 13.357 55.806 13.357C55.7052 13.3429 55.6024 13.3505 55.5047 13.3791C55.4069 13.4077 55.3164 13.4568 55.239 13.523C55.1534 13.6259 55.106 13.7552 55.105 13.889C55.1071 13.9712 55.126 14.052 55.1603 14.1266C55.1947 14.2012 55.244 14.268 55.305 14.323C55.6232 14.574 55.9699 14.7865 56.338 14.956L61.071 17.456C62.3939 18.0901 63.522 19.0683 64.337 20.288C65.0196 21.436 65.3661 22.7527 65.337 24.088V24.085Z" fill="#60269E"/>
<path d="M83.465 31.135C83.2914 31.2573 83.1002 31.3527 82.898 31.418C82.2829 31.6161 81.6534 31.7662 81.015 31.867C80.1936 31.9971 79.3627 32.0587 78.531 32.051C74.909 32.051 72.2207 31.0736 70.466 29.119C68.7113 27.1643 67.834 24.353 67.834 20.685V17.985C67.834 14.2976 68.7116 11.4816 70.467 9.53695C72.2223 7.59228 74.9106 6.62028 78.532 6.62095C79.3798 6.61539 80.2268 6.67692 81.065 6.80496C81.6891 6.89512 82.3029 7.04549 82.898 7.25395C83.0997 7.32031 83.2907 7.41564 83.465 7.53695C83.5171 7.59852 83.5559 7.67019 83.5789 7.74745C83.602 7.82472 83.6088 7.90592 83.599 7.98596V13.255C83.599 13.722 83.377 13.921 82.933 13.855C82.577 13.8103 82.055 13.749 81.367 13.671C80.6697 13.5929 79.9687 13.5542 79.267 13.555C78.7905 13.5511 78.3151 13.6018 77.85 13.706C77.4274 13.7999 77.0436 14.0208 76.75 14.339C76.4142 14.7276 76.1744 15.1897 76.05 15.688C75.8634 16.4399 75.7793 17.2135 75.8 17.988V20.688C75.778 21.4898 75.8621 22.2911 76.05 23.071C76.1673 23.5704 76.4147 24.03 76.767 24.403C77.0699 24.6991 77.4519 24.9016 77.867 24.986C78.3389 25.0791 78.819 25.1237 79.3 25.119C79.8734 25.1207 80.4465 25.093 81.017 25.036C81.561 24.9813 82.1997 24.909 82.933 24.819C83.0187 24.7911 83.1095 24.7825 83.1989 24.794C83.2883 24.8054 83.3741 24.8364 83.45 24.885C83.5091 24.9594 83.5527 25.0449 83.5782 25.1364C83.6038 25.228 83.6109 25.3237 83.599 25.418V30.685C83.609 30.765 83.6022 30.8462 83.5792 30.9235C83.5561 31.0008 83.5173 31.0735 83.465 31.135Z" fill="#60269E"/>
<path d="M106.793 20.7889C106.846 22.6122 106.546 24.4285 105.91 26.1379C105.4 27.4564 104.596 28.6413 103.56 29.6029C102.589 30.4777 101.433 31.1215 100.178 31.4859C97.5761 32.2416 94.8129 32.2416 92.211 31.4859C90.9563 31.121 89.8001 30.4773 88.829 29.6029C87.7931 28.6411 86.9895 27.4562 86.479 26.1379C85.8426 24.4285 85.5428 22.6122 85.596 20.7889V17.8889C85.5428 16.0657 85.8426 14.2493 86.479 12.5399C86.9895 11.2214 87.7931 10.0362 88.829 9.07393C89.8004 8.20063 90.9565 7.55799 92.211 7.19394C94.8129 6.43828 97.5761 6.43828 100.178 7.19394C101.433 7.55916 102.589 8.20281 103.56 9.07694C104.596 10.0392 105.4 11.2244 105.91 12.5429C106.547 14.2523 106.846 16.0687 106.793 17.8919V20.7889ZM98.829 17.8889C98.9213 16.7324 98.7089 15.5719 98.213 14.5229C97.971 14.221 97.6642 13.9773 97.3154 13.8098C96.9665 13.6423 96.5845 13.5554 96.1975 13.5554C95.8106 13.5554 95.4285 13.6423 95.0797 13.8098C94.7308 13.9773 94.424 14.221 94.182 14.5229C93.6856 15.5717 93.4731 16.7324 93.566 17.8889V20.7889C93.474 21.9455 93.6864 23.1059 94.182 24.1549C94.4243 24.4566 94.7311 24.7 95.0799 24.8672C95.4287 25.0345 95.8107 25.1213 96.1975 25.1213C96.5844 25.1213 96.9663 25.0345 97.3151 24.8672C97.6639 24.7 97.9708 24.4566 98.213 24.1549C98.7087 23.106 98.9211 21.9455 98.829 20.7889V17.8889Z" fill="#60269E"/>
<path d="M124.422 31.453C124.286 31.5655 124.126 31.6455 123.955 31.687C123.288 31.797 122.5 31.886 121.589 31.954C120.678 32.022 119.79 32.0554 118.923 32.054C117.863 32.0527 116.805 31.9694 115.758 31.805C114.731 31.6533 113.748 31.2837 112.875 30.721C111.984 30.1255 111.261 29.3108 110.775 28.355C110.175 27.0745 109.895 25.6676 109.959 24.255V7.62403C109.959 7.53515 109.979 7.44741 110.016 7.36681C110.054 7.2862 110.108 7.21465 110.176 7.15703C110.304 7.02983 110.477 6.95803 110.658 6.95703H117.158C117.334 6.96061 117.501 7.03192 117.625 7.15605C117.749 7.28018 117.82 7.44751 117.824 7.62302V24.253C117.787 24.5561 117.871 24.8616 118.058 25.103C118.312 25.2756 118.619 25.3524 118.925 25.32H123.957C124.133 25.3246 124.3 25.3965 124.424 25.5208C124.548 25.6451 124.62 25.8124 124.624 25.988V31.019C124.626 31.1019 124.61 31.1842 124.575 31.2595C124.54 31.3348 124.489 31.401 124.424 31.453H124.422Z" fill="#60269E"/>
<path d="M141.218 31.7189C141.133 31.7203 141.049 31.7031 140.971 31.6686C140.894 31.634 140.825 31.583 140.769 31.5189C140.647 31.3871 140.561 31.2263 140.519 31.0519L139.919 27.3199H134.85L134.25 31.0519C134.208 31.2263 134.122 31.3871 134 31.5189C133.944 31.5829 133.875 31.6339 133.798 31.6685C133.72 31.703 133.636 31.7202 133.551 31.7189H126.619C126.533 31.7299 126.446 31.7171 126.367 31.6818C126.287 31.6466 126.219 31.5902 126.17 31.5189C126.131 31.4485 126.106 31.3708 126.097 31.2905C126.089 31.2103 126.096 31.1291 126.12 31.0519L130.086 10.9229C130.205 10.1699 130.489 9.45267 130.919 8.82293C131.318 8.26837 131.843 7.81718 132.452 7.50694C133.133 7.1664 133.864 6.93587 134.618 6.82393C136.452 6.55674 138.316 6.55674 140.15 6.82393C140.898 6.93409 141.624 7.16475 142.299 7.50694C142.9 7.82085 143.42 8.27161 143.815 8.82293C144.248 9.45468 144.543 10.1701 144.682 10.9229L148.647 31.0519C148.671 31.1291 148.678 31.2103 148.67 31.2905C148.661 31.3708 148.636 31.4485 148.597 31.5189C148.548 31.5901 148.48 31.6464 148.4 31.6817C148.321 31.7169 148.234 31.7298 148.148 31.7189H141.216H141.218ZM137.685 13.4549C137.67 13.347 137.641 13.2412 137.601 13.1399C137.577 13.1043 137.545 13.075 137.507 13.0548C137.469 13.0345 137.427 13.024 137.384 13.024C137.341 13.024 137.299 13.0345 137.261 13.0548C137.223 13.075 137.191 13.1043 137.167 13.1399C137.127 13.2413 137.099 13.347 137.083 13.4549L135.85 21.1879H138.917L137.685 13.4549Z" fill="#60269E"/>
<path d="M169.128 30.92C168.949 31.0245 168.751 31.0924 168.545 31.12C167.522 31.3433 166.334 31.5543 164.979 31.753C163.522 31.9604 162.051 32.0606 160.579 32.053C159.821 32.0498 159.064 31.9943 158.314 31.887C157.503 31.773 156.708 31.5604 155.948 31.254C155.149 30.9318 154.394 30.512 153.698 30.004C152.94 29.4443 152.29 28.7501 151.782 27.956C151.186 27.0208 150.742 25.9972 150.466 24.923C150.121 23.5619 149.958 22.161 149.982 20.757V17.925C149.899 15.9078 150.268 13.8976 151.064 12.042C151.634 10.7676 152.499 9.64756 153.589 8.77512C154.679 7.90267 155.961 7.303 157.329 7.026C158.507 6.7702 159.707 6.63616 160.912 6.626C162.458 6.60584 164.003 6.72297 165.528 6.97601C166.545 7.14961 167.552 7.37794 168.544 7.66001C168.761 7.71199 168.966 7.80834 169.144 7.943C169.225 8.07779 169.261 8.23544 169.244 8.392V13.292C169.258 13.4702 169.224 13.649 169.144 13.809C169.078 13.909 168.92 13.937 168.677 13.892C168.432 13.87 168.082 13.8367 167.626 13.792C167.17 13.7473 166.67 13.7087 166.126 13.676C165.581 13.6427 165.014 13.615 164.426 13.593C163.838 13.571 163.288 13.56 162.776 13.56C162.012 13.5486 161.248 13.6041 160.493 13.726C159.95 13.8075 159.438 14.0318 159.01 14.376C158.613 14.7302 158.329 15.1934 158.193 15.708C158.008 16.4316 157.924 17.1773 157.943 17.924V20.824C157.916 21.6818 158.006 22.5393 158.21 23.373C158.328 23.8674 158.555 24.3288 158.876 24.723C159.099 24.9874 159.404 25.1694 159.743 25.24C160.018 25.2925 160.296 25.3206 160.576 25.324C160.732 25.324 160.914 25.319 161.126 25.307C161.312 25.3005 161.496 25.2727 161.675 25.224V19.224C161.679 19.0484 161.751 18.8811 161.875 18.7568C161.999 18.6324 162.166 18.5606 162.342 18.556H168.574C168.749 18.5608 168.916 18.6328 169.04 18.7571C169.164 18.8814 169.236 19.0485 169.24 19.224V30.388C169.24 30.676 169.202 30.855 169.124 30.921L169.128 30.92Z" fill="#60269E"/>
<path d="M188.872 31.469C188.744 31.5895 188.58 31.6656 188.405 31.686C187.716 31.774 186.794 31.857 185.639 31.935C184.484 32.013 183.174 32.0517 181.707 32.051C180.647 32.0498 179.589 31.9665 178.542 31.802C177.515 31.6503 176.532 31.2807 175.659 30.718C174.768 30.1225 174.045 29.3077 173.559 28.352C172.959 27.0716 172.679 25.6647 172.742 24.252V14.421C172.679 13.0084 172.959 11.6014 173.559 10.321C174.045 9.36559 174.768 8.55092 175.659 7.95505C176.532 7.39307 177.515 7.02417 178.542 6.87305C179.589 6.70826 180.647 6.62467 181.707 6.62305C183.174 6.62305 184.484 6.66171 185.639 6.73904C186.794 6.81638 187.716 6.89971 188.405 6.98904C188.58 7.01037 188.743 7.08632 188.872 7.20605C188.936 7.2622 188.987 7.33163 189.022 7.40952C189.056 7.4874 189.073 7.57186 189.072 7.65704V12.694C189.068 12.8697 188.996 13.037 188.872 13.1613C188.748 13.2856 188.581 13.3575 188.405 13.362H181.705C181.399 13.3296 181.092 13.4065 180.838 13.579C180.651 13.8205 180.567 14.126 180.604 14.429V16.229H188.404C188.58 16.2336 188.747 16.3055 188.871 16.4298C188.995 16.5541 189.067 16.7214 189.071 16.897V21.597C189.067 21.7727 188.995 21.94 188.871 22.0643C188.747 22.1886 188.58 22.2605 188.404 22.265H180.604V24.265C180.567 24.5681 180.651 24.8735 180.838 25.115C181.092 25.2876 181.399 25.3645 181.705 25.332H188.405C188.581 25.3366 188.748 25.4085 188.872 25.5328C188.996 25.6571 189.068 25.8244 189.072 26V31.031C189.073 31.1159 189.056 31.2001 189.022 31.2777C188.987 31.3553 188.936 31.4243 188.872 31.48V31.469Z" fill="#60269E"/>
<path d="M101.32 49.8291C101.32 49.9811 101.24 50.0551 101.079 50.0551H99.101C99.0672 50.0566 99.0334 50.0512 99.0017 50.0392C98.9701 50.0271 98.9413 50.0087 98.917 49.9851C98.867 49.9344 98.8323 49.8706 98.817 49.8011L98.309 47.4841H95.409L94.901 49.8011C94.8852 49.8705 94.8506 49.9341 94.801 49.9851C94.7766 50.0085 94.7477 50.0268 94.7161 50.0388C94.6845 50.0508 94.6508 50.0564 94.617 50.0551H92.645C92.485 50.0551 92.405 49.9801 92.405 49.8291C92.4047 49.8194 92.4067 49.8098 92.411 49.8011C92.4171 49.788 92.4198 49.7736 92.419 49.7591L94.519 41.0001C94.5843 40.7048 94.7095 40.426 94.887 40.1811C95.0352 39.9839 95.2259 39.8226 95.445 39.7091C95.6601 39.6 95.8914 39.526 96.13 39.4901C96.3732 39.4527 96.6189 39.4336 96.865 39.4331C97.1085 39.4329 97.3516 39.452 97.592 39.4901C97.8285 39.5255 98.0575 39.5995 98.27 39.7091C98.4888 39.8229 98.6795 39.9842 98.828 40.1811C99.0055 40.426 99.1308 40.7048 99.196 41.0001L101.296 49.7591C101.296 49.7735 101.298 49.7879 101.304 49.8011C101.312 49.8089 101.317 49.8185 101.32 49.8291ZM97.053 41.6491C97.0411 41.593 97.0223 41.5386 96.997 41.4871C96.978 41.4541 96.936 41.4391 96.871 41.4391C96.771 41.4391 96.701 41.5091 96.671 41.6511L95.81 45.5511H97.916L97.055 41.6511L97.053 41.6491Z" fill="#60269E"/>
<path d="M115.477 47.0181C115.497 47.5558 115.374 48.0893 115.123 48.5651C114.894 48.967 114.565 49.3029 114.168 49.54C113.733 49.7933 113.254 49.9629 112.756 50.04C112.184 50.1365 111.604 50.1833 111.024 50.18C110.789 50.18 110.548 50.175 110.304 50.166C110.06 50.157 109.82 50.146 109.589 50.132C109.358 50.118 109.144 50.101 108.946 50.082C108.748 50.063 108.58 50.04 108.438 50.012C108.216 49.9925 108.006 49.9032 107.838 49.757C107.7 49.5647 107.637 49.3284 107.662 49.093V40.503C107.637 40.268 107.698 40.0319 107.833 39.838C107.994 39.6928 108.197 39.6036 108.413 39.584C108.535 39.565 108.693 39.547 108.885 39.528C109.077 39.509 109.291 39.492 109.522 39.478C109.753 39.464 109.991 39.452 110.234 39.442C110.477 39.432 110.715 39.428 110.941 39.428C111.552 39.4234 112.163 39.473 112.765 39.576C113.256 39.6568 113.73 39.8219 114.165 40.064C114.544 40.2771 114.858 40.5879 115.076 40.964C115.307 41.3984 115.419 41.8856 115.402 42.377V42.632C115.409 43.0663 115.302 43.4948 115.092 43.875C114.891 44.2352 114.586 44.5258 114.216 44.708C114.604 44.8994 114.929 45.1982 115.152 45.569C115.374 45.9397 115.486 46.3667 115.473 46.799V47.011L115.477 47.0181ZM113.077 42.539C113.088 42.3713 113.054 42.2037 112.978 42.0535C112.903 41.9034 112.788 41.7761 112.647 41.685C112.173 41.4624 111.65 41.3673 111.128 41.409H110.583C110.476 41.409 110.372 41.409 110.273 41.415C110.174 41.421 110.102 41.4231 110.055 41.4231V43.8671H111.636C111.873 43.8732 112.109 43.8425 112.336 43.776C112.497 43.7271 112.646 43.645 112.774 43.5351C112.881 43.4391 112.962 43.3172 113.008 43.181C113.056 43.0428 113.08 42.8974 113.08 42.751V42.539H113.077ZM113.133 46.806C113.139 46.4815 113.023 46.1665 112.808 45.9231C112.65 45.7813 112.464 45.6746 112.262 45.6102C112.059 45.5457 111.846 45.5248 111.635 45.549H110.054V48.191H110.3C110.409 48.191 110.522 48.191 110.638 48.197C110.754 48.203 110.869 48.205 110.979 48.205H111.213C111.735 48.2541 112.259 48.1406 112.713 47.8801C112.851 47.7716 112.961 47.6314 113.034 47.4715C113.106 47.3115 113.139 47.1365 113.13 46.961V46.805L113.133 46.806Z" fill="#60269E"/>
<path d="M124.529 46.3841C124.529 46.6101 124.429 46.7231 124.229 46.7231H119.729V46.7501C119.728 46.9437 119.752 47.1365 119.8 47.3241C119.843 47.5029 119.924 47.6702 120.039 47.8141C120.159 47.9598 120.311 48.0753 120.484 48.1511C120.706 48.2424 120.944 48.2854 121.184 48.2771C121.41 48.2771 121.65 48.2721 121.904 48.2631L122.66 48.2351C122.91 48.2261 123.144 48.2131 123.36 48.1991C123.576 48.1851 123.754 48.1681 123.896 48.1511H123.939C124.118 48.1511 124.206 48.2261 124.206 48.3771V49.4591C124.212 49.5477 124.192 49.6361 124.15 49.7141C124.089 49.7857 124.004 49.8318 123.911 49.8431C123.473 49.9539 123.03 50.0391 122.582 50.0981C122.062 50.1601 121.539 50.1885 121.015 50.1831C120.584 50.182 120.156 50.12 119.743 49.9991C119.324 49.8781 118.934 49.671 118.599 49.3911C118.242 49.0855 117.962 48.701 117.78 48.2681C117.558 47.7235 117.452 47.1388 117.469 46.5511V45.5621C117.462 45.0392 117.544 44.5189 117.71 44.0231C117.855 43.5858 118.094 43.1855 118.41 42.8501C118.725 42.5229 119.109 42.2696 119.534 42.1081C120.017 41.9267 120.529 41.8378 121.045 41.8461C121.565 41.8368 122.082 41.9327 122.564 42.1281C122.982 42.3025 123.356 42.568 123.658 42.9051C123.957 43.2457 124.182 43.6453 124.317 44.0781C124.466 44.5582 124.539 45.0584 124.535 45.5611V46.3801L124.529 46.3841ZM122.298 45.2531C122.331 44.8317 122.21 44.4127 121.957 44.0741C121.84 43.9438 121.696 43.8414 121.535 43.7743C121.373 43.7071 121.199 43.677 121.024 43.6861C120.847 43.6786 120.67 43.7106 120.506 43.7798C120.342 43.8489 120.196 43.9536 120.078 44.0861C119.82 44.4197 119.693 44.8371 119.724 45.2581V45.3141H122.296V45.2581L122.298 45.2531Z" fill="#60269E"/>
<path d="M130.92 50.071C130.704 50.1077 130.515 50.1357 130.354 50.155C130.171 50.1751 129.987 50.1845 129.803 50.183C129.462 50.1865 129.12 50.156 128.785 50.092C128.511 50.0409 128.257 49.916 128.049 49.731C127.838 49.5266 127.683 49.271 127.6 48.989C127.486 48.5923 127.434 48.1805 127.445 47.768V43.668L126.316 43.484C126.241 43.4665 126.171 43.4323 126.111 43.384C126.082 43.3616 126.059 43.3327 126.043 43.2998C126.027 43.2668 126.019 43.2306 126.019 43.194V42.261C126.023 42.1827 126.056 42.1086 126.111 42.0532C126.167 41.9977 126.241 41.9649 126.319 41.961H127.448V40.804C127.447 40.7689 127.454 40.7341 127.469 40.7022C127.483 40.6703 127.505 40.6422 127.532 40.62C127.59 40.5712 127.658 40.5369 127.732 40.52L129.445 40.22H129.486C129.553 40.2169 129.619 40.2398 129.669 40.284C129.693 40.3064 129.712 40.3338 129.724 40.3642C129.736 40.3946 129.742 40.4273 129.74 40.46V41.96H130.898C130.973 41.9621 131.044 41.9929 131.096 42.0459C131.149 42.099 131.179 42.1703 131.18 42.245V43.399C131.18 43.4363 131.173 43.4733 131.159 43.5077C131.144 43.5421 131.123 43.5731 131.096 43.599C131.071 43.6265 131.04 43.6484 131.005 43.6632C130.971 43.678 130.933 43.6855 130.896 43.685H129.738V47.796C129.723 47.9802 129.746 48.1655 129.807 48.34C129.853 48.419 129.986 48.46 130.207 48.46H130.899C131.099 48.46 131.199 48.54 131.199 48.699V49.791C131.199 49.949 131.108 50.042 130.93 50.071H130.92Z" fill="#60269E"/>
<path d="M137.573 50.071C137.357 50.108 137.173 50.136 137.008 50.155C136.825 50.1751 136.641 50.1845 136.457 50.183C136.116 50.1865 135.775 50.156 135.439 50.092C135.165 50.0411 134.91 49.9162 134.702 49.731C134.491 49.5266 134.336 49.271 134.253 48.989C134.14 48.5922 134.088 48.1805 134.099 47.768V43.668L132.969 43.484C132.894 43.4665 132.823 43.4323 132.763 43.384C132.734 43.3616 132.711 43.3327 132.695 43.2998C132.679 43.2668 132.671 43.2306 132.671 43.194V42.261C132.675 42.1826 132.708 42.1084 132.763 42.0529C132.818 41.9974 132.893 41.9647 132.971 41.961H134.101V40.804C134.1 40.7689 134.107 40.7341 134.122 40.7022C134.136 40.6703 134.158 40.6422 134.185 40.62C134.243 40.5712 134.311 40.5369 134.385 40.52L136.098 40.22H136.139C136.206 40.2169 136.272 40.2398 136.322 40.284C136.346 40.3064 136.365 40.3338 136.377 40.3642C136.389 40.3946 136.395 40.4273 136.393 40.46V41.96H137.551C137.626 41.9621 137.697 41.9929 137.749 42.0459C137.802 42.099 137.832 42.1703 137.833 42.245V43.399C137.833 43.4363 137.826 43.4733 137.812 43.5077C137.797 43.5421 137.776 43.5731 137.749 43.599C137.724 43.6266 137.693 43.6485 137.658 43.6633C137.624 43.6781 137.587 43.6855 137.549 43.685H136.391V47.796C136.376 47.9802 136.399 48.1655 136.46 48.34C136.506 48.419 136.639 48.46 136.86 48.46H137.552C137.752 48.46 137.852 48.54 137.852 48.699V49.791C137.852 49.949 137.762 50.042 137.583 50.071H137.573Z" fill="#60269E"/>
<path d="M146.699 46.3841C146.699 46.6101 146.599 46.7231 146.399 46.7231H141.894V46.7501C141.893 46.9437 141.917 47.1365 141.965 47.3241C142.008 47.5029 142.09 47.6702 142.204 47.8141C142.324 47.9598 142.476 48.0753 142.649 48.1511C142.871 48.2424 143.109 48.2854 143.349 48.2771C143.575 48.2771 143.815 48.2721 144.069 48.2631L144.825 48.2351C145.075 48.2261 145.309 48.2131 145.525 48.1991C145.741 48.1851 145.919 48.1681 146.061 48.1511H146.104C146.283 48.1511 146.371 48.2261 146.371 48.3771V49.4591C146.377 49.5477 146.357 49.6361 146.315 49.7141C146.254 49.7857 146.169 49.8317 146.076 49.8431C145.639 49.9539 145.195 50.039 144.748 50.0981C144.228 50.1601 143.705 50.1885 143.181 50.1831C142.751 50.182 142.322 50.12 141.909 49.9991C141.49 49.8781 141.1 49.671 140.765 49.3911C140.409 49.0855 140.128 48.701 139.946 48.2681C139.724 47.7236 139.618 47.1388 139.635 46.5511V45.5621C139.628 45.0392 139.71 44.5189 139.876 44.0231C140.022 43.5861 140.261 43.1859 140.576 42.8501C140.892 42.523 141.275 42.2696 141.7 42.1081C142.183 41.9267 142.695 41.8378 143.211 41.8461C143.731 41.8368 144.248 41.9327 144.73 42.1281C145.148 42.3026 145.522 42.568 145.824 42.9051C146.123 43.2458 146.347 43.6454 146.482 44.0781C146.631 44.5581 146.705 45.0584 146.701 45.5611V46.3801L146.699 46.3841ZM144.468 45.2531C144.501 44.8317 144.38 44.4127 144.127 44.0741C144.01 43.9439 143.866 43.8415 143.705 43.7744C143.543 43.7072 143.369 43.6771 143.194 43.6861C143.017 43.6786 142.84 43.7106 142.676 43.7798C142.512 43.8489 142.366 43.9536 142.248 44.0861C141.99 44.4198 141.864 44.8371 141.894 45.2581V45.3141H144.466V45.2581L144.468 45.2531Z" fill="#60269E"/>
<path d="M153.27 43.67C153.254 43.6968 153.231 43.7189 153.204 43.734C153.176 43.7491 153.145 43.7567 153.114 43.756H153.002C152.672 43.7535 152.344 43.8007 152.028 43.896C151.735 43.9864 151.452 44.1043 151.181 44.248V49.759C151.18 49.8355 151.15 49.9089 151.097 49.964C151.072 49.9927 151.042 50.0158 151.007 50.0315C150.972 50.0472 150.935 50.0552 150.897 50.055H149.188C149.149 50.0542 149.111 50.0457 149.076 50.0299C149.041 50.0141 149.009 49.9913 148.983 49.963C148.954 49.937 148.931 49.9052 148.915 49.8697C148.899 49.8342 148.891 49.7958 148.891 49.757V42.237C148.893 42.1625 148.923 42.0915 148.976 42.0389C149.028 41.9864 149.1 41.9563 149.174 41.955H150.855C150.93 41.957 151.001 41.9878 151.053 42.0409C151.106 42.094 151.136 42.1653 151.137 42.24V42.526C151.405 42.3059 151.71 42.1349 152.037 42.021C152.361 41.9044 152.703 41.8445 153.048 41.844C153.123 41.846 153.194 41.8768 153.246 41.9299C153.299 41.983 153.329 42.0543 153.33 42.129V43.481C153.33 43.5469 153.311 43.6113 153.274 43.666L153.27 43.67Z" fill="#60269E"/>
<path d="M171.045 39.7701L169.731 49.0251C169.725 49.1869 169.686 49.3458 169.616 49.4917C169.545 49.6375 169.445 49.767 169.322 49.8721C169.055 50.036 168.744 50.1148 168.431 50.0981H167.631C167.345 50.105 167.063 50.0316 166.817 49.8861C166.563 49.7098 166.389 49.4408 166.331 49.1371L165.214 44.9121C165.207 44.8753 165.19 44.841 165.166 44.8121C165.142 44.8007 165.115 44.7959 165.089 44.7981C165.064 44.7952 165.04 44.8001 165.018 44.8121C164.999 44.843 164.985 44.8768 164.977 44.9121L163.86 49.1371C163.801 49.4404 163.627 49.7091 163.374 49.8861C163.128 50.0309 162.847 50.1044 162.562 50.0981H161.755C161.442 50.1152 161.132 50.0363 160.865 49.8721C160.742 49.7672 160.641 49.6377 160.571 49.4919C160.5 49.346 160.461 49.187 160.455 49.0251L159.14 39.7701V39.7421C159.136 39.7134 159.14 39.6842 159.153 39.6579C159.165 39.6316 159.184 39.6095 159.209 39.5941C159.258 39.5709 159.311 39.5592 159.365 39.5601H161.286C161.419 39.5601 161.495 39.6494 161.512 39.8281L162.319 47.4001C162.328 47.5228 162.356 47.5841 162.403 47.5841C162.44 47.5841 162.472 47.5211 162.503 47.4001L163.522 43.5151C163.542 43.4057 163.583 43.3012 163.643 43.2078C163.703 43.1144 163.781 43.034 163.873 42.9711C164.034 42.8818 164.214 42.8357 164.398 42.8371H165.798C165.981 42.8359 166.16 42.8821 166.32 42.9711C166.412 43.034 166.491 43.1144 166.551 43.2078C166.612 43.3011 166.654 43.4056 166.674 43.5151L167.691 47.4001C167.719 47.5221 167.751 47.5841 167.791 47.5841C167.831 47.5841 167.866 47.5211 167.875 47.4001L168.682 39.8281C168.701 39.6494 168.777 39.5601 168.908 39.5601H170.829C170.883 39.5594 170.936 39.571 170.985 39.5941C171.032 39.6171 171.054 39.6671 171.054 39.7421V39.7701H171.045Z" fill="#60269E"/>
<path d="M178.8 49.773C178.801 49.8103 178.794 49.8474 178.779 49.8818C178.765 49.9163 178.743 49.9473 178.716 49.973C178.69 49.9997 178.659 50.0209 178.625 50.0353C178.59 50.0497 178.553 50.0571 178.516 50.057H176.935C176.861 50.0557 176.79 50.0256 176.737 49.973C176.684 49.9204 176.654 49.8495 176.652 49.775V49.549C176.386 49.7437 176.093 49.9005 175.784 50.015C175.432 50.1351 175.062 50.1927 174.69 50.185C174.386 50.1864 174.083 50.1461 173.79 50.065C173.508 49.9885 173.246 49.8521 173.022 49.665C172.784 49.4619 172.597 49.2052 172.477 48.916C172.33 48.5481 172.26 48.154 172.271 47.758V47.632C172.243 47.284 172.305 46.9346 172.449 46.6169C172.594 46.2991 172.817 46.0235 173.098 45.816C173.907 45.3726 174.827 45.1739 175.746 45.244H176.509V44.736C176.509 44.3313 176.415 44.0676 176.227 43.945C175.991 43.8105 175.721 43.7467 175.449 43.761C175.223 43.761 174.996 43.761 174.765 43.769C174.534 43.777 174.312 43.781 174.101 43.789C173.89 43.797 173.701 43.811 173.528 43.825L173.106 43.859H173.034C172.969 43.8617 172.905 43.8419 172.852 43.803C172.825 43.7777 172.805 43.7463 172.792 43.7116C172.78 43.6768 172.776 43.6396 172.78 43.603V42.458C172.779 42.3821 172.806 42.3085 172.856 42.2512C172.906 42.1938 172.975 42.1568 173.05 42.147C173.313 42.081 173.669 42.016 174.115 41.947C174.572 41.8798 175.033 41.8464 175.494 41.847C175.958 41.842 176.421 41.8965 176.872 42.009C177.251 42.101 177.605 42.2744 177.91 42.517C178.199 42.7558 178.425 43.0612 178.569 43.407C178.735 43.8272 178.815 44.2764 178.803 44.728V49.772L178.8 49.773ZM176.554 46.594H175.747C175.542 46.5898 175.338 46.6113 175.139 46.658C174.999 46.6904 174.868 46.7555 174.757 46.848C174.66 46.9348 174.591 47.0476 174.557 47.173C174.518 47.3204 174.499 47.4725 174.501 47.625V47.751C174.501 48.0523 174.574 48.2453 174.719 48.33C174.929 48.4272 175.159 48.4706 175.39 48.456C175.599 48.457 175.806 48.4264 176.005 48.365C176.192 48.3062 176.375 48.2326 176.55 48.145V46.59L176.554 46.594Z" fill="#60269E"/>
<path d="M188.082 42.215C188.083 42.2269 188.08 42.2389 188.074 42.249C188.067 42.2597 188.064 42.2724 188.066 42.285L185.693 50.607C185.593 50.9538 185.466 51.2919 185.311 51.618C185.179 51.8915 184.991 52.1344 184.76 52.331C184.505 52.5325 184.211 52.6793 183.897 52.762C183.472 52.8697 183.035 52.9195 182.597 52.91C182.463 52.91 182.319 52.904 182.159 52.89C181.999 52.876 181.837 52.859 181.678 52.84C181.519 52.821 181.368 52.798 181.227 52.77C181.112 52.7488 180.998 52.7208 180.886 52.686C180.815 52.6599 180.747 52.6292 180.68 52.594C180.651 52.5787 180.627 52.5553 180.61 52.5265C180.594 52.4978 180.586 52.465 180.588 52.432V51.288C180.587 51.2521 180.594 51.2165 180.609 51.1836C180.623 51.1508 180.645 51.1216 180.672 51.098C180.726 51.0472 180.798 51.0193 180.872 51.02H180.9C181.012 51.029 181.146 51.039 181.3 51.048C181.454 51.057 181.615 51.07 181.78 51.084C181.945 51.098 182.105 51.11 182.261 51.118C182.417 51.126 182.551 51.132 182.661 51.132C182.871 51.1443 183.079 51.0897 183.255 50.976C183.426 50.8231 183.544 50.6201 183.593 50.396L183.721 49.958H183.509C183.383 49.958 183.258 49.9459 183.135 49.922C183.009 49.8957 182.89 49.8403 182.789 49.76C182.657 49.6539 182.549 49.5218 182.471 49.372C182.349 49.1415 182.256 48.897 182.194 48.644L180.329 42.287C180.32 42.2545 180.315 42.2208 180.316 42.187C180.316 42.035 180.41 41.961 180.598 41.961H182.475C182.508 41.9592 182.542 41.9654 182.572 41.979C182.603 41.9925 182.63 42.0131 182.651 42.039C182.696 42.0947 182.727 42.1596 182.743 42.229L184.015 47.541C184.052 47.721 184.109 47.81 184.185 47.81H184.313L185.625 42.23C185.642 42.158 185.679 42.0922 185.732 42.04C185.757 42.0145 185.786 41.9945 185.819 41.981C185.852 41.9676 185.887 41.9611 185.922 41.962H187.802C187.872 41.9598 187.94 41.9849 187.992 42.032C188.018 42.055 188.038 42.0835 188.052 42.1152C188.066 42.147 188.072 42.1814 188.071 42.216L188.082 42.215Z" fill="#60269E"/>
<path d="M83.5991 47.66H48.815C48.6358 47.6749 48.4555 47.6525 48.2854 47.5942C48.1153 47.5359 47.9591 47.4429 47.8268 47.3212C47.6944 47.1994 47.5888 47.0515 47.5165 46.8868C47.4443 46.7222 47.407 46.5443 47.407 46.3645C47.407 46.1846 47.4443 46.0068 47.5165 45.8421C47.5888 45.6774 47.6944 45.5295 47.8268 45.4078C47.9591 45.286 48.1153 45.193 48.2854 45.1347C48.4555 45.0764 48.6358 45.054 48.815 45.069H83.5981C83.7773 45.054 83.9576 45.0764 84.1277 45.1347C84.2978 45.193 84.454 45.286 84.5863 45.4078C84.7186 45.5295 84.8243 45.6774 84.8965 45.8421C84.9688 46.0068 85.0061 46.1846 85.0061 46.3645C85.0061 46.5443 84.9688 46.7222 84.8965 46.8868C84.8243 47.0515 84.7186 47.1994 84.5863 47.3212C84.454 47.4429 84.2978 47.5359 84.1277 47.5942C83.9576 47.6525 83.7773 47.6749 83.5981 47.66H83.5991Z" fill="#60269E"/>
<path d="M193.583 0.75293V1.50893H191.804V6.76693H191.014V1.50893H189.244V0.75293H193.583Z" fill="#60269E"/>
<path d="M200.001 0.75293V6.76693H199.211V2.06693L197.243 5.34093H197.143L195.175 2.07593V6.76793H194.375V0.753929H195.275L197.191 3.93293L199.099 0.753929H199.999L200.001 0.75293Z" fill="#60269E"/>
</svg>
