<svg width="28" height="21" viewBox="0 0 28 21" fill="none" xmlns="http://www.w3.org/2000/svg">
<mask id="mask0_7_3186" style="mask-type:luminance" maskUnits="userSpaceOnUse" x="0" y="0" width="28" height="21">
<path d="M24.8951 0C24.4954 6.15257e-05 24.0998 0.0796702 23.7312 0.234187C23.3626 0.388703 23.0284 0.615038 22.7481 0.9L10.3401 13.495L5.49113 8.577C5.21166 8.2905 4.87768 8.06281 4.50887 7.90736C4.14006 7.7519 3.74387 7.67181 3.34363 7.67181C2.9434 7.67181 2.54721 7.7519 2.17839 7.90736C1.80958 8.06281 1.47561 8.2905 1.19613 8.577C0.626155 9.15949 0.306976 9.94204 0.306976 10.757C0.306976 11.572 0.626155 12.3545 1.19613 12.937L8.19113 20.037C8.47111 20.3235 8.80553 20.5512 9.17475 20.7066C9.54397 20.8621 9.94053 20.9422 10.3411 20.9422C10.7417 20.9422 11.1383 20.8621 11.5075 20.7066C11.8767 20.5512 12.2112 20.3235 12.4911 20.037L27.0431 5.262C27.6127 4.67973 27.9317 3.89756 27.9317 3.083C27.9317 2.26844 27.6127 1.48627 27.0431 0.904C26.7631 0.618194 26.4289 0.391051 26.0601 0.235838C25.6913 0.080624 25.2953 0.000450633 24.8951 0Z" fill="white"/>
</mask>
<g mask="url(#mask0_7_3186)">
<path d="M27.932 0H0.0109711V21.237H27.932V0Z" fill="url(#paint0_linear_7_3186)"/>
</g>
<defs>
<linearGradient id="paint0_linear_7_3186" x1="0.318102" y1="422.999" x2="2.02128" y2="422.999" gradientUnits="userSpaceOnUse">
<stop stop-color="#B0D235"/>
<stop offset="0.09" stop-color="#A3CD36"/>
<stop offset="0.252" stop-color="#83C238"/>
<stop offset="0.469" stop-color="#4FAF3D"/>
<stop offset="0.73" stop-color="#079643"/>
<stop offset="0.757" stop-color="#009444"/>
<stop offset="1" stop-color="#009444"/>
</linearGradient>
</defs>
</svg>
