<svg width="300" height="242" viewBox="0 0 300 242" fill="none" xmlns="http://www.w3.org/2000/svg">
<mask id="mask0_7_3798" style="mask-type:luminance" maskUnits="userSpaceOnUse" x="0" y="0" width="300" height="242">
<path d="M299.342 0H0.708984V241.459H299.342V0Z" fill="white"/>
</mask>
<g mask="url(#mask0_7_3798)">
<path d="M273.48 241.459H116.063C112.667 241.459 109.304 240.79 106.166 239.49C103.029 238.191 100.178 236.286 97.7762 233.884C95.3747 231.483 93.4698 228.632 92.1703 225.494C90.8707 222.356 90.2019 218.993 90.202 215.597V59.515C90.202 52.6562 92.9266 46.0782 97.7764 41.2282C102.626 36.3781 109.204 33.6533 116.063 33.653H273.48C280.339 33.653 286.917 36.3778 291.767 41.2278C296.617 46.0779 299.342 52.656 299.342 59.515V215.597C299.342 222.456 296.617 229.034 291.767 233.884C286.917 238.734 280.339 241.459 273.48 241.459Z" fill="#BAB9B9"/>
<mask id="mask1_7_3798" style="mask-type:luminance" maskUnits="userSpaceOnUse" x="90" y="33" width="204" height="205">
<path d="M293.787 33.653H90.147V237.293H293.787V33.653Z" fill="white"/>
</mask>
<g mask="url(#mask1_7_3798)">
<path d="M267.926 237.293H116.009C112.613 237.293 109.25 236.624 106.112 235.324C102.975 234.025 100.124 232.12 97.7221 229.718C95.3207 227.317 93.4158 224.466 92.1163 221.328C90.8167 218.19 90.1478 214.827 90.148 211.431V59.515C90.1478 56.1188 90.8167 52.7558 92.1163 49.6181C93.4158 46.4804 95.3207 43.6294 97.7221 41.2279C100.124 38.8264 102.975 36.9214 106.112 35.6217C109.25 34.322 112.613 33.653 116.009 33.653H267.926C274.785 33.653 281.363 36.3778 286.213 41.2278C291.063 46.0779 293.788 52.656 293.788 59.515V211.431C293.788 218.29 291.063 224.868 286.213 229.718C281.363 234.568 274.785 237.293 267.926 237.293Z" fill="#B7E2F9"/>
</g>
<mask id="mask2_7_3798" style="mask-type:luminance" maskUnits="userSpaceOnUse" x="211" y="49" width="15" height="15">
<path d="M225.476 49.66H211.248V63.888H225.476V49.66Z" fill="white"/>
</mask>
<g mask="url(#mask2_7_3798)">
<path d="M225.481 56.774C225.481 58.181 225.064 59.5564 224.282 60.7263C223.5 61.8962 222.389 62.808 221.089 63.3465C219.789 63.8849 218.359 64.0258 216.979 63.7513C215.599 63.4768 214.332 62.7992 213.337 61.8043C212.342 60.8094 211.664 59.5418 211.39 58.1618C211.115 56.7819 211.256 55.3515 211.795 54.0516C212.333 52.7516 213.245 51.6406 214.415 50.8589C215.585 50.0772 216.96 49.66 218.367 49.66C220.254 49.66 222.063 50.4095 223.397 51.7436C224.731 53.0777 225.481 54.8872 225.481 56.774Z" fill="#BDA6D0"/>
</g>
<mask id="mask3_7_3798" style="mask-type:luminance" maskUnits="userSpaceOnUse" x="236" y="49" width="15" height="15">
<path d="M250.376 49.66H236.147V63.888H250.376V49.66Z" fill="white"/>
</mask>
<g mask="url(#mask3_7_3798)">
<path d="M250.376 56.774C250.376 58.181 249.959 59.5564 249.177 60.7263C248.395 61.8962 247.284 62.808 245.984 63.3465C244.684 63.8849 243.254 64.0258 241.874 63.7513C240.494 63.4768 239.227 62.7992 238.232 61.8043C237.237 60.8094 236.559 59.5418 236.285 58.1618C236.01 56.7819 236.151 55.3515 236.69 54.0516C237.228 52.7516 238.14 51.6406 239.31 50.8589C240.48 50.0772 241.855 49.66 243.262 49.66C245.149 49.66 246.958 50.4095 248.292 51.7436C249.626 53.0777 250.376 54.8872 250.376 56.774Z" fill="#ED988A"/>
</g>
<mask id="mask4_7_3798" style="mask-type:luminance" maskUnits="userSpaceOnUse" x="261" y="49" width="15" height="15">
<path d="M275.275 49.66H261.047V63.888H275.275V49.66Z" fill="white"/>
</mask>
<g mask="url(#mask4_7_3798)">
<path d="M275.275 56.774C275.275 58.181 274.858 59.5564 274.076 60.7263C273.294 61.8962 272.183 62.808 270.883 63.3465C269.583 63.8849 268.153 64.0258 266.773 63.7513C265.393 63.4768 264.126 62.7992 263.131 61.8043C262.136 60.8094 261.458 59.5418 261.184 58.1618C260.909 56.7819 261.05 55.3515 261.589 54.0516C262.127 52.7516 263.039 51.6406 264.209 50.8589C265.379 50.0772 266.754 49.66 268.161 49.66C270.048 49.66 271.857 50.4095 273.191 51.7436C274.525 53.0777 275.275 54.8872 275.275 56.774Z" fill="#87C9AF"/>
</g>
<path d="M104.375 100.301H131.053C131.336 100.292 131.604 100.174 131.802 99.9708C131.999 99.7676 132.109 99.4956 132.109 99.2125C132.109 98.9294 131.999 98.6574 131.802 98.4542C131.604 98.251 131.336 98.1326 131.053 98.124H104.375C104.092 98.1326 103.823 98.251 103.626 98.4542C103.429 98.6574 103.319 98.9294 103.319 99.2125C103.319 99.4956 103.429 99.7676 103.626 99.9708C103.823 100.174 104.092 100.292 104.375 100.301Z" fill="#FFFFFD"/>
<path d="M157.286 101.19H274.223C274.506 101.181 274.774 101.063 274.972 100.86C275.169 100.657 275.279 100.385 275.279 100.102C275.279 99.8184 275.169 99.5464 274.972 99.3432C274.774 99.14 274.506 99.0216 274.223 99.013H157.286C157.003 99.0216 156.734 99.14 156.537 99.3432C156.34 99.5464 156.23 99.8184 156.23 100.102C156.23 100.385 156.34 100.657 156.537 100.86C156.734 101.063 157.003 101.181 157.286 101.19Z" fill="#FFFFFD"/>
<path d="M104.375 122.981H131.053C131.336 122.972 131.604 122.854 131.802 122.651C131.999 122.448 132.109 122.176 132.109 121.893C132.109 121.609 131.999 121.337 131.802 121.134C131.604 120.931 131.336 120.813 131.053 120.804H104.375C104.092 120.813 103.823 120.931 103.626 121.134C103.429 121.337 103.319 121.609 103.319 121.893C103.319 122.176 103.429 122.448 103.626 122.651C103.823 122.854 104.092 122.972 104.375 122.981Z" fill="#FFFFFD"/>
<path d="M157.286 123.867H240.654C240.937 123.858 241.205 123.74 241.403 123.537C241.6 123.334 241.71 123.062 241.71 122.779C241.71 122.495 241.6 122.223 241.403 122.02C241.205 121.817 240.937 121.699 240.654 121.69H157.286C157.003 121.699 156.734 121.817 156.537 122.02C156.34 122.223 156.23 122.495 156.23 122.779C156.23 123.062 156.34 123.334 156.537 123.537C156.734 123.74 157.003 123.858 157.286 123.867Z" fill="#FFFFFD"/>
<path d="M104.375 145.653H131.053C131.336 145.644 131.604 145.526 131.802 145.323C131.999 145.12 132.109 144.848 132.109 144.565C132.109 144.281 131.999 144.009 131.802 143.806C131.604 143.603 131.336 143.485 131.053 143.476H104.375C104.092 143.485 103.823 143.603 103.626 143.806C103.429 144.009 103.319 144.281 103.319 144.565C103.319 144.848 103.429 145.12 103.626 145.323C103.823 145.526 104.092 145.644 104.375 145.653Z" fill="#FFFFFD"/>
<path d="M157.286 146.543H258.55C258.833 146.534 259.101 146.416 259.299 146.213C259.496 146.01 259.606 145.738 259.606 145.454C259.606 145.171 259.496 144.899 259.299 144.696C259.101 144.493 258.833 144.375 258.55 144.366H157.286C157.003 144.375 156.734 144.493 156.537 144.696C156.34 144.899 156.23 145.171 156.23 145.454C156.23 145.738 156.34 146.01 156.537 146.213C156.734 146.416 157.003 146.534 157.286 146.543Z" fill="#FFFFFD"/>
<path d="M104.375 168.329H131.053C131.336 168.32 131.604 168.202 131.802 167.999C131.999 167.796 132.109 167.524 132.109 167.24C132.109 166.957 131.999 166.685 131.802 166.482C131.604 166.279 131.336 166.161 131.053 166.152H104.375C104.092 166.161 103.823 166.279 103.626 166.482C103.429 166.685 103.319 166.957 103.319 167.24C103.319 167.524 103.429 167.796 103.626 167.999C103.823 168.202 104.092 168.32 104.375 168.329Z" fill="#FFFFFD"/>
<path d="M157.286 169.219H218.201C218.484 169.21 218.752 169.092 218.95 168.889C219.147 168.686 219.257 168.414 219.257 168.13C219.257 167.847 219.147 167.575 218.95 167.372C218.752 167.169 218.484 167.051 218.201 167.042H157.286C157.003 167.051 156.734 167.169 156.537 167.372C156.34 167.575 156.23 167.847 156.23 168.13C156.23 168.414 156.34 168.686 156.537 168.889C156.734 169.092 157.003 169.21 157.286 169.219Z" fill="#FFFFFD"/>
<path d="M104.375 191.006H131.053C131.336 190.997 131.604 190.879 131.802 190.676C131.999 190.473 132.109 190.201 132.109 189.917C132.109 189.634 131.999 189.362 131.802 189.159C131.604 188.956 131.336 188.838 131.053 188.829H104.375C104.092 188.838 103.823 188.956 103.626 189.159C103.429 189.362 103.319 189.634 103.319 189.917C103.319 190.201 103.429 190.473 103.626 190.676C103.823 190.879 104.092 190.997 104.375 191.006Z" fill="#FFFFFD"/>
<path d="M157.286 191.895H240.654C240.937 191.886 241.205 191.768 241.403 191.565C241.6 191.362 241.71 191.09 241.71 190.807C241.71 190.523 241.6 190.251 241.403 190.048C241.205 189.845 240.937 189.727 240.654 189.718H157.286C157.003 189.727 156.734 189.845 156.537 190.048C156.34 190.251 156.23 190.523 156.23 190.807C156.23 191.09 156.34 191.362 156.537 191.565C156.734 191.768 157.003 191.886 157.286 191.895Z" fill="#FFFFFD"/>
<path d="M104.375 213.682H131.053C131.336 213.673 131.604 213.555 131.802 213.352C131.999 213.149 132.109 212.877 132.109 212.594C132.109 212.31 131.999 212.038 131.802 211.835C131.604 211.632 131.336 211.514 131.053 211.505H104.375C104.092 211.514 103.823 211.632 103.626 211.835C103.429 212.038 103.319 212.31 103.319 212.594C103.319 212.877 103.429 213.149 103.626 213.352C103.823 213.555 104.092 213.673 104.375 213.682Z" fill="#FFFFFD"/>
<path d="M157.286 214.571H274.223C274.506 214.562 274.774 214.444 274.972 214.241C275.169 214.038 275.279 213.766 275.279 213.482C275.279 213.199 275.169 212.927 274.972 212.724C274.774 212.521 274.506 212.403 274.223 212.394H157.286C157.003 212.403 156.734 212.521 156.537 212.724C156.34 212.927 156.23 213.199 156.23 213.482C156.23 213.766 156.34 214.038 156.537 214.241C156.734 214.444 157.003 214.562 157.286 214.571Z" fill="#FFFFFD"/>
<path d="M220.843 75.213L218.837 74.844C218.754 74.8287 218.676 74.7933 218.61 74.741C218.544 74.6887 218.492 74.6211 218.458 74.544L217.624 72.682C217.584 72.5936 217.521 72.5181 217.441 72.464C217.36 72.4098 217.267 72.3792 217.17 72.3756C217.073 72.3719 216.977 72.3954 216.893 72.4434C216.809 72.4913 216.74 72.5619 216.694 72.647L215.723 74.44C215.683 74.5138 215.626 74.5768 215.556 74.6237C215.486 74.6705 215.406 74.6998 215.323 74.709L213.295 74.926C213.199 74.9362 213.107 74.9733 213.031 75.0328C212.954 75.0924 212.896 75.1722 212.863 75.2632C212.829 75.3541 212.822 75.4526 212.842 75.5475C212.861 75.6424 212.907 75.7298 212.974 75.8L214.38 77.278C214.438 77.3391 214.481 77.4135 214.504 77.4947C214.527 77.5759 214.53 77.6615 214.512 77.744L214.092 79.744C214.072 79.8389 214.079 79.9375 214.112 80.0287C214.145 80.1199 214.203 80.1999 214.279 80.2598C214.356 80.3196 214.447 80.3569 214.544 80.3674C214.64 80.3779 214.738 80.3611 214.825 80.319L216.665 79.439C216.741 79.4024 216.825 79.3849 216.909 79.3881C216.993 79.3912 217.075 79.4149 217.148 79.457L218.916 80.473C219 80.5216 219.096 80.5456 219.193 80.5424C219.29 80.5391 219.384 80.5088 219.465 80.4547C219.545 80.4007 219.609 80.3251 219.649 80.2366C219.689 80.1481 219.703 80.0502 219.69 79.954L219.421 77.932C219.41 77.8485 219.42 77.7635 219.449 77.6845C219.478 77.6054 219.526 77.5346 219.588 77.478L221.101 76.11C221.174 76.0453 221.228 75.9613 221.255 75.8675C221.283 75.7738 221.283 75.6742 221.257 75.5802C221.23 75.4862 221.178 75.4016 221.105 75.3361C221.033 75.2706 220.943 75.2269 220.847 75.21" fill="#FFA100"/>
<path d="M234.345 75.254L232.339 74.885C232.256 74.8696 232.178 74.8343 232.112 74.782C232.046 74.7297 231.994 74.6621 231.96 74.585L231.124 72.724C231.084 72.6356 231.021 72.5601 230.941 72.506C230.86 72.4518 230.767 72.4212 230.67 72.4175C230.573 72.4139 230.477 72.4374 230.393 72.4854C230.309 72.5333 230.24 72.6039 230.194 72.689L229.223 74.482C229.183 74.5558 229.126 74.6188 229.056 74.6656C228.986 74.7125 228.906 74.7418 228.823 74.751L226.795 74.968C226.699 74.9782 226.607 75.0152 226.531 75.0748C226.454 75.1344 226.396 75.2142 226.363 75.3052C226.329 75.3961 226.322 75.4946 226.342 75.5895C226.361 75.6843 226.407 75.7718 226.474 75.842L227.88 77.32C227.938 77.3811 227.981 77.4555 228.004 77.5367C228.027 77.6179 228.029 77.7034 228.012 77.786L227.592 79.786C227.572 79.8809 227.579 79.9795 227.612 80.0707C227.645 80.1618 227.703 80.2419 227.779 80.3018C227.856 80.3616 227.947 80.3989 228.044 80.4094C228.14 80.4198 228.238 80.4031 228.325 80.361L230.165 79.481C230.241 79.4444 230.325 79.4269 230.409 79.4301C230.493 79.4332 230.575 79.4569 230.648 79.499L232.416 80.515C232.5 80.5635 232.596 80.5876 232.693 80.5843C232.79 80.5811 232.884 80.5507 232.965 80.4967C233.045 80.4426 233.109 80.3671 233.149 80.2786C233.189 80.1901 233.203 80.0922 233.19 79.996L232.921 77.974C232.91 77.8905 232.92 77.8055 232.949 77.7265C232.978 77.6474 233.026 77.5766 233.088 77.52L234.601 76.152C234.674 76.0873 234.728 76.0032 234.755 75.9095C234.783 75.8158 234.783 75.7162 234.757 75.6222C234.73 75.5282 234.678 75.4436 234.605 75.3781C234.533 75.3126 234.443 75.2689 234.347 75.252" fill="#FFA100"/>
<path d="M247.846 75.295L245.84 74.926C245.757 74.9107 245.679 74.8754 245.613 74.8231C245.547 74.7708 245.494 74.7031 245.46 74.626L244.626 72.764C244.586 72.6756 244.523 72.6001 244.443 72.5459C244.362 72.4918 244.269 72.4612 244.172 72.4575C244.075 72.4539 243.979 72.4774 243.895 72.5253C243.811 72.5733 243.742 72.6438 243.696 72.729L242.725 74.522C242.685 74.5958 242.628 74.6588 242.558 74.7056C242.488 74.7525 242.408 74.7817 242.325 74.791L240.297 75.008C240.201 75.0182 240.109 75.0552 240.033 75.1148C239.956 75.1744 239.898 75.2542 239.865 75.3451C239.831 75.4361 239.824 75.5346 239.844 75.6294C239.863 75.7243 239.909 75.8118 239.976 75.882L241.382 77.36C241.44 77.4211 241.483 77.4954 241.506 77.5766C241.529 77.6578 241.532 77.7434 241.514 77.826L241.094 79.826C241.074 79.9209 241.081 80.0195 241.114 80.1107C241.147 80.2018 241.205 80.2819 241.281 80.3417C241.358 80.4016 241.449 80.4389 241.546 80.4494C241.642 80.4598 241.74 80.4431 241.827 80.401L243.667 79.521C243.743 79.4844 243.827 79.4669 243.911 79.47C243.995 79.4732 244.077 79.4968 244.15 79.539L245.918 80.555C246.002 80.6035 246.098 80.6276 246.195 80.6243C246.292 80.6211 246.386 80.5907 246.467 80.5367C246.547 80.4826 246.611 80.4071 246.651 80.3186C246.691 80.23 246.705 80.1321 246.692 80.036L246.423 78.014C246.412 77.9304 246.422 77.8455 246.451 77.7665C246.48 77.6874 246.528 77.6166 246.59 77.56L248.103 76.192C248.176 76.1273 248.23 76.0432 248.257 75.9495C248.285 75.8558 248.285 75.7562 248.259 75.6622C248.232 75.5682 248.18 75.4836 248.107 75.4181C248.035 75.3526 247.945 75.3089 247.849 75.292" fill="#FFA100"/>
<path d="M261.348 75.336L259.342 74.967C259.259 74.9517 259.181 74.9164 259.115 74.8641C259.049 74.8118 258.996 74.7442 258.962 74.667L258.128 72.805C258.088 72.7166 258.025 72.6411 257.945 72.587C257.864 72.5328 257.771 72.5022 257.674 72.4985C257.577 72.4949 257.481 72.5184 257.397 72.5664C257.313 72.6143 257.244 72.6849 257.198 72.77L256.227 74.563C256.187 74.6368 256.13 74.6998 256.06 74.7466C255.99 74.7935 255.91 74.8228 255.827 74.832L253.799 75.049C253.703 75.0592 253.611 75.0962 253.535 75.1558C253.458 75.2154 253.4 75.2952 253.367 75.3861C253.333 75.4771 253.326 75.5756 253.346 75.6705C253.365 75.7653 253.411 75.8528 253.478 75.923L254.884 77.401C254.942 77.4621 254.985 77.5364 255.008 77.6176C255.031 77.6988 255.034 77.7844 255.016 77.867L254.596 79.867C254.576 79.9619 254.583 80.0605 254.616 80.1517C254.649 80.2428 254.707 80.3229 254.783 80.3828C254.86 80.4426 254.951 80.4799 255.048 80.4904C255.144 80.5008 255.242 80.4841 255.329 80.442L257.169 79.562C257.245 79.5254 257.329 79.5079 257.413 79.5111C257.497 79.5142 257.579 79.5379 257.652 79.58L259.42 80.596C259.504 80.6445 259.6 80.6686 259.697 80.6653C259.794 80.6621 259.888 80.6317 259.969 80.5777C260.049 80.5236 260.113 80.4481 260.153 80.3596C260.193 80.2711 260.207 80.1732 260.194 80.077L259.925 78.055C259.914 77.9715 259.924 77.8865 259.953 77.8075C259.982 77.7284 260.03 77.6576 260.092 77.601L261.605 76.233C261.678 76.1683 261.732 76.0842 261.759 75.9905C261.787 75.8968 261.787 75.7972 261.761 75.7032C261.734 75.6092 261.682 75.5246 261.609 75.4591C261.537 75.3936 261.447 75.3499 261.351 75.333" fill="#FFA100"/>
<path d="M275.104 76.274C275.177 76.2093 275.231 76.1253 275.258 76.0315C275.286 75.9378 275.286 75.8382 275.26 75.7442C275.233 75.6502 275.181 75.5656 275.108 75.5001C275.036 75.4346 274.946 75.3909 274.85 75.374L272.844 75.005C272.761 74.9894 272.683 74.954 272.617 74.9017C272.551 74.8495 272.498 74.782 272.464 74.705L271.631 72.843C271.591 72.7547 271.528 72.6791 271.448 72.625C271.367 72.5708 271.274 72.5402 271.177 72.5366C271.08 72.5329 270.984 72.5564 270.9 72.6044C270.816 72.6523 270.747 72.7229 270.701 72.808L269.73 74.602C269.69 74.676 269.633 74.7391 269.563 74.786C269.494 74.8329 269.414 74.862 269.33 74.871L267.301 75.088C267.205 75.0984 267.113 75.1355 267.037 75.1952C266.961 75.2548 266.903 75.3346 266.869 75.4256C266.836 75.5165 266.829 75.6149 266.849 75.7097C266.868 75.8045 266.914 75.8919 266.981 75.962L268.387 77.44C268.445 77.501 268.488 77.5752 268.511 77.6561C268.534 77.7371 268.537 77.8225 268.52 77.905L268.1 79.905C268.08 79.9998 268.087 80.0985 268.12 80.1896C268.153 80.2808 268.21 80.3609 268.287 80.4209C268.363 80.4808 268.454 80.5183 268.551 80.5289C268.647 80.5395 268.745 80.5229 268.832 80.481L270.673 79.6C270.749 79.5638 270.833 79.5465 270.917 79.5496C271.001 79.5527 271.083 79.5762 271.156 79.618L272.924 80.635C273.008 80.6832 273.104 80.7069 273.201 80.7035C273.298 80.7 273.392 80.6696 273.472 80.6157C273.552 80.5617 273.616 80.4863 273.656 80.398C273.696 80.3098 273.711 80.2121 273.698 80.116L273.429 78.094C273.418 78.0105 273.427 77.9254 273.456 77.8463C273.485 77.7671 273.533 77.6963 273.596 77.64L275.104 76.274Z" fill="#FFA100"/>
<path d="M134.2 64.055C134.2 67.3483 133.223 70.5677 131.393 73.306C129.563 76.0442 126.963 78.1784 123.92 79.4386C120.877 80.6988 117.529 81.0285 114.299 80.386C111.069 79.7434 108.102 78.1575 105.773 75.8287C103.444 73.5 101.859 70.5329 101.216 67.3029C100.573 64.0728 100.903 60.7247 102.163 57.682C103.424 54.6393 105.558 52.0386 108.296 50.2088C111.034 48.3789 114.254 47.4022 117.547 47.402C121.964 47.402 126.199 49.1565 129.322 52.2795C132.445 55.4026 134.2 59.6383 134.2 64.055Z" fill="#FFFFFD"/>
<path d="M228.394 225.452H70.977C67.5808 225.452 64.2179 224.783 61.0802 223.483C57.9425 222.184 55.0916 220.279 52.6902 217.877C50.2887 215.476 48.3838 212.625 47.0843 209.487C45.7847 206.349 45.1159 202.986 45.116 199.59V43.511C45.1155 40.1145 45.784 36.7513 47.0834 33.6132C48.3828 30.4751 50.2876 27.6238 52.6891 25.2219C55.0906 22.8201 57.9416 20.9148 61.0795 19.6149C64.2174 18.315 67.5805 17.646 70.977 17.646H228.394C231.79 17.646 235.154 18.315 238.292 19.6149C241.43 20.9148 244.281 22.82 246.682 25.2219C249.084 27.6237 250.989 30.475 252.288 33.6131C253.588 36.7512 254.256 40.1145 254.256 43.511V199.59C254.256 206.449 251.531 213.027 246.681 217.877C241.831 222.727 235.253 225.452 228.394 225.452Z" fill="#BAB9B9"/>
<mask id="mask5_7_3798" style="mask-type:luminance" maskUnits="userSpaceOnUse" x="45" y="17" width="204" height="205">
<path d="M248.7 17.647H45.06V221.287H248.7V17.647Z" fill="white"/>
</mask>
<g mask="url(#mask5_7_3798)">
<path d="M222.838 221.287H70.921C67.5248 221.287 64.1618 220.618 61.0242 219.318C57.8865 218.019 55.0356 216.114 52.6341 213.712C50.2327 211.311 48.3278 208.46 47.0282 205.322C45.7287 202.184 45.0599 198.821 45.06 195.425V43.511C45.0596 40.1146 45.7282 36.7514 47.0277 33.6135C48.3271 30.4755 50.232 27.6243 52.6334 25.2225C55.0349 22.8208 57.8859 20.9156 61.0237 19.6158C64.1615 18.316 67.5246 17.647 70.921 17.647H222.838C226.234 17.647 229.598 18.316 232.735 19.6158C235.873 20.9156 238.724 22.8208 241.126 25.2225C243.527 27.6242 245.432 30.4754 246.732 33.6134C248.031 36.7514 248.7 40.1146 248.7 43.511V195.425C248.7 202.284 245.975 208.862 241.125 213.712C236.275 218.562 229.697 221.287 222.838 221.287Z" fill="#B7E2F9"/>
</g>
<mask id="mask6_7_3798" style="mask-type:luminance" maskUnits="userSpaceOnUse" x="166" y="33" width="15" height="15">
<path d="M180.389 33.653H166.161V47.881H180.389V33.653Z" fill="white"/>
</mask>
<g mask="url(#mask6_7_3798)">
<path d="M180.389 40.767C180.389 42.174 179.972 43.5494 179.19 44.7193C178.408 45.8892 177.297 46.8011 175.997 47.3395C174.697 47.8779 173.267 48.0188 171.887 47.7443C170.507 47.4698 169.24 46.7923 168.245 45.7974C167.25 44.8025 166.572 43.5349 166.298 42.1549C166.023 40.7749 166.164 39.3445 166.702 38.0446C167.241 36.7447 168.153 35.6336 169.323 34.8519C170.493 34.0702 171.868 33.653 173.275 33.653C175.162 33.653 176.971 34.4025 178.305 35.7367C179.639 37.0708 180.389 38.8803 180.389 40.767Z" fill="#BDA6D0"/>
</g>
<mask id="mask7_7_3798" style="mask-type:luminance" maskUnits="userSpaceOnUse" x="191" y="33" width="15" height="15">
<path d="M205.289 33.653H191.061V47.881H205.289V33.653Z" fill="white"/>
</mask>
<g mask="url(#mask7_7_3798)">
<path d="M205.292 40.767C205.292 42.174 204.875 43.5494 204.093 44.7193C203.311 45.8892 202.2 46.8011 200.9 47.3395C199.6 47.8779 198.17 48.0188 196.79 47.7443C195.41 47.4698 194.143 46.7923 193.148 45.7974C192.153 44.8025 191.475 43.5349 191.201 42.1549C190.926 40.7749 191.067 39.3445 191.606 38.0446C192.144 36.7447 193.056 35.6336 194.226 34.8519C195.396 34.0702 196.771 33.653 198.178 33.653C200.065 33.653 201.874 34.4025 203.208 35.7367C204.542 37.0708 205.292 38.8803 205.292 40.767Z" fill="#ED988A"/>
</g>
<mask id="mask8_7_3798" style="mask-type:luminance" maskUnits="userSpaceOnUse" x="215" y="33" width="16" height="15">
<path d="M230.189 33.653H215.96V47.881H230.189V33.653Z" fill="white"/>
</mask>
<g mask="url(#mask8_7_3798)">
<path d="M230.189 40.767C230.189 42.174 229.772 43.5494 228.99 44.7193C228.208 45.8892 227.097 46.8011 225.797 47.3395C224.497 47.8779 223.067 48.0188 221.687 47.7443C220.307 47.4698 219.04 46.7923 218.045 45.7974C217.05 44.8025 216.372 43.5349 216.098 42.1549C215.823 40.7749 215.964 39.3445 216.503 38.0446C217.041 36.7447 217.953 35.6336 219.123 34.8519C220.293 34.0702 221.668 33.653 223.075 33.653C224.962 33.653 226.771 34.4025 228.105 35.7367C229.439 37.0708 230.189 38.8803 230.189 40.767Z" fill="#87C9AF"/>
</g>
<path d="M59.288 84.295H85.966C86.249 84.2864 86.5175 84.168 86.7146 83.9648C86.9117 83.7616 87.022 83.4896 87.022 83.2065C87.022 82.9234 86.9117 82.6514 86.7146 82.4482C86.5175 82.245 86.249 82.1266 85.966 82.118H59.288C59.005 82.1266 58.7365 82.245 58.5394 82.4482C58.3422 82.6514 58.232 82.9234 58.232 83.2065C58.232 83.4896 58.3422 83.7616 58.5394 83.9648C58.7365 84.168 59.005 84.2864 59.288 84.295Z" fill="#FFFFFD"/>
<path d="M112.199 85.184H229.136C229.419 85.1754 229.687 85.057 229.885 84.8538C230.082 84.6506 230.192 84.3786 230.192 84.0955C230.192 83.8124 230.082 83.5404 229.885 83.3372C229.687 83.134 229.419 83.0156 229.136 83.007H112.199C111.916 83.0156 111.647 83.134 111.45 83.3372C111.253 83.5404 111.143 83.8124 111.143 84.0955C111.143 84.3786 111.253 84.6506 111.45 84.8538C111.647 85.057 111.916 85.1754 112.199 85.184Z" fill="#FFFFFD"/>
<path d="M59.288 106.971H85.966C86.249 106.962 86.5175 106.844 86.7146 106.641C86.9117 106.438 87.022 106.166 87.022 105.883C87.022 105.599 86.9117 105.327 86.7146 105.124C86.5175 104.921 86.249 104.803 85.966 104.794H59.288C59.005 104.803 58.7365 104.921 58.5394 105.124C58.3422 105.327 58.232 105.599 58.232 105.883C58.232 106.166 58.3422 106.438 58.5394 106.641C58.7365 106.844 59.005 106.962 59.288 106.971Z" fill="#FFFFFD"/>
<path d="M112.199 107.86H195.563C195.846 107.851 196.114 107.733 196.312 107.53C196.509 107.327 196.619 107.055 196.619 106.771C196.619 106.488 196.509 106.216 196.312 106.013C196.114 105.81 195.846 105.692 195.563 105.683H112.199C111.916 105.692 111.647 105.81 111.45 106.013C111.253 106.216 111.143 106.488 111.143 106.771C111.143 107.055 111.253 107.327 111.45 107.53C111.647 107.733 111.916 107.851 112.199 107.86Z" fill="#FFFFFD"/>
<path d="M59.288 129.646H85.966C86.2465 129.634 86.5115 129.514 86.7057 129.311C86.8999 129.109 87.0083 128.839 87.0083 128.558C87.0083 128.277 86.8999 128.007 86.7057 127.805C86.5115 127.602 86.2465 127.482 85.966 127.47H59.288C59.0075 127.482 58.7425 127.602 58.5483 127.805C58.3541 128.007 58.2456 128.277 58.2456 128.558C58.2456 128.839 58.3541 129.109 58.5483 129.311C58.7425 129.514 59.0075 129.634 59.288 129.646Z" fill="#FFFFFD"/>
<path d="M112.199 130.536H213.463C213.746 130.527 214.014 130.409 214.212 130.206C214.409 130.003 214.519 129.731 214.519 129.447C214.519 129.164 214.409 128.892 214.212 128.689C214.014 128.486 213.746 128.368 213.463 128.359H112.199C111.916 128.368 111.647 128.486 111.45 128.689C111.253 128.892 111.143 129.164 111.143 129.447C111.143 129.731 111.253 130.003 111.45 130.206C111.647 130.409 111.916 130.527 112.199 130.536Z" fill="#FFFFFD"/>
<path d="M59.288 152.323H85.966C86.249 152.314 86.5175 152.196 86.7146 151.993C86.9117 151.79 87.022 151.518 87.022 151.234C87.022 150.951 86.9117 150.679 86.7146 150.476C86.5175 150.273 86.249 150.155 85.966 150.146H59.288C59.005 150.155 58.7365 150.273 58.5394 150.476C58.3422 150.679 58.232 150.951 58.232 151.234C58.232 151.518 58.3422 151.79 58.5394 151.993C58.7365 152.196 59.005 152.314 59.288 152.323Z" fill="#FFFFFD"/>
<path d="M112.199 153.212H173.113C173.396 153.203 173.664 153.085 173.862 152.882C174.059 152.679 174.169 152.407 174.169 152.124C174.169 151.84 174.059 151.568 173.862 151.365C173.664 151.162 173.396 151.044 173.113 151.035H112.199C111.916 151.044 111.647 151.162 111.45 151.365C111.253 151.568 111.143 151.84 111.143 152.124C111.143 152.407 111.253 152.679 111.45 152.882C111.647 153.085 111.916 153.203 112.199 153.212Z" fill="#FFFFFD"/>
<path d="M59.288 174.999H85.966C86.249 174.99 86.5175 174.872 86.7146 174.669C86.9117 174.466 87.022 174.194 87.022 173.911C87.022 173.627 86.9117 173.355 86.7146 173.152C86.5175 172.949 86.249 172.831 85.966 172.822H59.288C59.005 172.831 58.7365 172.949 58.5394 173.152C58.3422 173.355 58.232 173.627 58.232 173.911C58.232 174.194 58.3422 174.466 58.5394 174.669C58.7365 174.872 59.005 174.99 59.288 174.999Z" fill="#FFFFFD"/>
<path d="M112.199 175.888H195.563C195.846 175.879 196.114 175.761 196.312 175.558C196.509 175.355 196.619 175.083 196.619 174.799C196.619 174.516 196.509 174.244 196.312 174.041C196.114 173.838 195.846 173.72 195.563 173.711H112.199C111.916 173.72 111.647 173.838 111.45 174.041C111.253 174.244 111.143 174.516 111.143 174.799C111.143 175.083 111.253 175.355 111.45 175.558C111.647 175.761 111.916 175.879 112.199 175.888Z" fill="#FFFFFD"/>
<path d="M59.288 197.675H85.966C86.249 197.666 86.5175 197.548 86.7146 197.345C86.9117 197.142 87.022 196.87 87.022 196.586C87.022 196.303 86.9117 196.031 86.7146 195.828C86.5175 195.625 86.249 195.507 85.966 195.498H59.288C59.005 195.507 58.7365 195.625 58.5394 195.828C58.3422 196.031 58.232 196.303 58.232 196.586C58.232 196.87 58.3422 197.142 58.5394 197.345C58.7365 197.548 59.005 197.666 59.288 197.675Z" fill="#FFFFFD"/>
<path d="M112.199 198.564H229.136C229.419 198.555 229.687 198.437 229.885 198.234C230.082 198.031 230.192 197.759 230.192 197.475C230.192 197.192 230.082 196.92 229.885 196.717C229.687 196.514 229.419 196.396 229.136 196.387H112.199C111.916 196.396 111.647 196.514 111.45 196.717C111.253 196.92 111.143 197.192 111.143 197.475C111.143 197.759 111.253 198.031 111.45 198.234C111.647 198.437 111.916 198.555 112.199 198.564Z" fill="#FFFFFD"/>
<path d="M175.757 59.206L173.751 58.837C173.668 58.8217 173.59 58.7864 173.524 58.7341C173.458 58.6818 173.405 58.6142 173.371 58.537L172.537 56.675C172.497 56.5866 172.434 56.5111 172.354 56.457C172.273 56.4028 172.18 56.3722 172.083 56.3685C171.986 56.3649 171.89 56.3884 171.806 56.4363C171.722 56.4843 171.653 56.5549 171.607 56.64L170.636 58.433C170.596 58.5068 170.539 58.5698 170.469 58.6166C170.399 58.6635 170.319 58.6928 170.236 58.702L168.208 58.919C168.112 58.9292 168.02 58.9662 167.944 59.0258C167.867 59.0854 167.809 59.1652 167.776 59.2561C167.742 59.3471 167.735 59.4456 167.755 59.5405C167.774 59.6353 167.82 59.7228 167.887 59.793L169.293 61.271C169.351 61.3321 169.394 61.4064 169.417 61.4876C169.44 61.5688 169.443 61.6544 169.425 61.737L169.005 63.737C168.985 63.8319 168.992 63.9305 169.025 64.0217C169.058 64.1128 169.116 64.1929 169.192 64.2528C169.269 64.3126 169.36 64.3499 169.457 64.3604C169.553 64.3708 169.651 64.3541 169.738 64.312L171.578 63.432C171.654 63.3954 171.738 63.3779 171.822 63.3811C171.906 63.3842 171.988 63.4079 172.061 63.45L173.829 64.466C173.913 64.5145 174.009 64.5386 174.106 64.5353C174.203 64.5321 174.297 64.5017 174.378 64.4477C174.458 64.3936 174.522 64.3181 174.562 64.2296C174.602 64.1411 174.616 64.0432 174.603 63.947L174.334 61.925C174.323 61.8414 174.333 61.7565 174.362 61.6775C174.391 61.5984 174.439 61.5276 174.501 61.471L176.014 60.103C176.087 60.0383 176.141 59.9542 176.168 59.8605C176.196 59.7668 176.196 59.6672 176.17 59.5732C176.143 59.4792 176.091 59.3946 176.018 59.3291C175.946 59.2636 175.856 59.2199 175.76 59.203" fill="#FFA100"/>
<path d="M189.258 59.246L187.252 58.878C187.169 58.8625 187.091 58.8271 187.025 58.7748C186.959 58.7226 186.906 58.655 186.872 58.578L186.038 56.715C185.998 56.6267 185.935 56.5513 185.854 56.4972C185.774 56.4432 185.68 56.4126 185.584 56.4091C185.487 56.4056 185.391 56.4292 185.307 56.4772C185.223 56.5253 185.154 56.5959 185.108 56.681L184.137 58.474C184.097 58.5479 184.04 58.611 183.97 58.6579C183.9 58.7047 183.82 58.734 183.737 58.743L181.709 58.961C181.613 58.9714 181.521 59.0084 181.445 59.068C181.369 59.1275 181.311 59.2071 181.278 59.2979C181.244 59.3887 181.237 59.487 181.256 59.5817C181.276 59.6764 181.321 59.7638 181.388 59.834L182.794 61.312C182.852 61.373 182.894 61.4472 182.917 61.5282C182.94 61.6092 182.943 61.6946 182.926 61.777L182.506 63.777C182.486 63.8718 182.493 63.9703 182.527 64.0612C182.56 64.1522 182.618 64.232 182.694 64.2918C182.77 64.3516 182.862 64.3889 182.958 64.3995C183.054 64.4102 183.152 64.3937 183.239 64.352L185.079 63.472C185.155 63.4355 185.239 63.418 185.323 63.4211C185.407 63.4242 185.489 63.4479 185.562 63.49L187.325 64.501C187.409 64.5492 187.505 64.5729 187.602 64.5695C187.699 64.5661 187.792 64.5356 187.873 64.4817C187.953 64.4277 188.017 64.3523 188.057 64.2641C188.097 64.1758 188.112 64.0781 188.099 63.982L187.83 61.96C187.819 61.8765 187.829 61.7916 187.858 61.7126C187.887 61.6335 187.935 61.5627 187.997 61.506L189.51 60.139C189.583 60.0743 189.637 59.9903 189.664 59.8966C189.692 59.8028 189.692 59.7032 189.666 59.6092C189.639 59.5152 189.587 59.4306 189.514 59.3651C189.442 59.2996 189.352 59.2559 189.256 59.239" fill="#FFA100"/>
<path d="M202.759 59.288L200.753 58.919C200.67 58.9036 200.592 58.8682 200.526 58.8159C200.46 58.7637 200.408 58.6961 200.374 58.619L199.54 56.757C199.5 56.6687 199.437 56.5931 199.357 56.539C199.276 56.4848 199.183 56.4542 199.086 56.4506C198.989 56.4469 198.893 56.4704 198.809 56.5184C198.725 56.5663 198.656 56.6369 198.61 56.722L197.639 58.515C197.599 58.5888 197.542 58.6518 197.472 58.6987C197.402 58.7455 197.322 58.7748 197.239 58.784L195.211 59.001C195.115 59.0112 195.023 59.0483 194.947 59.1078C194.87 59.1674 194.812 59.2472 194.779 59.3382C194.745 59.4291 194.738 59.5276 194.758 59.6225C194.777 59.7174 194.823 59.8048 194.89 59.875L196.296 61.353C196.354 61.4141 196.397 61.4885 196.42 61.5697C196.443 61.6509 196.446 61.7365 196.428 61.819L196.008 63.819C195.988 63.9139 195.995 64.0125 196.028 64.1037C196.061 64.1949 196.119 64.2749 196.195 64.3348C196.272 64.3946 196.363 64.4319 196.46 64.4424C196.556 64.4529 196.654 64.4361 196.741 64.394L198.581 63.514C198.657 63.4774 198.741 63.46 198.825 63.4631C198.909 63.4662 198.991 63.4899 199.064 63.532L200.832 64.548C200.916 64.5966 201.012 64.6206 201.109 64.6174C201.206 64.6141 201.3 64.5838 201.381 64.5297C201.461 64.4757 201.525 64.4001 201.565 64.3116C201.605 64.2231 201.619 64.1252 201.606 64.029L201.337 62.007C201.326 61.9235 201.336 61.8386 201.365 61.7595C201.394 61.6804 201.442 61.6096 201.504 61.553L203.017 60.185C203.09 60.1203 203.144 60.0363 203.171 59.9425C203.199 59.8488 203.199 59.7492 203.173 59.6552C203.146 59.5612 203.094 59.4766 203.021 59.4111C202.949 59.3456 202.859 59.3019 202.763 59.285" fill="#FFA100"/>
<path d="M216.26 59.329L214.254 58.96C214.171 58.9446 214.093 58.9092 214.027 58.8569C213.961 58.8047 213.909 58.7371 213.875 58.66L213.041 56.798C213.002 56.7085 212.938 56.6318 212.857 56.5769C212.776 56.5219 212.682 56.491 212.584 56.4875C212.486 56.4841 212.389 56.5083 212.305 56.5574C212.22 56.6065 212.151 56.6785 212.106 56.765L211.135 58.558C211.095 58.6318 211.038 58.6948 210.968 58.7417C210.898 58.7885 210.818 58.8178 210.735 58.827L208.707 59.044C208.611 59.0543 208.519 59.0913 208.443 59.1509C208.366 59.2105 208.308 59.2902 208.275 59.3812C208.241 59.4721 208.234 59.5706 208.254 59.6655C208.273 59.7604 208.319 59.8479 208.386 59.918L209.792 61.396C209.85 61.4571 209.893 61.5315 209.916 61.6127C209.939 61.6939 209.942 61.7795 209.924 61.862L209.504 63.862C209.484 63.9569 209.491 64.0556 209.524 64.1467C209.557 64.2379 209.615 64.3179 209.691 64.3778C209.768 64.4377 209.859 64.475 209.956 64.4854C210.052 64.4959 210.15 64.4791 210.237 64.437L212.077 63.557C212.153 63.5204 212.237 63.503 212.321 63.5061C212.405 63.5092 212.487 63.5329 212.56 63.575L214.328 64.591C214.413 64.6413 214.51 64.6665 214.608 64.6637C214.707 64.6608 214.802 64.63 214.884 64.5748C214.965 64.5197 215.03 64.4425 215.069 64.3522C215.108 64.2619 215.121 64.1623 215.106 64.065L214.837 62.043C214.826 61.9595 214.836 61.8746 214.865 61.7955C214.894 61.7165 214.942 61.6456 215.004 61.589L216.517 60.221C216.59 60.1563 216.644 60.0723 216.671 59.9786C216.699 59.8848 216.699 59.7853 216.673 59.6912C216.646 59.5972 216.594 59.5126 216.521 59.4471C216.449 59.3816 216.359 59.3379 216.263 59.321" fill="#FFA100"/>
<path d="M230.016 60.267C230.089 60.2023 230.143 60.1183 230.17 60.0246C230.198 59.9308 230.198 59.8312 230.172 59.7372C230.145 59.6432 230.093 59.5586 230.02 59.4931C229.948 59.4276 229.858 59.3839 229.762 59.367L227.756 58.998C227.673 58.9825 227.595 58.9471 227.529 58.8949C227.463 58.8426 227.41 58.7751 227.376 58.698L226.543 56.837C226.503 56.7487 226.44 56.6732 226.36 56.619C226.279 56.5649 226.186 56.5342 226.089 56.5306C225.992 56.5269 225.896 56.5504 225.812 56.5984C225.728 56.6464 225.659 56.7169 225.613 56.802L224.642 58.596C224.602 58.67 224.545 58.7331 224.475 58.78C224.406 58.8269 224.325 58.8561 224.242 58.865L222.213 59.082C222.117 59.0923 222.025 59.1293 221.949 59.1889C221.872 59.2485 221.814 59.3282 221.781 59.4192C221.747 59.5101 221.74 59.6086 221.76 59.7035C221.779 59.7984 221.825 59.8859 221.892 59.956L223.298 61.434C223.356 61.495 223.399 61.5692 223.422 61.6502C223.445 61.7311 223.448 61.8165 223.431 61.899L223.011 63.899C222.991 63.9939 222.998 64.0925 223.031 64.1836C223.064 64.2748 223.121 64.3549 223.198 64.4149C223.274 64.4749 223.365 64.5123 223.462 64.5229C223.558 64.5335 223.656 64.5169 223.743 64.475L225.584 63.594C225.66 63.5578 225.744 63.5406 225.828 63.5439C225.912 63.5472 225.994 63.5709 226.067 63.613L227.835 64.629C227.919 64.6772 228.015 64.7009 228.112 64.6975C228.209 64.6941 228.303 64.6637 228.383 64.6097C228.463 64.5557 228.527 64.4804 228.567 64.3921C228.607 64.3038 228.622 64.2061 228.609 64.11L228.34 62.088C228.329 62.0045 228.338 61.9194 228.367 61.8403C228.396 61.7612 228.444 61.6903 228.507 61.634L230.016 60.267Z" fill="#FFA100"/>
<path d="M89.113 48.049C89.1128 51.3424 88.136 54.5617 86.3062 57.3C84.4764 60.0382 81.8757 62.1724 78.833 63.4326C75.7903 64.6929 72.4422 65.0225 69.2121 64.38C65.982 63.7374 63.015 62.1515 60.6862 59.8227C58.3575 57.494 56.7715 54.527 56.129 51.2969C55.4864 48.0668 55.8161 44.7187 57.0764 41.676C58.3366 38.6333 60.4707 36.0326 63.209 34.2028C65.9473 32.373 69.1666 31.3962 72.46 31.396C74.6469 31.396 76.8124 31.8267 78.8328 32.6636C80.8532 33.5005 82.6891 34.7272 84.2354 36.2735C85.7818 37.8199 87.0085 39.6557 87.8453 41.6762C88.6822 43.6966 89.113 45.8621 89.113 48.049Z" fill="#FFFFFD"/>
<path d="M184.043 207.806H26.626C23.2298 207.806 19.8668 207.137 16.7292 205.837C13.5915 204.538 10.7406 202.633 8.33914 200.231C5.93771 197.83 4.03283 194.979 2.73325 191.841C1.43367 188.703 0.764853 185.34 0.764984 181.944V25.862C0.764984 19.0031 3.48959 12.4252 8.33944 7.57516C13.1893 2.72512 19.7671 0.00026521 26.626 0L184.043 0C190.902 0 197.48 2.72474 202.33 7.5748C207.18 12.4249 209.905 19.003 209.905 25.862V181.944C209.905 188.803 207.18 195.381 202.33 200.231C197.48 205.081 190.902 207.806 184.043 207.806Z" fill="#BAB9B9"/>
<mask id="mask9_7_3798" style="mask-type:luminance" maskUnits="userSpaceOnUse" x="0" y="0" width="205" height="204">
<path d="M204.349 0H0.708984V203.64H204.349V0Z" fill="white"/>
</mask>
<g mask="url(#mask9_7_3798)">
<path d="M178.487 203.64H26.57C23.1738 203.64 19.8108 202.971 16.6732 201.671C13.5355 200.372 10.6846 198.467 8.28314 196.065C5.88171 193.664 3.97683 190.813 2.67725 187.675C1.37767 184.537 0.708853 181.174 0.708984 177.778L0.708984 25.862C0.708853 22.4658 1.37767 19.1028 2.67725 15.9651C3.97683 12.8274 5.88171 9.97639 8.28314 7.57486C10.6846 5.17334 13.5355 3.26835 16.6732 1.96865C19.8108 0.668948 23.1738 -2.53906e-09 26.57 0L178.487 0C185.346 0 191.924 2.72474 196.774 7.5748C201.624 12.4249 204.349 19.003 204.349 25.862V177.778C204.349 184.637 201.624 191.215 196.774 196.065C191.924 200.915 185.346 203.64 178.487 203.64Z" fill="#B7E2F9"/>
</g>
<mask id="mask10_7_3798" style="mask-type:luminance" maskUnits="userSpaceOnUse" x="121" y="16" width="16" height="15">
<path d="M136.038 16.006H121.81V30.235H136.038V16.006Z" fill="white"/>
</mask>
<g mask="url(#mask10_7_3798)">
<path d="M136.038 23.121C136.038 24.528 135.621 25.9034 134.839 27.0733C134.057 28.2432 132.946 29.155 131.646 29.6934C130.346 30.2319 128.916 30.3728 127.536 30.0983C126.156 29.8238 124.889 29.1462 123.894 28.1513C122.899 27.1564 122.221 25.8888 121.947 24.5088C121.672 23.1288 121.813 21.6985 122.352 20.3985C122.89 19.0986 123.802 17.9876 124.972 17.2059C126.142 16.4242 127.517 16.007 128.924 16.007C129.858 16.007 130.783 16.191 131.646 16.5485C132.51 16.906 133.294 17.43 133.954 18.0906C134.615 18.7512 135.139 19.5354 135.496 20.3985C135.854 21.2617 136.038 22.1867 136.038 23.121Z" fill="#BDA6D0"/>
</g>
<mask id="mask11_7_3798" style="mask-type:luminance" maskUnits="userSpaceOnUse" x="146" y="16" width="15" height="15">
<path d="M160.937 16.006H146.709V30.235H160.937V16.006Z" fill="white"/>
</mask>
<g mask="url(#mask11_7_3798)">
<path d="M160.937 23.121C160.937 24.528 160.52 25.9034 159.738 27.0733C158.956 28.2432 157.845 29.155 156.545 29.6934C155.245 30.2319 153.815 30.3728 152.435 30.0983C151.055 29.8238 149.788 29.1462 148.793 28.1513C147.798 27.1564 147.12 25.8888 146.846 24.5088C146.571 23.1288 146.712 21.6985 147.251 20.3985C147.789 19.0986 148.701 17.9876 149.871 17.2059C151.041 16.4242 152.416 16.007 153.823 16.007C154.757 16.007 155.682 16.191 156.545 16.5485C157.409 16.906 158.193 17.43 158.853 18.0906C159.514 18.7512 160.038 19.5354 160.395 20.3985C160.753 21.2617 160.937 22.1867 160.937 23.121Z" fill="#ED988A"/>
</g>
<mask id="mask12_7_3798" style="mask-type:luminance" maskUnits="userSpaceOnUse" x="171" y="16" width="15" height="15">
<path d="M185.837 16.006H171.609V30.235H185.837V16.006Z" fill="white"/>
</mask>
<g mask="url(#mask12_7_3798)">
<path d="M185.837 23.121C185.837 24.528 185.42 25.9034 184.638 27.0733C183.856 28.2432 182.745 29.155 181.445 29.6934C180.145 30.2319 178.715 30.3728 177.335 30.0983C175.955 29.8238 174.688 29.1462 173.693 28.1513C172.698 27.1564 172.02 25.8888 171.746 24.5088C171.471 23.1288 171.612 21.6985 172.151 20.3985C172.689 19.0986 173.601 17.9876 174.771 17.2059C175.941 16.4242 177.316 16.007 178.723 16.007C180.61 16.007 182.419 16.7565 183.753 18.0906C185.087 19.4247 185.837 21.2342 185.837 23.121Z" fill="#87C9AF"/>
</g>
<path d="M14.937 66.644H41.615C41.898 66.6354 42.1665 66.517 42.3636 66.3138C42.5607 66.1106 42.671 65.8386 42.671 65.5555C42.671 65.2724 42.5607 65.0004 42.3636 64.7972C42.1665 64.594 41.898 64.4756 41.615 64.467H14.937C14.654 64.4756 14.3855 64.594 14.1884 64.7972C13.9912 65.0004 13.881 65.2724 13.881 65.5555C13.881 65.8386 13.9912 66.1106 14.1884 66.3138C14.3855 66.517 14.654 66.6354 14.937 66.644Z" fill="#FFFFFD"/>
<path d="M67.848 67.537H184.785C185.068 67.5284 185.336 67.41 185.534 67.2068C185.731 67.0036 185.841 66.7316 185.841 66.4485C185.841 66.1654 185.731 65.8934 185.534 65.6902C185.336 65.487 185.068 65.3686 184.785 65.36H67.848C67.565 65.3686 67.2965 65.487 67.0994 65.6902C66.9022 65.8934 66.792 66.1654 66.792 66.4485C66.792 66.7316 66.9022 67.0036 67.0994 67.2068C67.2965 67.41 67.565 67.5284 67.848 67.537Z" fill="#FFFFFD"/>
<path d="M14.937 89.324H41.615C41.898 89.3154 42.1665 89.197 42.3636 88.9938C42.5607 88.7906 42.671 88.5186 42.671 88.2355C42.671 87.9524 42.5607 87.6804 42.3636 87.4772C42.1665 87.274 41.898 87.1556 41.615 87.147H14.937C14.654 87.1556 14.3855 87.274 14.1884 87.4772C13.9912 87.6804 13.881 87.9524 13.881 88.2355C13.881 88.5186 13.9912 88.7906 14.1884 88.9938C14.3855 89.197 14.654 89.3154 14.937 89.324Z" fill="#FFFFFD"/>
<path d="M67.848 90.213H151.216C151.499 90.2044 151.767 90.086 151.965 89.8828C152.162 89.6796 152.272 89.4076 152.272 89.1245C152.272 88.8414 152.162 88.5694 151.965 88.3662C151.767 88.163 151.499 88.0446 151.216 88.036H67.848C67.565 88.0446 67.2965 88.163 67.0994 88.3662C66.9022 88.5694 66.792 88.8414 66.792 89.1245C66.792 89.4076 66.9022 89.6796 67.0994 89.8828C67.2965 90.086 67.565 90.2044 67.848 90.213Z" fill="#FFFFFD"/>
<path d="M14.937 112H41.615C41.898 111.991 42.1665 111.873 42.3636 111.67C42.5607 111.467 42.671 111.195 42.671 110.911C42.671 110.628 42.5607 110.356 42.3636 110.153C42.1665 109.95 41.898 109.832 41.615 109.823H14.937C14.654 109.832 14.3855 109.95 14.1884 110.153C13.9912 110.356 13.881 110.628 13.881 110.911C13.881 111.195 13.9912 111.467 14.1884 111.67C14.3855 111.873 14.654 111.991 14.937 112Z" fill="#FFFFFD"/>
<path d="M67.848 112.89H169.112C169.395 112.881 169.663 112.763 169.861 112.56C170.058 112.357 170.168 112.085 170.168 111.802C170.168 111.518 170.058 111.246 169.861 111.043C169.663 110.84 169.395 110.722 169.112 110.713H67.848C67.565 110.722 67.2965 110.84 67.0994 111.043C66.9022 111.246 66.792 111.518 66.792 111.802C66.792 112.085 66.9022 112.357 67.0994 112.56C67.2965 112.763 67.565 112.881 67.848 112.89Z" fill="#FFFFFD"/>
<path d="M14.937 134.676H41.615C41.898 134.667 42.1665 134.549 42.3636 134.346C42.5607 134.143 42.671 133.871 42.671 133.588C42.671 133.304 42.5607 133.032 42.3636 132.829C42.1665 132.626 41.898 132.508 41.615 132.499H14.937C14.654 132.508 14.3855 132.626 14.1884 132.829C13.9912 133.032 13.881 133.304 13.881 133.588C13.881 133.871 13.9912 134.143 14.1884 134.346C14.3855 134.549 14.654 134.667 14.937 134.676Z" fill="#FFFFFD"/>
<path d="M67.848 135.565H128.763C129.046 135.556 129.314 135.438 129.512 135.235C129.709 135.032 129.819 134.76 129.819 134.477C129.819 134.193 129.709 133.921 129.512 133.718C129.314 133.515 129.046 133.397 128.763 133.388H67.848C67.565 133.397 67.2965 133.515 67.0994 133.718C66.9022 133.921 66.792 134.193 66.792 134.477C66.792 134.76 66.9022 135.032 67.0994 135.235C67.2965 135.438 67.565 135.556 67.848 135.565Z" fill="#FFFFFD"/>
<path d="M14.937 157.352H41.615C41.898 157.343 42.1665 157.225 42.3636 157.022C42.5607 156.819 42.671 156.547 42.671 156.263C42.671 155.98 42.5607 155.708 42.3636 155.505C42.1665 155.302 41.898 155.184 41.615 155.175H14.937C14.654 155.184 14.3855 155.302 14.1884 155.505C13.9912 155.708 13.881 155.98 13.881 156.263C13.881 156.547 13.9912 156.819 14.1884 157.022C14.3855 157.225 14.654 157.343 14.937 157.352Z" fill="#FFFFFD"/>
<path d="M67.848 158.241H151.216C151.499 158.232 151.767 158.114 151.965 157.911C152.162 157.708 152.272 157.436 152.272 157.152C152.272 156.869 152.162 156.597 151.965 156.394C151.767 156.191 151.499 156.073 151.216 156.064H67.848C67.565 156.073 67.2965 156.191 67.0994 156.394C66.9022 156.597 66.792 156.869 66.792 157.152C66.792 157.436 66.9022 157.708 67.0994 157.911C67.2965 158.114 67.565 158.232 67.848 158.241Z" fill="#FFFFFD"/>
<path d="M14.937 180.028H41.615C41.898 180.019 42.1665 179.901 42.3636 179.698C42.5607 179.495 42.671 179.223 42.671 178.94C42.671 178.656 42.5607 178.384 42.3636 178.181C42.1665 177.978 41.898 177.86 41.615 177.851H14.937C14.654 177.86 14.3855 177.978 14.1884 178.181C13.9912 178.384 13.881 178.656 13.881 178.94C13.881 179.223 13.9912 179.495 14.1884 179.698C14.3855 179.901 14.654 180.019 14.937 180.028Z" fill="#FFFFFD"/>
<path d="M67.848 180.917H184.785C185.068 180.908 185.336 180.79 185.534 180.587C185.731 180.384 185.841 180.112 185.841 179.828C185.841 179.545 185.731 179.273 185.534 179.07C185.336 178.867 185.068 178.749 184.785 178.74H67.848C67.565 178.749 67.2965 178.867 67.0994 179.07C66.9022 179.273 66.792 179.545 66.792 179.828C66.792 180.112 66.9022 180.384 67.0994 180.587C67.2965 180.79 67.565 180.908 67.848 180.917Z" fill="#FFFFFD"/>
<path d="M131.406 41.559L129.4 41.19C129.317 41.1746 129.239 41.1392 129.173 41.0869C129.107 41.0346 129.055 40.9671 129.021 40.89L128.187 39.028C128.147 38.9397 128.084 38.8641 128.004 38.81C127.923 38.7558 127.83 38.7252 127.733 38.7216C127.636 38.7179 127.54 38.7414 127.456 38.7894C127.372 38.8373 127.303 38.9079 127.257 38.993L126.286 40.786C126.246 40.8598 126.189 40.9228 126.119 40.9697C126.049 41.0165 125.969 41.0458 125.886 41.055L123.858 41.272C123.762 41.2822 123.67 41.3193 123.594 41.3788C123.517 41.4384 123.459 41.5182 123.426 41.6092C123.392 41.7001 123.385 41.7986 123.405 41.8935C123.424 41.9884 123.47 42.0758 123.537 42.146L124.943 43.624C125.001 43.6851 125.044 43.7595 125.067 43.8407C125.09 43.9219 125.093 44.0075 125.075 44.09L124.655 46.09C124.635 46.1849 124.642 46.2835 124.675 46.3747C124.708 46.4659 124.766 46.5459 124.842 46.6058C124.919 46.6656 125.01 46.7029 125.107 46.7134C125.203 46.7239 125.301 46.7071 125.388 46.665L127.228 45.785C127.304 45.7484 127.388 45.7309 127.472 45.7341C127.556 45.7372 127.638 45.7609 127.711 45.803L129.479 46.819C129.563 46.8676 129.659 46.8916 129.756 46.8884C129.853 46.8851 129.947 46.8548 130.028 46.8007C130.108 46.7467 130.172 46.6711 130.212 46.5826C130.252 46.4941 130.266 46.3962 130.253 46.3L129.984 44.278C129.973 44.1945 129.983 44.1095 130.012 44.0305C130.041 43.9514 130.089 43.8806 130.151 43.824L131.664 42.456C131.737 42.3913 131.791 42.3073 131.818 42.2135C131.846 42.1198 131.846 42.0202 131.82 41.9262C131.793 41.8322 131.741 41.7476 131.668 41.6821C131.596 41.6166 131.506 41.5729 131.41 41.556" fill="#FFA100"/>
<path d="M144.907 41.6L142.901 41.231C142.818 41.2158 142.74 41.1805 142.674 41.1283C142.607 41.076 142.555 41.0082 142.521 40.931L141.687 39.069C141.647 38.9807 141.584 38.9052 141.504 38.851C141.423 38.7968 141.33 38.7662 141.233 38.7626C141.136 38.7589 141.04 38.7824 140.956 38.8304C140.872 38.8784 140.803 38.9489 140.757 39.034L139.786 40.827C139.746 40.9008 139.689 40.9638 139.619 41.0107C139.549 41.0575 139.469 41.0868 139.386 41.096L137.358 41.313C137.262 41.3233 137.17 41.3603 137.094 41.4199C137.017 41.4794 136.959 41.5592 136.926 41.6502C136.892 41.7411 136.885 41.8396 136.905 41.9345C136.924 42.0294 136.97 42.1169 137.037 42.187L138.443 43.665C138.501 43.7261 138.544 43.8005 138.567 43.8817C138.59 43.9629 138.593 44.0485 138.575 44.131L138.155 46.131C138.135 46.2259 138.142 46.3245 138.175 46.4157C138.208 46.5069 138.266 46.5869 138.342 46.6468C138.419 46.7067 138.51 46.7439 138.607 46.7544C138.703 46.7649 138.801 46.7481 138.888 46.706L140.728 45.826C140.804 45.7894 140.888 45.772 140.972 45.7751C141.056 45.7782 141.138 45.8019 141.211 45.844L142.979 46.86C143.063 46.9086 143.159 46.9326 143.256 46.9294C143.353 46.9261 143.447 46.8958 143.528 46.8417C143.608 46.7877 143.672 46.7121 143.712 46.6236C143.752 46.5351 143.766 46.4372 143.753 46.341L143.484 44.319C143.473 44.2355 143.483 44.1506 143.512 44.0715C143.541 43.9925 143.589 43.9216 143.651 43.865L145.164 42.497C145.237 42.4323 145.291 42.3483 145.318 42.2546C145.346 42.1608 145.346 42.0612 145.32 41.9672C145.293 41.8732 145.241 41.7886 145.168 41.7231C145.096 41.6576 145.006 41.6139 144.91 41.597" fill="#FFA100"/>
<path d="M158.408 41.641L156.402 41.272C156.319 41.2566 156.241 41.2212 156.175 41.1689C156.109 41.1166 156.057 41.049 156.023 40.972L155.189 39.11C155.149 39.0216 155.086 38.9461 155.006 38.8919C154.925 38.8378 154.832 38.8072 154.735 38.8035C154.638 38.7999 154.542 38.8234 154.458 38.8713C154.374 38.9193 154.305 38.9898 154.259 39.075L153.287 40.872C153.247 40.9458 153.19 41.0088 153.12 41.0556C153.05 41.1025 152.97 41.1318 152.887 41.141L150.859 41.358C150.763 41.3682 150.671 41.4052 150.595 41.4648C150.518 41.5244 150.46 41.6042 150.427 41.6951C150.393 41.7861 150.386 41.8846 150.406 41.9795C150.425 42.0743 150.471 42.1618 150.538 42.232L151.944 43.71C152.002 43.7711 152.045 43.8454 152.068 43.9266C152.091 44.0078 152.094 44.0934 152.076 44.176L151.656 46.176C151.636 46.2709 151.643 46.3695 151.676 46.4607C151.709 46.5518 151.767 46.6319 151.843 46.6918C151.92 46.7516 152.011 46.7889 152.108 46.7994C152.204 46.8098 152.302 46.7931 152.389 46.751L154.229 45.871C154.305 45.8344 154.389 45.8169 154.473 45.8201C154.557 45.8232 154.639 45.8469 154.712 45.889L156.48 46.905C156.564 46.9535 156.66 46.9776 156.757 46.9743C156.854 46.9711 156.948 46.9407 157.029 46.8867C157.109 46.8326 157.173 46.7571 157.213 46.6686C157.253 46.58 157.267 46.4821 157.254 46.386L156.985 44.364C156.974 44.2804 156.984 44.1955 157.013 44.1165C157.042 44.0374 157.09 43.9666 157.152 43.91L158.665 42.542C158.738 42.4773 158.792 42.3932 158.819 42.2995C158.847 42.2058 158.847 42.1062 158.821 42.0122C158.794 41.9182 158.742 41.8336 158.669 41.7681C158.597 41.7026 158.507 41.6589 158.411 41.642" fill="#FFA100"/>
<path d="M171.91 41.683L169.903 41.314C169.82 41.2986 169.742 41.2632 169.676 41.2109C169.61 41.1587 169.558 41.0911 169.524 41.014L168.69 39.152C168.65 39.0637 168.587 38.9882 168.507 38.934C168.426 38.8799 168.333 38.8492 168.236 38.8456C168.139 38.8419 168.043 38.8654 167.959 38.9134C167.875 38.9614 167.806 39.0319 167.76 39.117L166.789 40.91C166.749 40.9838 166.692 41.0468 166.622 41.0937C166.552 41.1405 166.472 41.1698 166.389 41.179L164.361 41.396C164.265 41.4066 164.174 41.4438 164.097 41.5035C164.021 41.5631 163.963 41.6428 163.93 41.7336C163.896 41.8244 163.889 41.9227 163.909 42.0175C163.928 42.1123 163.974 42.1997 164.04 42.27L165.447 43.748C165.505 43.8092 165.547 43.8836 165.57 43.9648C165.593 44.046 165.596 44.1316 165.578 44.214L165.158 46.214C165.138 46.3089 165.145 46.4076 165.178 46.4987C165.211 46.5899 165.269 46.6699 165.345 46.7298C165.422 46.7897 165.513 46.827 165.61 46.8374C165.706 46.8479 165.804 46.8311 165.891 46.789L167.73 45.909C167.806 45.8725 167.89 45.855 167.974 45.8581C168.058 45.8613 168.14 45.8849 168.213 45.927L169.981 46.943C170.065 46.9916 170.161 47.0156 170.258 47.0124C170.355 47.0092 170.449 46.9788 170.53 46.9247C170.61 46.8707 170.674 46.7951 170.714 46.7066C170.754 46.6181 170.768 46.5202 170.755 46.424L170.486 44.402C170.475 44.3185 170.484 44.2335 170.513 44.1544C170.543 44.0753 170.59 44.0045 170.653 43.948L172.166 42.58C172.239 42.5153 172.293 42.4313 172.32 42.3376C172.348 42.2438 172.348 42.1443 172.322 42.0502C172.295 41.9562 172.243 41.8716 172.17 41.8061C172.098 41.7406 172.008 41.6969 171.912 41.68" fill="#FFA100"/>
<path d="M185.665 42.62C185.738 42.5553 185.792 42.4713 185.819 42.3776C185.847 42.2838 185.847 42.1842 185.821 42.0902C185.794 41.9962 185.742 41.9116 185.669 41.8461C185.597 41.7806 185.507 41.7369 185.411 41.72L183.405 41.351C183.322 41.3354 183.244 41.3 183.178 41.2477C183.112 41.1955 183.059 41.128 183.025 41.051L182.192 39.189C182.152 39.1007 182.089 39.0251 182.009 38.971C181.928 38.9168 181.835 38.8862 181.738 38.8826C181.641 38.8789 181.545 38.9024 181.461 38.9504C181.377 38.9984 181.308 39.0689 181.262 39.154L180.291 40.948C180.251 41.022 180.194 41.0851 180.124 41.132C180.055 41.1789 179.974 41.208 179.891 41.217L177.862 41.434C177.766 41.4443 177.674 41.4813 177.598 41.5409C177.521 41.6004 177.463 41.6802 177.43 41.7712C177.396 41.8621 177.389 41.9606 177.409 42.0555C177.428 42.1504 177.474 42.2378 177.541 42.308L178.947 43.786C179.005 43.847 179.048 43.9212 179.071 44.0021C179.094 44.0831 179.097 44.1685 179.08 44.251L178.66 46.251C178.64 46.3459 178.647 46.4445 178.68 46.5356C178.713 46.6268 178.77 46.7069 178.847 46.7669C178.923 46.8269 179.014 46.8643 179.111 46.8749C179.207 46.8855 179.305 46.8689 179.392 46.827L181.233 45.946C181.309 45.9098 181.393 45.8925 181.477 45.8959C181.561 45.8992 181.643 45.9229 181.716 45.965L183.484 46.981C183.568 47.0292 183.664 47.0529 183.761 47.0495C183.858 47.046 183.952 47.0156 184.032 46.9617C184.113 46.9077 184.176 46.8323 184.216 46.7441C184.256 46.6558 184.271 46.5581 184.258 46.462L183.989 44.44C183.978 44.3565 183.987 44.2714 184.016 44.1923C184.045 44.1131 184.093 44.0423 184.156 43.986L185.665 42.62Z" fill="#FFA100"/>
<path d="M44.765 30.402C44.7648 33.6953 43.7881 36.9145 41.9584 39.6527C40.1287 42.3909 37.5282 44.5251 34.4857 45.7854C31.4431 47.0457 28.0952 47.3755 24.8652 46.7332C21.6352 46.0909 18.6682 44.5053 16.3393 42.1768C14.0104 39.8484 12.4243 36.8816 11.7814 33.6518C11.1385 30.4219 11.4677 27.0739 12.7275 24.0311C13.9873 20.9884 16.121 18.3874 18.8588 16.5573C21.5967 14.7271 24.8158 13.7498 28.109 13.749C30.2961 13.7486 32.462 14.1791 34.4827 15.0158C36.5035 15.8525 38.3397 17.0791 39.8864 18.6255C41.4331 20.1719 42.66 22.0079 43.4971 24.0285C44.3341 26.0491 44.765 28.2149 44.765 30.402Z" fill="#FFFFFD"/>
</g>
</svg>
